<?xml version="1.0" standalone="no"?>
<!DOCTYPE svg PUBLIC "-//W3C//DTD SVG 1.1//EN" "http://www.w3.org/Graphics/SVG/1.1/DTD/svg11.dtd">
<svg xmlns="http://www.w3.org/2000/svg">
  <defs>
    <font id="OpenSans" horiz-adv-x="1026">
      <font-face font-family="Open Sans Medium" units-per-em="2048" panose-1="0 0 0 0 0 0 0 0 0 0" ascent="2189" descent="-600" alphabetic="0" />
      <glyph unicode=" " glyph-name="gid3" horiz-adv-x="532" />
      <glyph unicode="!" glyph-name="gid4" horiz-adv-x="540" d="M154,426L339,1462H575L320,426H154Zm1-454Q97-28 68,4T39,86q0,64 37.5,115.5T198,253q50,0 80.5-29.5T309,139q0-63-39-115T155-28Z" />
      <glyph unicode="&quot;" glyph-name="gid5" horiz-adv-x="821" d="M577,934l75,528H857L707,934H577Zm-359,0l74,528H498L347,934H218Z" />
      <glyph unicode="#" glyph-name="gid6" horiz-adv-x="1318" d="M192,0L312,426H57L70,572H353l94,315H177l13,145H487l122,430H766L643,1032H921l125,430h151l-122-430h257l-14-145H1032L940,572h278l-14-146H899L776,0H618L746,426H468L344,0H192ZM510,572H788l88,315H600L510,572Z" />
      <glyph unicode="$" glyph-name="gid7" horiz-adv-x="1128" d="M350-119L398,97q-92,5-178.5,24.5T68,173V354q77-41 173.5-66.5T430,259l92,421q-86,32-149.5,74.5t-99,104T238,1009q0,118 56.5,197.5t154,124T668,1385l38,168H834l-35-169q78-7 149.5-26.5T1084,1305l-73-159q-52,27-116,48t-131,25L677,812q92-36 157.5-77.5T935,635t35-145q0-116-56-199.5T758,159T524,98L477-119H350ZM559,264q61,8 109.5,34t78,69.5T776,472q0,38-15,67t-45,52.5T639,634L559,264Zm0,594l76,361q-60-6-107.5-30t-74-66.5T427,1017q0-35 15-65t44-53.5T559,858Z" />
      <glyph unicode="%" glyph-name="gid8" horiz-adv-x="1659" d="M233,0L1318,1462h171L404,0H233ZM397,565q-117,0-180.5,77.5T153,866q0,63 11,144.5t38,164T274,1327t113,113t162,43q120,0 184-74t64-215q0-59-12-140.5T745.5,887t-74-158t-114-118.5T397,565Zm15,146q50,0 86.5,36.5t62,95t41,124t23,125T632,1189q0,79-24.5,114T536,1338q-48,0-84.5-34t-62-88.5t-41.5-119t-23.5-126T317,863q0-76 23.5-114T412,711ZM1173-20q-119,0-183,75.5T926,274q0,68 12,151t38.5,166T1049,743.5t113,112T1322,898q121,0 185.5-74T1572,612q0-61-12.5-143t-40-167.5t-74-158.5t-114-118T1173-20Zm13,146q49,0 85.5,37t62.5,94.5T1376,381t23,125t7,97q0,78-25,113.5T1309,752q-48,0-84-33.5T1163.5,630t-41-119t-23-125.5T1092,278q0-75 23-113.5t71-38.5Z" />
      <glyph unicode="&amp;" glyph-name="gid9" horiz-adv-x="1398" d="M458-20Q282-20 175.5,73.5T69,344q0,110 44.5,192T244,684.5T455,810q-42,67-70,141t-28,153q0,113 48.5,198.5t139,134T759,1485q104,0 178-37.5T1050,1344t39-153q0-104-52-179T896.5,880T697,770L956,411q65,63 111.5,141T1147,714h201q-37-88-81.5-165t-97-146T1056,274L1258,0H1022L917,149Q823,75 716,27.5T458-20Zm35,168q68,0 125.5,17.5t107,48T822,281L537,687q-72-37-132.5-80.5T307.5,504T271,359q0-63 28-111t78-74t116-26ZM619,890q47,24 96,51t91,60.5t67,76t25,95.5q0,70-40.5,111T747,1325q-63,0-108-27t-69.5-75T545,1109q0-59 18.5-113.5T619,890Z" />
      <glyph unicode="&apos;" glyph-name="gid10" horiz-adv-x="461" d="M218,934l74,528H498L347,934H218Z" />
      <glyph unicode="(" glyph-name="gid11" horiz-adv-x="611" d="M225-324q-47,85-80,180T95.5,56T79,272q0,182 33.5,344.5t98,309t158.5,280T583,1462H764q-109-120-200.5-254T405,925T301,612.5T264,271q0-114 14-218t40-197.5T382-324H225Z" />
      <glyph unicode=")" glyph-name="gid12" horiz-adv-x="611" d="M-153-324Q-42-204 49-69.5T207,214T310,526.5T346,868q0,114-13,217t-39,197.5T230,1462H387q47-84 79-179.5T515,1083t17-217q0-182-33.5-345t-98-309T242.5-67.5T28-324H-153Z" />
      <glyph unicode="*" glyph-name="gid13" horiz-adv-x="1122" d="M755,612L645,995L402,676L264,804l299,271L205,1188l62,170l361-184l42,391l187-38L740,1151l410,25l-10-180l-378,40L935,668L755,612Z" />
      <glyph unicode="+" glyph-name="gid14" horiz-adv-x="1171" d="M699,800h405V644H699V229H541V644H135V800H541v417H699V800Z" />
      <glyph unicode="," glyph-name="gid15" horiz-adv-x="527" d="M-91-264q37,83 73.5,171.5T51.5,81T110,238H316l8-23q-33-73-76-156T156.5-107T60-264H-91Z" />
      <glyph unicode="-" glyph-name="gid16" horiz-adv-x="646" d="M52,460L91,638H584L546,460H52Z" />
      <glyph unicode="." glyph-name="gid17" horiz-adv-x="532" d="M152-28Q96-28 67.5,3T39,84q0,65 38.5,117T201,253q48,0 78-29t30-84q0-65-40-116.5T152-28Z" />
      <glyph unicode="/" glyph-name="gid18" horiz-adv-x="754" d="M-92,0L721,1462H923L111,0H-92Z" />
      <glyph unicode="0" glyph-name="gid19" horiz-adv-x="1128" d="M480-20Q295-20 200.5,107T106,469q0,110 15,227.5T168,928t81.5,214.5t118,177.5t157,121T722,1485q94,0 164.5-30t117.5-89t70-146.5t23-201.5q0-125-15.5-250t-48-240.5T951,312T832.5,138T676,22T480-20Zm20,169q65,0 119,37.5t98,104T794,443t55,184t33,199.5T893,1023q0,144-45.5,218T709,1315q-64,0-118.5-38T491,1172.5T412,1021T355,841T320,650.5T308,469q0-156 45.5-238T500,149Z" />
      <glyph unicode="1" glyph-name="gid20" horiz-adv-x="1128" d="M411,0L605,906q13,56 27,117t28.5,116t25.5,95q-27-27-60.5-53T553,1131L361,1009l-92,148l484,305H925L613,0H411Z" />
      <glyph unicode="2" glyph-name="gid21" horiz-adv-x="1128" d="M-6,0L27,160L501,586q96,87 166.5,155t116,127.5t68,118.5T874,1113q0,90-53.5,144T670,1311q-57,0-109-16.5t-103-46T354,1178l-96,136q92,73 197.5,121T696,1483q127,0 212.5-44T1038,1319t44-173q0-122-49.5-224T883,716T630,479L292,187v-8H942L907,0H-6Z" />
      <glyph unicode="3" glyph-name="gid22" horiz-adv-x="1128" d="M423-20Q305-20 210,1T37,60V247q74-42 177.5-71.5T421,146q82,0 146.5,20T677,223t68.5,90.5T769,434q0,76-32.5,130T639,646T477,674H342l32,159H495q74,0 143,18.5t123,56t85.5,93T878,1129q0,87-55,136.5T675,1315q-95,0-174-33t-152-84l-90,140q89,63 195,104t248,41q124,0 208.5-41.5t128-114.5t43.5-169q0-104-44.5-187.5t-128-139T710,755v-8q115-22 190.5-101T976,433q0-88-32.5-169.5t-100-145t-172-101T423-20Z" />
      <glyph unicode="4" glyph-name="gid23" horiz-adv-x="1128" d="M575,0l71,330H4L38,501l820,962h221L878,501h214l-37-171H839L769,0H575ZM238,501H682l75,347q16,70 35,145t37.5,141.5T860,1243h-8q-25-41-66-96.5T713,1055L238,501Z" />
      <glyph unicode="5" glyph-name="gid24" horiz-adv-x="1128" d="M410-20q-68,0-131,9.5T161.5,17T64,60V248q72-44 159-72t181-28q102,0 176,27t121,74.5t69.5,109T793,489q0,116-68.5,184T526,741q-63,0-118.5-10.5T292,704l-79,61l201,697h692l-38-179H550L432,879q34,8 76,14.5t96,6.5q119,0 207.5-45.5T950,723t50-209q0-100-32-195.5T866,147T684,25.5T410-20Z" />
      <glyph unicode="6" glyph-name="gid25" horiz-adv-x="1128" d="M515-20Q392-20 303,32T167,186T120,438q0,110 19.5,229T199,902t99.5,218T438,1298q61,60 135,101.5t163,63T929,1484q56,0 108-6.5t89-17.5l-38-170q-35,11-79,18t-99,7q-133,0-241.5-58.5T479.5,1074T351,751h7q38,51 89,90.5t114,62T699,926q151,0 241-96t90-272q0-100-30-202T907,169T747,32T515-20Zm15,167q73,0 129,33t94,89.5t58,127T831,541q0,107-50,165.5T630,765q-74,0-135-34T393,648t-57-95q-6-19-10.5-42T319,464.5T317,417q0-53 12-101.5T366,229t66-60t98-22Z" />
      <glyph unicode="7" glyph-name="gid26" horiz-adv-x="1128" d="M149,0L913,1287H215l36,175h917l-29-147L371,0H149Z" />
      <glyph unicode="8" glyph-name="gid27" horiz-adv-x="1128" d="M505-20Q364-20 270,29.5t-140.5,132T83,346q0,107 46,189T261.5,677.5T467,782q-50,37-90,81T314,963.5T291,1095q0,117 56.5,205t157,136.5T735,1485q132,0 215.5-45.5t123-119.5t39.5-159q0-107-47-183T941.5,851T774,763q67-40 119.5-90.5T976,555t30-159q0-111-54.5-205.5T786,38T505-20Zm18,160q95,0 157.5,36t94,94T806,393q0,66-23.5,118t-69,94.5T602,685q-92-30-163-71T327.5,512T287,361q0-104 65.5-162.5T523,140ZM645,852q87,33 147,72.5t91.5,92T915,1140q0,85-54,134t-143,49q-69,0-121.5-27.5T515,1218t-29-119q0-88 44-146T645,852Z" />
      <glyph unicode="9" glyph-name="gid28" horiz-adv-x="1128" d="M335-20q-63,0-127.5,9.5T94,14V193q50-17 111-30t130-13q103,0 184.5,36.5t143,107T768,466.5T842,702h-8q-34-48-82-85T645,558.5T515,537q-113,0-191,46.5T206.5,716T167,921q0,84 21,165.5t63,153T356,1366t145.5,86.5T686,1484q122,0 209-51.5T1028.5,1279t46.5-254q0-108-18.5-227t-55-236T913,343.5T794,170q-45-49-97-85T587.5,25.5T467-9T335-20ZM566,698q68,0 125,27t99,74.5T854,907q12,30 17.5,67t5.5,80q0,76-23,135t-68.5,93T671,1316q-73,0-130-31.5t-96-85t-59-122T366,933q0-113 51.5-174T566,698Z" />
      <glyph unicode=":" glyph-name="gid29" horiz-adv-x="532" d="M323,846q-56,0-84.5,30.5T210,955q0,45 16.5,84t52.5,63t92,24q49,0 78.5-28t29.5-84q0-67-39.5-117.5T323,846ZM152-28Q96-28 67.5,3T39,84q0,65 38.5,117T201,253q48,0 78-29t30-84q0-65-40-116.5T152-28Z" />
      <glyph unicode=";" glyph-name="gid30" horiz-adv-x="532" d="M-100-264q37,83 73.5,171.5T43,81t58,157H309l7-23q-33-73-76-156T148.5-107T52-264H-100ZM323,846q-56,0-84.5,30.5T210,955q0,45 16.5,84t52.5,63t92,24q49,0 78.5-28t29.5-84q0-67-39.5-117.5T323,846Z" />
      <glyph unicode="&lt;" glyph-name="gid31" horiz-adv-x="1171" d="M1105,233L135,662V769l970,481V1079L348,723l757-320V233Z" />
      <glyph unicode="=" glyph-name="gid32" horiz-adv-x="1171" d="M144,845v156h952V845H144Zm0-404V597h952V441H144Z" />
      <glyph unicode="&gt;" glyph-name="gid33" horiz-adv-x="1171" d="M135,403L894,722L135,1079v171l970-481V662L135,233V403Z" />
      <glyph unicode="?" glyph-name="gid34" horiz-adv-x="891" d="M259,426q16,92 44.5,159t78,123.5T507,822q67,49 120.5,94t85,97T744,1136q0,83-47,130t-138,47q-75,0-148.5-25.5T263,1226l-68,152q86,45 186.5,75T584,1483q166,0 263-83t97-241q0-96-36-170T805.5,850.5T647,719q-73-53-116-93t-66-85T425,426H259ZM272-28q-56,0-84.5,31T159,84q0,65 38,117t122,52q50,0 79.5-29T428,140q0-65-39.5-116.5T272-28Z" />
      <glyph unicode="@" glyph-name="gid35" horiz-adv-x="1739" d="M790-186q-158,0-284.5,47.5T289.5-1t-137,217T105,502q0,158 44,301.5t127.5,263t201,207.5t265,136.5T1062,1459q212,0 352-80.5t209.5-219T1693,848q0-106-21-201.5T1612,472t-95-137t-124.5-89.5T1244,214q-104,0-153,50t-59,126h-8q-45-76-113.5-126T741,214q-112,0-182,73.5T489,504q0,95 25.5,179.5t73,154T699.5,957T842,1034t165,27q98,0 167-17.5t123-39.5l-97-373q-16-60-25-100t-9-75q0-57 25.5-81.5T1256,350q50,0 92.5,27.5T1425,453t58.5,110.5T1521,696t13,141q0,137-50.5,246T1324,1255t-287,63q-138,0-256.5-39.5t-213-112T406,994T303.5,772T268,513q0-168 61-293T511.5,26.5T811-42q114,0 222,24t203,60V-97q-102-42-215.5-65.5T790-186ZM779,350q97,0 160.5,85T1041,657l66,249q-21,8-51,14.5T989,927q-73,0-134-33T749,803.5T679.5,672T655,516q0-87 33.5-126.5T779,350Z" />
      <glyph unicode="A" glyph-name="gid36" horiz-adv-x="1183" d="M-117,0L675,1462H901L1077,0H877L828,437H331L102,0H-117ZM423,615H811L776,965q-7,70-14,152t-8,150h-5q-29-71-65.5-147T605,964L423,615Z" />
      <glyph unicode="B" glyph-name="gid37" horiz-adv-x="1239" d="M78,0L387,1462H777q137,0 235.5-34.5t151-107.5t52.5-187q0-100-40-176T1062,832T888,763v-9q101-27 166.5-100.5T1120,461q0-154-74-256.5T844,51T553,0H78ZM317,173H563q107,0 184.5,33t120,97T910,460q0,98-62.5,159T646,680H424L317,173ZM460,847H684q91,0 163.5,27T963,957.5t43,143.5q0,92-59.5,140.5T756,1290H554L460,847Z" />
      <glyph unicode="C" glyph-name="gid38" horiz-adv-x="1216" d="M666-20Q499-20 383,48.5t-178,195T143,543q0,135 31.5,269.5t94,255t157,214t221.5,148T932,1484q113,0 202-21.5t170-65.5l-79-169q-62,34-132.5,56.5T932,1307q-117,0-209.5-43.5T561,1144.5T446.5,972T378,767T355,550q0-185 90.5-289T703,157q86,0 168.5,18T1033,221V45Q959,18 871.5-1T666-20Z" />
      <glyph unicode="D" glyph-name="gid39" horiz-adv-x="1373" d="M78,0L387,1462H742q266,0 416-143t150-433q0-154-35.5-289t-106-244.5T993.5,164T756,42.5T455,0H78ZM317,174H466q125,0 225,35.5t175.5,101t127,154t77,195T1096,883q0,213-102,310t-276,97H554L317,174Z" />
      <glyph unicode="E" glyph-name="gid40" horiz-adv-x="1071" d="M78,0L387,1462h760l-37-176H553L460,851H981L946,677H424L317,177H875L837,0H78Z" />
      <glyph unicode="F" glyph-name="gid41" horiz-adv-x="1006" d="M78,0L387,1462h759l-36-176H553L448,788H969L931,613H409L280,0H78Z" />
      <glyph unicode="G" glyph-name="gid42" horiz-adv-x="1397" d="M691-20Q433-20 288,125.5T143,536q0,159 36.5,301.5t106,260.5T454,1302.5t223.5,134T948,1484q127,0 226.5-23.5T1367,1394l-77-173q-76,36-161.5,60.5T943,1306q-130,0-238-57.5t-186-161T398,847T355,551q0-117 39.5-206T515,206.5T720,157q74,0 135,11t109,26l89,409H761l38,175h493L1136,58Q1041,24 934.5,2T691-20Z" />
      <glyph unicode="H" glyph-name="gid43" horiz-adv-x="1403" d="M79,0L388,1462H592L462,852h618l130,610h200L1101,0H900l142,675H424L282,0H79Z" />
      <glyph unicode="I" glyph-name="gid44" horiz-adv-x="580" d="M77,0L388,1462H589L278,0H77Z" />
      <glyph unicode="J" glyph-name="gid45" horiz-adv-x="582" d="M-158-396q-52,0-94.5,7T-322-371l4,172q33-8 71-14t81-6q64,0 115,26.5T36.5-111T91,31L395,1462H598L289,6q-31-143-91.5-232T48-355.5T-158-396Z" />
      <glyph unicode="K" glyph-name="gid46" horiz-adv-x="1174" d="M78,0L387,1462H589L436,746L570,897l543,565h244L726,807L1064,0H841L566,688L400,569L280,0H78Z" />
      <glyph unicode="L" glyph-name="gid47" horiz-adv-x="1002" d="M78,0L387,1462H589L317,178H875L837,0H78Z" />
      <glyph unicode="M" glyph-name="gid48" horiz-adv-x="1736" d="M76,0L385,1462H666L796,279h8l638,1183h300L1437,0H1240l180,854q17,79 34.5,152.5T1488,1144t29,111h-5L829,0H659L520,1254h-8q-5-42-15-108.5t-23-142T446,858L265,0H76Z" />
      <glyph unicode="N" glyph-name="gid49" horiz-adv-x="1467" d="M76,0L385,1462H608L1040,275h6q7,48 18,115t25,140t27,137l171,795h188L1166,0H947L509,1197h-7q-4-29-11-75.5t-16.5-104T454,900.5T431,787L265,0H76Z" />
      <glyph unicode="O" glyph-name="gid50" horiz-adv-x="1481" d="M683-20Q507-20 386.5,50t-182,197T143,546q0,122 22,238.5T230,1006t106.5,192.5T483,1350t184.5,99.5T890,1485q251,0 388.5-151.5T1416,916q0-120-20-236t-60-220.5t-101-192t-142-152T910,15.5T683-20Zm10,177q80,0 148.5,28t125,79T1067,384.5T1141.5,539t46,180.5T1203,917q0,184-86.5,287.5T874,1308q-80,0-150-27.5T596.5,1202T494,1081.5T418,927T371,746.5T355,549q0-123 40-211T510.5,203.5T693,157Z" />
      <glyph unicode="P" glyph-name="gid51" horiz-adv-x="1182" d="M78,0L387,1462H736q160,0 259-48.5T1139,1277t45-206q0-123-42-217.5T1018,694T818.5,596T550,563H399L280,0H78ZM436,734H575q125,0 215,36.5T929,881t49,185q0,117-65,170.5T715,1290H554L436,734Z" />
      <glyph unicode="Q" glyph-name="gid52" horiz-adv-x="1481" d="M923-348L712-18q-8-1-15.5-1.5T682-20Q506-19 386.5,50.5T205,247T143,546q0,122 22,238.5T230,1006t106.5,192.5T483,1350t184.5,99.5T890,1485q251,0 388.5-151.5T1416,916q0-120-20.5-236t-61-220.5T1232.5,268t-142-151T908,19l267-367H923ZM693,157q81,0 150,28t125.5,79T1069,384.5T1142.5,539t45,180.5T1203,917q0,184-86.5,287.5T874,1308q-80,0-150-27.5T596.5,1202T494,1081.5T418,927T371,746.5T355,549q0-123 40-211T510.5,203.5T693,157Z" />
      <glyph unicode="R" glyph-name="gid53" horiz-adv-x="1190" d="M78,0L387,1462H717q223,0 338.5-93T1171,1087q0-110-38-198T1015.5,738.5T814,641L1059,0H838L628,598H407L280,0H78ZM442,769H595q92,0 161,21t115,60.5t69,96T963,1074q0,116-66.5,165T696,1288H554L442,769Z" />
      <glyph unicode="S" glyph-name="gid54" horiz-adv-x="1045" d="M386-20Q277-20 192.5-2T40,51V245q70-37 155.5-64T388,154q64,0 122.5,14.5t103.5,45t71,78T711,403q0,59-25,102.5t-76,84T479,676q-72,45-132,96T251.5,891.5T216,1056q0,101 37.5,180t104,134.5t154.5,84T701,1483q115,0 202.5-23.5T1073,1395l-76-167q-61,32-137.5,55T701,1306q-57,0-106.5-15t-87-45.5t-58-74T429,1070q0-62 23.5-103.5T522,891t113-74q87-52 151-106t99.5-122.5T921,422q0-111-40-194T769,90T599.5,7.5T386-20Z" />
      <glyph unicode="T" glyph-name="gid55" horiz-adv-x="1038" d="M303,0L575,1285H181l38,177h992l-37-177H780L507,0H303Z" />
      <glyph unicode="U" glyph-name="gid56" horiz-adv-x="1396" d="M612-20Q461-20 360.5,28T209,166.5T158,386q0,34 5.5,81T179,565l192,897H574L382,559q-10-43-15.5-88.5T361,394q0-112 67-174.5T627,157q114,0 190.5,41t123,122T1013,522l201,940h202L1213,504q-34-161-106.5-278.5T913,44T612-20Z" />
      <glyph unicode="V" glyph-name="gid57" horiz-adv-x="1147" d="M342,0L189,1462H388l87-933q5-51 8.5-105.5T488,317t0-97h5q18,46 40,95.5T580.5,418T636,530l476,932h220L560,0H342Z" />
      <glyph unicode="W" glyph-name="gid58" horiz-adv-x="1767" d="M272,0L213,1462H410l25-886q2-80-0.5-169T426,238h7q29,79 66.5,175T576,591l404,871h196l39-868q5-82 6-181t-2-175h7q18,52 38.5,110t43,117.5T1353,581l381,881h211L1286,0H1071l-40,893q-3,56-5,106.5t-2,97.5t0,91h-6q-21-66-47.5-130T904,906L486,0H272Z" />
      <glyph unicode="X" glyph-name="gid59" horiz-adv-x="1113" d="M-110,0L484,771L228,1462H436L627,905l426,557h225L725,758L1002,0H786L580,617L115,0H-110Z" />
      <glyph unicode="Y" glyph-name="gid60" horiz-adv-x="1067" d="M310,0L429,552L188,1462H393L563,755l464,707h228L628,549L514,0H310Z" />
      <glyph unicode="Z" glyph-name="gid61" horiz-adv-x="1091" d="M-30,0L-1,149L892,1284H262l37,178h881l-28-150L258,178H933L896,0H-30Z" />
      <glyph unicode="[" glyph-name="gid62" horiz-adv-x="617" d="M-23-324L358,1462H773l-35-155H507L193-168H426L392-324H-23Z" />
      <glyph unicode="\" glyph-name="gid63" horiz-adv-x="754" d="M440,0L220,1462H398L620,0H440Z" />
      <glyph unicode="]" glyph-name="gid64" horiz-adv-x="617" d="M-144-324l32,156H120L432,1307H200l34,155H649L268-324H-144Z" />
      <glyph unicode="^" glyph-name="gid65" horiz-adv-x="1157" d="M70,542l496,930H675l410-930H918L610,1260L242,542H70Z" />
      <glyph unicode="_" glyph-name="gid66" horiz-adv-x="808" d="M-186-320l29,133H653L625-320H-186Z" />
      <glyph unicode="`" glyph-name="gid67" horiz-adv-x="583" d="M526,1241q-39,40-84,95t-83.5,112T299,1548v21H510q15-49 37-101.5t48.5-104T649,1266v-25H526Z" />
      <glyph unicode="a" glyph-name="gid68" horiz-adv-x="1173" d="M399-20q-87,0-155.5,42.5T136,150T97,363q0,118 25,229t71.5,207t112,168.5t148,113.5T631,1122q74,0 128-26t91-69.5T908,932h10l62,170h153L900,0H744l26,195h-8q-44-57-99-106T542,10T399-20Zm70,164q73,0 143,54.5T736.5,345T819,550q14,54 19,101t5,91q0,95-50,154.5T656,956q-61,0-115-32.5T443,834T367.5,702.5T318.5,541T301,364q0-108 44-164t124-56Z" />
      <glyph unicode="b" glyph-name="gid69" horiz-adv-x="1192" d="M561-20Q485-20 429.5,6T337,74.5T278,169h-9L205,0H53L383,1556H583l-76-354q-13-60-28.5-123T450,968.5T430,905h8q45,57 96.5,106t114,79T787,1120q89,0 158-41.5t108.5-126T1093,738q0-115-23.5-226T1001,305T891.5,136T743.5,21.5T561-20ZM539,144q63,0 117,33.5T753,269t73.5,133.5t46.5,161T889,736q0,109-43,164.5T718,956q-48,0-95-24t-89-67t-77.5-99.5t-61-123t-40-138T341,362q0-98 49.5-158T539,144Z" />
      <glyph unicode="c" glyph-name="gid70" horiz-adv-x="943" d="M506-20Q386-20 293.5,25.5t-144,136T98,390q0,118 25,227t74,200.5t119.5,160t161,106.5T676,1122q78,0 151-15t133-42L902,903q-45,20-101,36.5T680,956q-86,0-156-45T404.5,788T328,609.5T301,398q0-79 28-136t80-87.5T533,144q74,0 138.5,21T800,216V48Q741,18 668-1T506-20Z" />
      <glyph unicode="d" glyph-name="gid71" horiz-adv-x="1192" d="M399-20q-87,0-155.5,41.5T136,148T97,363q0,116 24,226.5T190,796T300.5,965t149,114T632,1120q75,0 127.5-26.5t88.5-69T906,932h10q4,36 9.5,78.5T939,1099t18,92l77,365h199L903,0H743l25,195h-8Q714,137 660,88T541.5,9.5T399-20Zm74,164q47,0 93,24t88,66.5t77,99t61.5,123t41,138T848,738q0,99-47.5,158.5T652,956q-62,0-116-33.5T438.5,831t-74-133.5t-47-161T301,364q0-108 43.5-164T473,144Z" />
      <glyph unicode="e" glyph-name="gid72" horiz-adv-x="1050" d="M506-20Q381-20 289.5,29T148,171.5T98,398q0,135 39,264T250,895t179,165.5T667,1122q160,0 242-72t82-194q0-84-38.5-154.5T834,579.5t-201-80T346,471H305q-2-16-3-35t-1-36q0-121 61-190.5T543,140q81,0 152,22t153,61V59Q770,23 691,1.5T506-20ZM331,624h30q125,0 223,23t155.5,72T797,844q0,54-35.5,87T655,964q-66,0-130-40.5t-115.5-117T331,624Z" />
      <glyph unicode="f" glyph-name="gid73" horiz-adv-x="670" d="M-88-492q-42,0-78.5,6.5T-229-470v166q28-10 55.5-16t59.5-6q70,0 112.5,54.5T64-111L288,949H104l18,90l198,66l22,101q23,102 56.5,171.5T478,1489t106.5,60T722,1567q55,0 109-12t91-29l-52-151q-30,12-63.5,20.5T733,1404q-78,0-123-45.5T541,1200l-22-98H751L720,949H488L258-137q-23-108-65.5-188T82-448.5T-88-492Z" />
      <glyph unicode="g" glyph-name="gid74" horiz-adv-x="1074" d="M319-492q-196,0-307,74T-99-211q0,106 71.5,183T200,101q-37,21-56.5,52T124,225q0,69 48.5,119T314,437q-64,37-101,100.5T176,686q1,98 33.5,179.5T301,1004q57,55 135.5,85.5T610,1120q39,0 78-5t77-15h376l-27-118L908,956q19-30 29-69t9-85q0-97-32-175.5T822,493q-56-51-134-79T514,386q-28,0-50,2t-38,6q-65-23-96.5-54T298,273q0-26 16-43q16-14 44-22t69-13l122-14q118-14 192-47T850,44.5T885-95q0-107-47-185.5T701-410q-71-40-167-61T319-492Zm10,142q89,0 158,15.5T603-290q48,31 73.5,73.5T702-119q0,24-7.5,43.5T671-41Q645-16 598-1T479,21L325,37Q245,21 190.5-11T108-88.5T80-191q0-76 63.5-117.5T329-350ZM520,516q77,0 131,41.5t83,111T763,822q0,40-10.5,71T722,944q-20,21-49.5,31.5T605,986q-57,0-102.5-23.5t-77-65T377,801T360,683q0-36 9-64.5T395,570q40-54 125-54Z" />
      <glyph unicode="h" glyph-name="gid75" horiz-adv-x="1194" d="M53,0L383,1556H583l-81-370q-8-44-20.5-93t-26-97T430,905h9q40,52 92,101.5T650.5,1088T802,1120q89,0 151-33t95-97t33-159q0-38-6-80t-15-88L919,0H718L862,681q9,42 13,73.5t4,55.5q0,71-34,108.5T738,956q-74,0-149.5-52.5T451,745T354,478L253,0H53Z" />
      <glyph unicode="i" glyph-name="gid76" horiz-adv-x="540" d="M53,0L287,1102H487L253,0H53ZM442,1280q-46,0-77,25t-31,74q0,39 15.5,70.5t45,49.5t71.5,18q48,0 75.5-23.5T569,1422q0-64-36.5-103T442,1280Z" />
      <glyph unicode="j" glyph-name="gid77" horiz-adv-x="540" d="M-124-492q-40,0-76.5,6.5T-262-470v166q26-10 56-16t61-6q43,0 76.5,21T-11-240.5T27-132L287,1102H487L219-155q-21-101-61.5-177T49-450t-173-42ZM441,1280q-46,0-76,25t-30,74q0,39 15.5,70.5T395,1499t71,18q48,0 75.5-23.5T569,1422q0-64-37-103t-91-39Z" />
      <glyph unicode="k" glyph-name="gid78" horiz-adv-x="1042" d="M51,0L381,1556H583L444,906q-19-86-36-152T377.5,643.5T357,574h5l518,528h234L634,622L927,0H705L481,496L332,381L253,0H51Z" />
      <glyph unicode="l" glyph-name="gid79" horiz-adv-x="540" d="M51,0L383,1556H583L252,0H51Z" />
      <glyph unicode="m" glyph-name="gid80" horiz-adv-x="1802" d="M53,0L287,1102H446L422,891h9q38,56 89.5,108.5t118,87.5T789,1122q115,0 176-65.5T1039,877h7q40,63 95.5,119t125.5,91t154,35q130,0 199-73.5T1689,840q0-45-5.5-88T1667,663L1527,0H1326l145,681q9,42 13.5,74.5T1489,816q0,66-33,103t-102,37q-53,0-106.5-30T1145,837.5t-88.5-145T993,494L889,0H689L833,679q9,43 13.5,75.5T851,811q0,69-31,107T720,956q-52,0-106-29.5T510.5,837T420,688T354,478L253,0H53Z" />
      <glyph unicode="n" glyph-name="gid81" horiz-adv-x="1194" d="M48,0L283,1105H451L426,895h4q39,56 92,109t122.5,87.5T802,1126q90,0 153.5-34t97-98T1086,840q0-44-7-91t-15-87L921,0H713L858,682q9,43 14,74.5t5,58.5q0,68-35,102.5T738,952q-72,0-146.5-52T455,743T358,478L256,0H48Z" />
      <glyph unicode="o" glyph-name="gid82" horiz-adv-x="1164" d="M508-17Q382-17 290,34.5T148,181T98,406q0,108 23,211.5t68.5,194T303,971t157,108t199,39q128,0 219.5-51.5t141-147.5T1069,690q0-105-22.5-207T979,290.5T867,131T710.5,22.5T508-17Zm14,165q59,0 111.5,26t95,74.5t73,117t47,154T865,704q0,63-20.5,120T778,917T655,953q-67,0-122.5-29.5t-98.5-82t-72.5-122T316,569T300,401q0-121 57.5-187T522,148Z" />
      <glyph unicode="p" glyph-name="gid83" horiz-adv-x="1192" d="M-50-490L287,1102H446L422,899h7q44,59 98,109.5t119.5,81T790,1120q88,0 156-41.5T1053.5,952T1093,736q0-115-23.5-225.5T1001,304T891,135T743,21T561-20Q486-20 432.5,6T343,75t-60,94h-8q-5-48-14-110T241-52L148-490H-50ZM539,144q63,0 117,33.5T753,269t73.5,133.5t46.5,161T889,736q0,109-43,164.5T718,956q-48,0-95-24t-89-66.5t-77.5-99t-61-123t-40-138T341,362q0-98 49.5-158T539,144Z" />
      <glyph unicode="q" glyph-name="gid84" horiz-adv-x="1192" d="M600-490L692-58q8,30 19.5,75.5T736,111t23,86h-8q-43-57-96-107T538.5,10T397-20q-86,0-154,42T136,149T97,363q0,115 24,225.5t69,207t111,170t149.5,115T634,1122q73,0 126.5-26t91-69T912,932h10l63,170h152L799-490H600ZM474,144q47,0 93,24t88,67.5T732,336t60.5,123.5t40,137.5T847,738q0,93-47.5,155.5T654,956q-63,0-117-33.5T439.5,831T365,697.5t-47.5-161T301,364q0-108 43.5-164T474,144Z" />
      <glyph unicode="r" glyph-name="gid85" horiz-adv-x="822" d="M53,0L287,1102H446L422,891h10q43,60 92,113t110.5,85.5T775,1122q28,0 58-3.5t55-10.5L844,924q-24,6-49.5,9.5T741,937q-71,0-132.5-35.5t-111-96T413,667.5T360,505L253,0H53Z" />
      <glyph unicode="s" glyph-name="gid86" horiz-adv-x="905" d="M329-20Q227-20 150.5-1T15,49V226q58-34 139-61t167-27q76,0 128.5,20.5T530,216t28,88q0,39-17,68t-57.5,58.5T374,498q-75,42-127,85.5t-79,96T141,802q0,99 47.5,170.5t134,110.5T526,1122q99,0 184.5-22.5T863,1043L798,889q-54,28-121,49.5T528,960q-83,0-134.5-38T342,818q0-35 16-63t55-55.5T520,635q68-39 123-80.5T730,459t32-132q0-112-53-189.5T559,20T329-20Z" />
      <glyph unicode="t" glyph-name="gid87" horiz-adv-x="716" d="M380-20Q265-20 191,33.5T117,219q0,30 3.5,64.5T133,355L258,949H93l20,95l185,73l123,233H544l-54-248H773L741,949H459L333,353q-6-25-10.5-52.5T318,249q0-47 25.5-76.5T425,143q39,0 74,7.5T575,172V20Q544,5 489.5-7.5T380-20Z" />
      <glyph unicode="u" glyph-name="gid88" horiz-adv-x="1194" d="M389-20q-86,0-148.5,33t-95,96.5T113,264q0,42 6,87.5T134,446l141,656H476L330,419q-8-40-12.5-73T313,288q0-69 34.5-106.5T455,144q74,0 149.5,53T743,357t97,267l101,478h198L906,0H746l25,211h-9q-40-56-93-109T547,14.5T389-20Z" />
      <glyph unicode="v" glyph-name="gid89" horiz-adv-x="970" d="M233,0L99,1102H299l61-620q5-46 9.5-106.5t7-115.5t2.5-87h7q20,45 46,102.5T484.5,389T531,484l328,618h214L475,0H233Z" />
      <glyph unicode="w" glyph-name="gid90" horiz-adv-x="1502" d="M167,0L118,1102H311l15-578q2-102 0-187.5T319,184h7q16,44 38.5,101.5t45.5,112T451,491l284,611H950l30-590q2-73 3-162t-2-166h7q17,49 39.5,111T1077,424.5T1131,556l246,546h208L1071,0H840L811,592q-2,50-2.5,102T809,800.5T811,913h-9q-18-49-36-96t-39.5-97T678,611L394,0H167Z" />
      <glyph unicode="x" glyph-name="gid91" horiz-adv-x="1009" d="M-81,0L396,566L162,1102H368L529,708l311,394h233L613,557L865,0H656L480,413L151,0H-81Z" />
      <glyph unicode="y" glyph-name="gid92" horiz-adv-x="973" d="M-42-493q-50,0-81.5,6T-183-472v161q27-6 58.5-11.5T-56-328q85,0 144.5,53T202-125L266-10L99,1102H299l71-552q9-61 14-131t7.5-133T394,181h6q14,33 39,90.5t53.5,121T547,504l312,598h215L377-182Q322-286 261-355T126.5-458.5T-42-493Z" />
      <glyph unicode="z" glyph-name="gid93" horiz-adv-x="915" d="M-35,0L-9,130L658,949H197l32,153H915L885,952L228,153H739L708,0H-35Z" />
      <glyph unicode="{" glyph-name="gid94" horiz-adv-x="716" d="M448-324q-154,0-229.5,58T143-95q0,33 5.5,65.5T161,38l49,218q6,29 10,54.5t4,48.5q0,71-51.5,106T18,500L53,661q120,0 190.5,44T336,853l66,315q23,105 67.5,170T590,1432.5T782,1462h46l-34-160q-89,0-141-32t-74-128L509,826q-23-106-84-171T250,571v-5q79-21 116-75.5T403,358q0-26-4.5-58.5T386,235L341,23q-5-22-9-43.5T328-60q0-62 41-82.5T481-163V-324H448Z" />
      <glyph unicode="|" glyph-name="gid95" horiz-adv-x="1126" d="M517-487V1555H674V-487H517Z" />
      <glyph unicode="}" glyph-name="gid96" horiz-adv-x="716" d="M-84-324l1,161q63,0 110,13.5t77,48T147-3l71,316q23,106 84,170.5T477,565v6q-79,23-115.5,77T325,779q0,27 4.5,59T341,902l47,213q6,24 9.5,45t3.5,38q0,61-45,82.5T227,1302l30,160h19q104,0 172-25.5t101.5-76T583,1233q0-32-5-64.5T565,1101L516,882q-5-29-10.5-54T500,780q0-71 53-106t155-35L673,477q-79,0-137-18.5t-94-61T392,286L325-30q-23-110-69.5-174.5T132-296.5T-62-324H-84Z" />
      <glyph unicode="~" glyph-name="gid97" horiz-adv-x="1171" d="M589,648q-72,32-122,44t-97,12q-57,0-120.5-34T135,584V754q50,53 112,80t137,27q61,0 120-13t149-52q74-31 123.5-43.5T870,740q59,0 122,34t113,86V692q-49-52-110.5-80.5T858,583q-60,0-119,12.5T589,648Z" />
      <glyph unicode="&#xa0;" glyph-name="gid98" horiz-adv-x="532" />
      <glyph unicode="&#xa1;" glyph-name="gid99" horiz-adv-x="540" d="M-33-372L234,664H378L203-372H-33ZM347,837q-53,0-82.5,28.5T235,947q0,69 40,119.5T393,1117q55,0 82.5-31t27.5-82q0-40-16-78.5T436.5,862T347,837Z" />
      <glyph unicode="&#xa2;" glyph-name="gid100" horiz-adv-x="1128" d="M438-20l45,213Q357,225 281,324T205,589q0,111 23,213t65.5,189.5t105,156t141,112.5T713,1317l33,166H884l-36-166q61-5 117-18.5t104-34.5l-58-162q-46,21-101.5,37T789,1155q-86,0-155.5-45t-120-123T436,808.5T409,596q0-119 62-186t171-67q72,0 137,20t128,51V246q-59-30-130-48T618,177L577-20H438Z" />
      <glyph unicode="&#xa3;" glyph-name="gid101" horiz-adv-x="1128" d="M-19,0L13,167q62,14 113.5,47.5t89,91.5T271,452l41,190H114l31,149H344l66,317q28,131 90,214t151.5,121.5T853,1482q106,0 192.5-25.5T1195,1398l-77-157q-52,26-118.5,50T855,1315q-87,0-154-48.5T606,1086L544,791H894L862,642H512L472,457q-25-120-78-182.5T274,179H982L944,0H-19Z" />
      <glyph unicode="&#xa4;" glyph-name="gid102" horiz-adv-x="1131" d="M944,275L814,405q-46-32-100.5-49T600,339q-60,0-115.5,17.5T383,405L255,277L153,380L282,510q-32,45-49.5,98.5T215,723q0,59 18,113.5T282,937L151,1068l104,105l129-131q47,31 102,49.5T600,1110t113-18t101-50l130,131l105-102L918,939q30-45 48.5-100.5T985,723q0-61-18-115.5T918,508l130-130L944,275ZM600,486q67,0 122,31.5T809.5,603T842,723q0,67-32.5,122T722,932T600,964q-66,0-120-32t-86-87T362,723q0-66 32-120t86-85.5T600,486Z" />
      <glyph unicode="&#xa5;" glyph-name="gid103" horiz-adv-x="1128" d="M345,0l55,258H116l31,140H429l33,159H178l32,140H434L227,1462H424L590,761l463,701h215L737,697H966L936,557H650L617,398H904L874,258H590L533,0H345Z" />
      <glyph unicode="&#xa6;" glyph-name="gid104" horiz-adv-x="1126" d="M517,769v786H674V769H517Zm0-1256V301H674V-487H517Z" />
      <glyph unicode="&#xa7;" glyph-name="gid105" horiz-adv-x="997" d="M355-12Q251-12 174,8T46,54V218q59-32 142-59t170-27q124,0 189,43.5T612,297q0,33-19.5,60T531,411T419,470q-75,34-131,74.5t-87,95T170,768q0,76 31.5,133t84,98.5T400,1071q-49,32-82.5,82T284,1272q0,87 48.5,153.5t137,103.5T680,1566q97,0 178.5-20t147.5-53l-58-139q-64,29-132,48t-141,19q-51,0-98-14t-77-45t-30-83t45-87.5T662,1111q74-33 130.5-72.5T880,946t31-125T881.5,690T802,585.5T691,507q44-32 75.5-78T798,316q0-100-52-173.5T595.5,28.5T355-12ZM579,573q60,33 108,90t48,132q0,43-22.5,76.5T641,935T515,997q-42-14-82-42.5t-65.5-69T342,792q0-46 22.5-81T439,644t140-71Z" />
      <glyph unicode="&#xa8;" glyph-name="gid106" horiz-adv-x="1139" d="M913,1290q-40,0-66,22t-26,66q0,53 29.5,89t86.5,36q42,0 65.5-22t23.5-63q0-59-32.5-93.5T913,1290Zm-370,0q-41,0-67,22t-26,66q0,53 29.5,89t84.5,36q29,0 49-10t30.5-29t10.5-46q0-59-31.5-93.5T543,1290Z" />
      <glyph unicode="&#xa9;" glyph-name="gid107" horiz-adv-x="1704" d="M852-20Q689-20 551.5,36t-239,157t-157,238.5T100,731q0,161 56,298.5t158,239t239.5,158T852,1483q157,0 293.5-56T1385,1269.5T1546,1031t58-300q0-162-56-299.5T1390.5,193T1152,36T852-20Zm32,291q-204,0-306.5,125.5T475,731q0,134 48.5,237.5t142,162.5T892,1190q65,0 130.5-16t122.5-45l-57-122q-50,26-99,39.5T894,1060q-126,0-195-88T630,731q0-159 62.5-244.5T891,401q49,0 107,13t110,34V321q-49-22-101-36T884,271ZM852,89q131,0 246,47.5t202,134T1436.5,474T1486,731q0,133-47.5,249T1306,1185t-200.5,139T852,1374t-254-47.5t-201.5-134T264,988.5T217,731q0-134 46.5-250.5T395.5,276T597,138.5T852,89Z" />
      <glyph unicode="&#xaa;" glyph-name="gid108" horiz-adv-x="711" d="M356,777q-52,0-95.5,26t-69,79.5T166,1016q0,82 21,164t63,149.5t104,108T499,1478q65,0 103-30t57-75h8l37,92H807L663,790H558l14,112h-7q-39-54-88.5-89.5T356,777Zm44,115q43,0 77.5,23.5T538,977t44,84t26.5,91.5T617,1237q0,57-26,92t-82,35q-47,0-85-29.5T358.5,1256t-42-109.5T302,1024q0-66 25.5-99T400,892Z" />
      <glyph unicode="&#xab;" glyph-name="gid109" horiz-adv-x="1003" d="M300,111L79,554l1,25L473,982L582,882L287,549L448,174L300,111Zm410,0L497,527l1,26L876,974l115-92L704,525L857,174L710,111Z" />
      <glyph unicode="&#xac;" glyph-name="gid110" horiz-adv-x="1171" d="M1101,800V259H946V644H135V800h966Z" />
      <glyph unicode="&#xad;" glyph-name="gid111" horiz-adv-x="643" d="M52,460L91,638H584L546,460H52Z" />
      <glyph unicode="&#xae;" glyph-name="gid112" horiz-adv-x="1704" d="M572,284v896H836q164,0 242-67t78-199q0-97-49.5-153.5T993,679l238-395H1061L857,637H722V284H572ZM722,760H831q82,0 127.5,40.5T1004,910q0,76-42,109.5T829,1053H722V760ZM852-20Q689-20 551.5,36t-239,157t-157,238.5T100,731q0,161 56,298.5t158,239t239.5,158T852,1483q157,0 293.5-56T1385,1269.5T1546,1031t58-300q0-162-56-299.5T1390.5,193T1152,36T852-20Zm0,109q131,0 246,47.5t202,134T1436.5,474T1486,731q0,133-47.5,249T1306,1185t-200.5,139T852,1374t-254-47.5t-201.5-134T264,988.5T217,731q0-134 46.5-250.5T395.5,276T597,138.5T852,89Z" />
      <glyph unicode="&#xaf;" glyph-name="gid113" horiz-adv-x="874" d="M200,1556l34,147h866l-36-147H200Z" />
      <glyph unicode="&#xb0;" glyph-name="gid114" horiz-adv-x="877" d="M438,843q-98,0-172.5,40t-116,112.5T108,1162q0,95 41,167t115,113t174,41q98,0 172.5-40.5t116.5-113T769,1162q0-94-42-166.5T610.5,883T438,843Zm2,133q89,0 137.5,51T626,1162q0,87-49.5,138.5T440,1352q-92,0-140-51.5T252,1162q0-84 47.5-135T440,976Z" />
      <glyph unicode="&#xb1;" glyph-name="gid115" horiz-adv-x="1171" d="M135,0V156h971V0H135ZM699,819h405V663H699V248H541V663H135V819H541v417H699V819Z" />
      <glyph unicode="&#xb2;" glyph-name="gid116" horiz-adv-x="730" d="M134,852l27,120l268,226q79,67 131,118t78,96.5t26,95.5t-30,79t-83,29q-50,0-98-20t-99-61l-69,107q66,52 138,78.5T583,1747q125,0 183-64.5T824,1536q0-73-27-132t-85.5-119T559,1149L364,990H750L722,852H134Z" />
      <glyph unicode="&#xb3;" glyph-name="gid117" horiz-adv-x="730" d="M401,838q-70,0-133,14.5T158,892v142q55-31 117-50.5T400,964q98,0 150.5,41.5T603,1123q0,59-40,91t-121,32H339l26,119h93q62,0 109,17t73,49.5t26,78.5q0,54-32.5,83T542,1620q-54-1-101.5-18.5T347,1553l-60,106q55,39 125.5,63.5T570,1747q86,0 142-27t83-74t27-105q0-97-57.5-152T612,1309v-7q73-18 110.5-67T760,1119q0-86-43-149T593.5,872.5T401,838Z" />
      <glyph unicode="&#xb4;" glyph-name="gid118" horiz-adv-x="562" d="M235,1241v25q36,40 78,92.5T396,1467t71,102H692v-19q-22-28-60.5-68.5T546,1396t-94-85.5T365,1241H235Z" />
      <glyph unicode="&#xb5;" glyph-name="gid235" horiz-adv-x="1206" d="M-51-490L286,1102H486L343,422q-9-43-13.5-76T325,290q0-68 35.5-107T468,144t147,52T752.5,354T850,621l104,481h198L917,0H760l23,203h-9q-39-57-89-108T571.5,12T428-20q-58,0-99.5,24T262,74h-8q-4-31-11.5-77T227-95.5T213-175L148-490H-51Z" />
      <glyph unicode="&#xb6;" glyph-name="gid119" horiz-adv-x="1341" d="M747-260V573q-31-9-66.5-13.5T601,555q-94,0-170,26.5T300.5,666T217,819t-29,231q0,144 32,241t90.5,155t140,84T632,1556h566V-260H1074V1396H871V-260H747Z" />
      <glyph unicode="&#xb7;" glyph-name="gid120" horiz-adv-x="532" d="M272,575q-56,0-84.5,31T159,687q0,65 38.5,117T321,856q48,0 78-29t30-84q0-65-40-116.5T272,575Z" />
      <glyph unicode="&#xb8;" glyph-name="gid121" horiz-adv-x="418" d="M-74-492q-32,0-61,4.5t-47,9.5v117q20-5 44.5-8.5T-92-373q49,0 83.5,12t52,35.5T61-267q0,43-36.5,65T-80-173L18,0H144L90-107q52-15 93.5-51T225-269q0-63-34-113.5t-100.5-80T-74-492Z" />
      <glyph unicode="&#xb9;" glyph-name="gid122" horiz-adv-x="730" d="M382,850l104,489q12,56 28.5,118T543,1561q-19-16-43.5-36T451,1488l-112-71l-66,109l319,200H732L546,850H382Z" />
      <glyph unicode="&#xba;" glyph-name="gid123" horiz-adv-x="711" d="M429,777q-113,0-183,69.5T176,1049q0,83 22,160t66.5,138t110,96.5T526,1479q131,0 189.5-76T774,1212q0-77-19-153.5t-60.5-140T587.5,816T429,777Zm11,117q49,0 85.5,27t62,72.5t38,102T638,1210q0,78-32.5,114.5T517,1361q-49,0-87.5-26.5t-64-71t-38.5-100T314,1048q0-77 33.5-115.5T440,894Z" />
      <glyph unicode="&#xbb;" glyph-name="gid124" horiz-adv-x="1003" d="M530,111L421,212L717,543L555,919l149,63L925,537l-1-26L530,111Zm-403,8L12,212L299,565L146,919l148,63L506,564V537L127,119Z" />
      <glyph unicode="&#xbc;" glyph-name="gid125" horiz-adv-x="1541" d="M186,0L1272,1462h173L360,0H186ZM325,586l104,489q12,56 28.5,118T486,1297q-19-16-43.5-36T394,1224l-112-71l-66,109l319,200H675L489,586H325ZM1122,3l39,190H792l24,119l483,574h167L1345,319h124l-25-126H1317L1277,3H1122ZM971,319h218l42,188q12,50 22,95.5t24,94.5q-14-25-48.5-69.5T1169,555L971,319Z" />
      <glyph unicode="&#xbd;" glyph-name="gid126" horiz-adv-x="1677" d="M186,0L1272,1462h173L360,0H186ZM325,586l104,489q12,56 28.5,118T486,1297q-19-16-43.5-36T394,1224l-112-71l-66,109l319,200H675L489,586H325ZM903,2l27,120l268,226q79,67 131,118t78,96.5t26,95.5t-30,79t-83,29q-50,0-98-20t-99-61l-69,107q66,52 138,78.5T1352,897q125,0 183-64.5T1593,686q0-73-27-132t-85.5-119T1328,299L1133,140h386L1491,2H903Z" />
      <glyph unicode="&#xbe;" glyph-name="gid127" horiz-adv-x="1642" d="M346,573q-70,0-133,14.5T103,627V769q55-31 117-50.5T345,699q98,0 150.5,41.5T548,858q0,59-40,91T387,981H284l26,119h93q62,0 109,17t73,49.5t26,78.5q0,54-32.5,83T487,1355q-54-1-101.5-18.5T292,1288l-60,106q55,39 125.5,63.5T515,1482q86,0 142-27t83-74t27-105q0-97-57.5-152T557,1044v-7q73-18 110.5-67T705,854q0-86-43-149T538.5,607.5T346,573ZM294,0L1380,1462h173L468,0H294Zm928,1l39,190H892l24,119l483,574h167L1445,317h124l-25-126H1417L1377,1H1222ZM1071,317h218l42,188q12,50 22,95.5t24,94.5q-14-25-48.5-69.5T1269,553L1071,317Z" />
      <glyph unicode="&#xbf;" glyph-name="gid128" horiz-adv-x="891" d="M640,663q-15-92-44-159T518,381T392,267q-66-49-119.5-94T187,76T155-47q0-83 47.5-130T340-224q75,0 149,25.5T636-137l68-152q-85-45-186-75T315-394q-164,0-261.5,83T-44-70q0,96 35.5,170t102,139T252,370q75,53 117.5,93t66,85T474,663H640Zm-12,454q56,0 84.5-31t28.5-81q0-65-38.5-117T580,836q-49,0-79,29t-30,84q0,65 40,116.5T628,1117Z" />
      <glyph unicode="&#xc0;" glyph-name="gid129" horiz-adv-x="1183" d="M-117,0L675,1462H901L1077,0H877L828,437H331L102,0H-117ZM423,615H811L776,965q-7,70-14,152t-8,150h-5q-29-71-65.5-147T605,964L423,615Zm396,987q-39,40-84,95t-83.5,112T592,1909v21H803q15-49 37-101.5t48.5-104T942,1627v-25H819Z" />
      <glyph unicode="&#xc1;" glyph-name="gid130" horiz-adv-x="1183" d="M-117,0L675,1462H901L1077,0H877L828,437H331L102,0H-117ZM423,615H811L776,965q-7,70-14,152t-8,150h-5q-29-71-65.5-147T605,964L423,615Zm276,987v25q36,40 78,92.5T860,1828t71,102h225v-19q-22-28-60.5-68.5T1010,1757t-94-85.5T829,1602H699Z" />
      <glyph unicode="&#xc2;" glyph-name="gid131" horiz-adv-x="1183" d="M-117,0L675,1462H901L1077,0H877L828,437H331L102,0H-117ZM423,615H811L776,965q-7,70-14,152t-8,150h-5q-29-71-65.5-147T605,964L423,615Zm42,987l1,25q37,34 93,88t110.5,111.5T754,1929H959q20-51 50-105.5t63-105t58-91.5v-25H1003q-25,23-52.5,53.5t-55,65T842,1790q-61-54-122-102t-117-86H465Z" />
      <glyph unicode="&#xc3;" glyph-name="gid132" horiz-adv-x="1183" d="M-117,0L675,1462H901L1077,0H877L828,437H331L102,0H-117ZM423,615H811L776,965q-7,70-14,152t-8,150h-5q-29-71-65.5-147T605,964L423,615Zm35,989q19,89 53,149t82,89.5T703,1872q46,0 85-17t73.5-39.5T926,1776t59-17q42,0 67.5,26.5T1102,1874h120q-22-89-57-149t-82.5-90T973,1605q-43,0-80,17t-71,40t-66,40t-66,17q-40,0-65.5-28.5T578,1604H458Z" />
      <glyph unicode="&#xc4;" glyph-name="gid133" horiz-adv-x="1183" d="M-117,0L675,1462H901L1077,0H877L828,437H331L102,0H-117ZM423,615H811L776,965q-7,70-14,152t-8,150h-5q-29-71-65.5-147T605,964L423,615Zm590,1036q-40,0-66,22t-26,66q0,53 29.5,89t86.5,36q42,0 65.5-22t23.5-63q0-59-32.5-93.5T1013,1651Zm-370,0q-41,0-67,22t-26,66q0,53 29.5,89t84.5,36q29,0 49-10t30.5-29t10.5-46q0-59-31.5-93.5T643,1651Z" />
      <glyph unicode="&#xc5;" glyph-name="gid134" horiz-adv-x="1183" d="M-117,0L675,1462H901L1077,0H877L828,437H331L102,0H-117ZM423,615H811L776,965q-7,70-14,152t-8,150h-5q-29-71-65.5-147T605,964L423,615Zm405,970q-100,0-163,58.5T602,1805t65.5,161T828,2024q99,0 164-58t65-159q0-105-65.5-163.5T828,1585Zm0,108q50,0 81.5,30.5T941,1805q0,52-32,82.5T828,1918q-47,0-79.5-30.5T716,1805q0-51 29.5-81.5T828,1693Z" />
      <glyph unicode="&#xc6;" glyph-name="gid135" horiz-adv-x="1718" d="M-118,0L811,1462h984l-36-176H1199l-94-435h524l-35-174H1071L965,177h558L1486,0H723l93,437H381L108,0H-118ZM494,614H852l143,672H912L494,614Z" />
      <glyph unicode="&#xc7;" glyph-name="gid136" horiz-adv-x="1216" d="M666-20Q499-20 383,48.5t-178,195T143,543q0,135 31.5,269.5t94,255t157,214t221.5,148T932,1484q113,0 202-21.5t170-65.5l-79-169q-62,34-132.5,56.5T932,1307q-117,0-209.5-43.5T561,1144.5T446.5,972T378,767T355,550q0-185 90.5-289T703,157q86,0 168.5,18T1033,221V45Q959,18 871.5-1T666-20ZM494-492q-32,0-61,4.5T386-478v117q20-5 44.5-8.5T476-373q49,0 83.5,12t52,35.5T629-267q0,43-36.5,65T488-173L586,0H712L658-107q52-15 93.5-51T793-269q0-63-34-113.5t-100.5-80T494-492Z" />
      <glyph unicode="&#xc8;" glyph-name="gid137" horiz-adv-x="1071" d="M78,0L387,1462h760l-37-176H553L460,851H981L946,677H424L317,177H875L837,0H78ZM791,1602q-39,40-84,95t-83.5,112T564,1909v21H775q15-49 37-101.5t48.5-104T914,1627v-25H791Z" />
      <glyph unicode="&#xc9;" glyph-name="gid138" horiz-adv-x="1071" d="M78,0L387,1462h760l-37-176H553L460,851H981L946,677H424L317,177H875L837,0H78ZM668,1602v25q36,40 78,92.5T829,1828t71,102h225v-19q-22-28-60.5-68.5T979,1757t-94-85.5T798,1602H668Z" />
      <glyph unicode="&#xca;" glyph-name="gid139" horiz-adv-x="1071" d="M78,0L387,1462h760l-37-176H553L460,851H981L946,677H424L317,177H875L837,0H78ZM438,1602l1,25q37,34 93,88t110.5,111.5T727,1929H932q20-51 50-105.5t63-105t58-91.5v-25H976q-25,23-52.5,53.5t-55,65T815,1790q-61-54-122-102t-117-86H438Z" />
      <glyph unicode="&#xcb;" glyph-name="gid140" horiz-adv-x="1071" d="M78,0L387,1462h760l-37-176H553L460,851H981L946,677H424L317,177H875L837,0H78ZM987,1651q-40,0-66,22t-26,66q0,53 29.5,89t86.5,36q42,0 65.5-22t23.5-63q0-59-32.5-93.5T987,1651Zm-370,0q-41,0-67,22t-26,66q0,53 29.5,89t84.5,36q29,0 49-10t30.5-29t10.5-46q0-59-31.5-93.5T617,1651Z" />
      <glyph unicode="&#xcc;" glyph-name="gid141" horiz-adv-x="580" d="M77,0L388,1462H589L278,0H77ZM509,1602q-39,40-84,95t-83.5,112T282,1909v21H493q15-49 37-101.5t48.5-104T632,1627v-25H509Z" />
      <glyph unicode="&#xcd;" glyph-name="gid142" horiz-adv-x="580" d="M77,0L388,1462H589L278,0H77ZM400,1602v25q36,40 78,92.5T561,1828t71,102H857v-19q-22-28-60.5-68.5T711,1757t-94-85.5T530,1602H400Z" />
      <glyph unicode="&#xce;" glyph-name="gid143" horiz-adv-x="580" d="M77,0L388,1462H589L278,0H77ZM181,1602l1,25q37,34 93,88t110.5,111.5T470,1929H675q20-51 50-105.5t63-105t58-91.5v-25H719q-25,23-52.5,53.5t-55,65T558,1790q-61-54-122-102t-117-86H181Z" />
      <glyph unicode="&#xcf;" glyph-name="gid144" horiz-adv-x="580" d="M77,0L388,1462H589L278,0H77ZM728,1651q-40,0-66,22t-26,66q0,53 29.5,89t86.5,36q42,0 65.5-22t23.5-63q0-59-32.5-93.5T728,1651Zm-370,0q-41,0-67,22t-26,66q0,53 29.5,89t84.5,36q29,0 49-10t30.5-29t10.5-46q0-59-31.5-93.5T358,1651Z" />
      <glyph unicode="&#xd0;" glyph-name="gid145" horiz-adv-x="1373" d="M78,0L210,637H62l38,174H248l139,651H742q266,0 416-143t150-433q0-154-35.5-289t-106-244.5T993.5,164T756,42.5T455,0H78ZM317,174H466q125,0 225,35.5t175.5,101t127,154t77,195T1096,883q0,213-102,310t-276,97H554L452,811H760L721,637H414L317,174Z" />
      <glyph unicode="&#xd1;" glyph-name="gid146" horiz-adv-x="1467" d="M76,0L385,1462H608L1040,275h6q7,48 18,115t25,140t27,137l171,795h188L1166,0H947L509,1197h-7q-4-29-11-75.5t-16.5-104T454,900.5T431,787L265,0H76ZM612,1604q19,89 53,149t82,89.5T857,1872q46,0 85-17t73.5-39.5T1080,1776t59-17q42,0 67.5,26.5T1256,1874h120q-22-89-57-149t-82.5-90T1127,1605q-43,0-80,17t-71,40t-66,40t-66,17q-40,0-65.5-28.5T732,1604H612Z" />
      <glyph unicode="&#xd2;" glyph-name="gid147" horiz-adv-x="1481" d="M683-20Q507-20 386.5,50t-182,197T143,546q0,122 22,238.5T230,1006t106.5,192.5T483,1350t184.5,99.5T890,1485q251,0 388.5-151.5T1416,916q0-120-20-236t-60-220.5t-101-192t-142-152T910,15.5T683-20Zm10,177q80,0 148.5,28t125,79T1067,384.5T1141.5,539t46,180.5T1203,917q0,184-86.5,287.5T874,1308q-80,0-150-27.5T596.5,1202T494,1081.5T418,927T371,746.5T355,549q0-123 40-211T510.5,203.5T693,157ZM966,1602q-39,40-84,95t-83.5,112T739,1909v21H950q15-49 37-101.5t48.5-104T1089,1627v-25H966Z" />
      <glyph unicode="&#xd3;" glyph-name="gid148" horiz-adv-x="1481" d="M683-20Q507-20 386.5,50t-182,197T143,546q0,122 22,238.5T230,1006t106.5,192.5T483,1350t184.5,99.5T890,1485q251,0 388.5-151.5T1416,916q0-120-20-236t-60-220.5t-101-192t-142-152T910,15.5T683-20Zm10,177q80,0 148.5,28t125,79T1067,384.5T1141.5,539t46,180.5T1203,917q0,184-86.5,287.5T874,1308q-80,0-150-27.5T596.5,1202T494,1081.5T418,927T371,746.5T355,549q0-123 40-211T510.5,203.5T693,157ZM843,1602v25q36,40 78,92.5t83,108.5t71,102h225v-19q-22-28-60.5-68.5T1154,1757t-94-85.5T973,1602H843Z" />
      <glyph unicode="&#xd4;" glyph-name="gid149" horiz-adv-x="1481" d="M683-20Q507-20 386.5,50t-182,197T143,546q0,122 22,238.5T230,1006t106.5,192.5T483,1350t184.5,99.5T890,1485q251,0 388.5-151.5T1416,916q0-120-20-236t-60-220.5t-101-192t-142-152T910,15.5T683-20Zm10,177q80,0 148.5,28t125,79T1067,384.5T1141.5,539t46,180.5T1203,917q0,184-86.5,287.5T874,1308q-80,0-150-27.5T596.5,1202T494,1081.5T418,927T371,746.5T355,549q0-123 40-211T510.5,203.5T693,157ZM610,1602l1,25q37,34 93,88t110.5,111.5T899,1929h205q20-51 50-105.5t63-105t58-91.5v-25H1148q-25,23-52.5,53.5t-55,65T987,1790q-61-54-122-102t-117-86H610Z" />
      <glyph unicode="&#xd5;" glyph-name="gid150" horiz-adv-x="1481" d="M683-20Q507-20 386.5,50t-182,197T143,546q0,122 22,238.5T230,1006t106.5,192.5T483,1350t184.5,99.5T890,1485q251,0 388.5-151.5T1416,916q0-120-20-236t-60-220.5t-101-192t-142-152T910,15.5T683-20Zm10,177q80,0 148.5,28t125,79T1067,384.5T1141.5,539t46,180.5T1203,917q0,184-86.5,287.5T874,1308q-80,0-150-27.5T596.5,1202T494,1081.5T418,927T371,746.5T355,549q0-123 40-211T510.5,203.5T693,157ZM604,1604q19,89 53,149t82,89.5T849,1872q46,0 85-17t73.5-39.5T1072,1776t59-17q42,0 67.5,26.5T1248,1874h120q-22-89-57-149t-82.5-90T1119,1605q-43,0-80,17t-71,40t-66,40t-66,17q-40,0-65.5-28.5T724,1604H604Z" />
      <glyph unicode="&#xd6;" glyph-name="gid151" horiz-adv-x="1481" d="M683-20Q507-20 386.5,50t-182,197T143,546q0,122 22,238.5T230,1006t106.5,192.5T483,1350t184.5,99.5T890,1485q251,0 388.5-151.5T1416,916q0-120-20-236t-60-220.5t-101-192t-142-152T910,15.5T683-20Zm10,177q80,0 148.5,28t125,79T1067,384.5T1141.5,539t46,180.5T1203,917q0,184-86.5,287.5T874,1308q-80,0-150-27.5T596.5,1202T494,1081.5T418,927T371,746.5T355,549q0-123 40-211T510.5,203.5T693,157Zm466,1494q-40,0-66,22t-26,66q0,53 29.5,89t86.5,36q42,0 65.5-22t23.5-63q0-59-32.5-93.5T1159,1651Zm-370,0q-41,0-67,22t-26,66q0,53 29.5,89t84.5,36q29,0 49-10t30.5-29t10.5-46q0-59-31.5-93.5T789,1651Z" />
      <glyph unicode="&#xd7;" glyph-name="gid152" horiz-adv-x="1171" d="M963,1175l109-110L730,723l340-341L961,271L618,610L281,272L169,382L508,723L168,1062l112,113L619,833l344,342Z" />
      <glyph unicode="&#xd8;" glyph-name="gid153" horiz-adv-x="1481" d="M226-82L108,13L244,181q-51,71-76,164T143,546q0,122 22,238.5T230,1006t106.5,192.5T483,1350t184.5,99.5T890,1485q98,0 179-26t147-78l127,157l120-95l-143-173q47-65 71.5-156.5T1416,916q0-120-20-236t-60-220.5t-101-192t-142-152T910,15.5T683-20Q583-20 501.5,3.5T355,75L226-82ZM694,155q80,0 149.5,28t127,79.5T1072,384t74,155t46,180.5T1208,917q0,50-7.5,95.5T1181,1092L475,225q39-32 94.5-51T694,155ZM386,354l708,877q-40,38-95,59t-125,21q-81,0-151.5-28T594,1204T491,1082.5T415,927T368,746.5T352,549q0-54 8.5-104.5T386,354Z" />
      <glyph unicode="&#xd9;" glyph-name="gid154" horiz-adv-x="1396" d="M612-20Q461-20 360.5,28T209,166.5T158,386q0,34 5.5,81T179,565l192,897H574L382,559q-10-43-15.5-88.5T361,394q0-112 67-174.5T627,157q114,0 190.5,41t123,122T1013,522l201,940h202L1213,504q-34-161-106.5-278.5T913,44T612-20ZM924,1602q-39,40-84,95t-83.5,112T697,1909v21H908q15-49 37-101.5t48.5-104T1047,1627v-25H924Z" />
      <glyph unicode="&#xda;" glyph-name="gid155" horiz-adv-x="1396" d="M612-20Q461-20 360.5,28T209,166.5T158,386q0,34 5.5,81T179,565l192,897H574L382,559q-10-43-15.5-88.5T361,394q0-112 67-174.5T627,157q114,0 190.5,41t123,122T1013,522l201,940h202L1213,504q-34-161-106.5-278.5T913,44T612-20ZM800,1602v25q36,40 78,92.5T961,1828t71,102h225v-19q-22-28-60.5-68.5T1111,1757t-94-85.5T930,1602H800Z" />
      <glyph unicode="&#xdb;" glyph-name="gid156" horiz-adv-x="1396" d="M612-20Q461-20 360.5,28T209,166.5T158,386q0,34 5.5,81T179,565l192,897H574L382,559q-10-43-15.5-88.5T361,394q0-112 67-174.5T627,157q114,0 190.5,41t123,122T1013,522l201,940h202L1213,504q-34-161-106.5-278.5T913,44T612-20ZM568,1602l1,25q37,34 93,88t110.5,111.5T857,1929h205q20-51 50-105.5t63-105t58-91.5v-25H1106q-25,23-52.5,53.5t-55,65T945,1790q-61-54-122-102t-117-86H568Z" />
      <glyph unicode="&#xdc;" glyph-name="gid157" horiz-adv-x="1396" d="M612-20Q461-20 360.5,28T209,166.5T158,386q0,34 5.5,81T179,565l192,897H574L382,559q-10-43-15.5-88.5T361,394q0-112 67-174.5T627,157q114,0 190.5,41t123,122T1013,522l201,940h202L1213,504q-34-161-106.5-278.5T913,44T612-20Zm506,1671q-40,0-66,22t-26,66q0,53 29.5,89t86.5,36q42,0 65.5-22t23.5-63q0-59-32.5-93.5T1118,1651Zm-370,0q-41,0-67,22t-26,66q0,53 29.5,89t84.5,36q29,0 49-10t30.5-29t10.5-46q0-59-31.5-93.5T748,1651Z" />
      <glyph unicode="&#xdd;" glyph-name="gid158" horiz-adv-x="1067" d="M310,0L429,552L188,1462H393L563,755l464,707h228L628,549L514,0H310ZM633,1602v25q36,40 78,92.5T794,1828t71,102h225v-19q-22-28-60.5-68.5T944,1757t-94-85.5T763,1602H633Z" />
      <glyph unicode="&#xde;" glyph-name="gid159" horiz-adv-x="1180" d="M78,0L387,1462H589l-52-249H678q161,0 260-48t144.5-135.5T1128,825q0-127-43.5-223t-127-159.5T755,346.5T487,314H347L280,0H78ZM383,486H515q122,0 213.5,35.5T871,630.5T922,819q0,116-66,169t-198,53H500L383,486Z" />
      <glyph unicode="&#xdf;" glyph-name="gid160" horiz-adv-x="1226" d="M-128-492q-36,0-71.5,6.5T-260-470v168q27-11 54.5-17t57.5-6q65,0 108.5,46T26-129L299,1159q29,137 91,228t161,135.5T791,1567q171,0 271.5-75.5T1163,1283q0-77-28-133.5t-75-100T957,967q-61-43-109-83.5T800,790q0-28 20-53t48.5-47.5T923,645q77-64 124.5-130T1095,352q0-123-54.5-206T891.5,21.5T676-20Q585-20 516-2T400,47V223q47-34 114.5-59.5T652,138q120,0 180,55t60,138q0,42-13.5,73.5t-43,61.5T758,535q-81,63-120.5,118.5T598,778q0,70 28,118.5t73,86t96,71.5q45,28 83,58.5t60.5,67T961,1264q0,66-50,103.5T773,1405q-82,0-137.5-30.5T547,1287t-50-137L227-133q-23-110-66-191T48-448.5T-128-492Z" />
      <glyph unicode="&#xe0;" glyph-name="gid161" horiz-adv-x="1173" d="M399-20q-87,0-155.5,42.5T136,150T97,363q0,118 25,229t71.5,207t112,168.5t148,113.5T631,1122q74,0 128-26t91-69.5T908,932h10l62,170h153L900,0H744l26,195h-8q-44-57-99-106T542,10T399-20Zm70,164q73,0 143,54.5T736.5,345T819,550q14,54 19,101t5,91q0,95-50,154.5T656,956q-61,0-115-32.5T443,834T367.5,702.5T318.5,541T301,364q0-108 44-164t124-56ZM740,1241q-39,40-84,95t-83.5,112T513,1548v21H724q15-49 37-101.5t48.5-104T863,1266v-25H740Z" />
      <glyph unicode="&#xe1;" glyph-name="gid162" horiz-adv-x="1173" d="M399-20q-87,0-155.5,42.5T136,150T97,363q0,118 25,229t71.5,207t112,168.5t148,113.5T631,1122q74,0 128-26t91-69.5T908,932h10l62,170h153L900,0H744l26,195h-8q-44-57-99-106T542,10T399-20Zm70,164q73,0 143,54.5T736.5,345T819,550q14,54 19,101t5,91q0,95-50,154.5T656,956q-61,0-115-32.5T443,834T367.5,702.5T318.5,541T301,364q0-108 44-164t124-56ZM614,1241v25q36,40 78,92.5T775,1467t71,102h225v-19q-22-28-60.5-68.5T925,1396t-94-85.5T744,1241H614Z" />
      <glyph unicode="&#xe2;" glyph-name="gid163" horiz-adv-x="1173" d="M399-20q-87,0-155.5,42.5T136,150T97,363q0,118 25,229t71.5,207t112,168.5t148,113.5T631,1122q74,0 128-26t91-69.5T908,932h10l62,170h153L900,0H744l26,195h-8q-44-57-99-106T542,10T399-20Zm70,164q73,0 143,54.5T736.5,345T819,550q14,54 19,101t5,91q0,95-50,154.5T656,956q-61,0-115-32.5T443,834T367.5,702.5T318.5,541T301,364q0-108 44-164t124-56ZM384,1241l1,25q37,34 93,88t110.5,111.5T673,1568H878q20-51 50-105.5t63-105t58-91.5v-25H922q-25,23-52.5,53.5t-55,65T761,1429q-61-54-122-102t-117-86H384Z" />
      <glyph unicode="&#xe3;" glyph-name="gid164" horiz-adv-x="1173" d="M399-20q-87,0-155.5,42.5T136,150T97,363q0,118 25,229t71.5,207t112,168.5t148,113.5T631,1122q74,0 128-26t91-69.5T908,932h10l62,170h153L900,0H744l26,195h-8q-44-57-99-106T542,10T399-20Zm70,164q73,0 143,54.5T736.5,345T819,550q14,54 19,101t5,91q0,95-50,154.5T656,956q-61,0-115-32.5T443,834T367.5,702.5T318.5,541T301,364q0-108 44-164t124-56ZM374,1243q19,89 53,149t82,89.5T619,1511q46,0 85-17t73.5-39.5T842,1415t59-17q42,0 67.5,26.5T1018,1513h120q-22-89-57-149t-82.5-90T889,1244q-43,0-80,17t-71,40t-66,40t-66,17q-40,0-65.5-28.5T494,1243H374Z" />
      <glyph unicode="&#xe4;" glyph-name="gid165" horiz-adv-x="1173" d="M399-20q-87,0-155.5,42.5T136,150T97,363q0,118 25,229t71.5,207t112,168.5t148,113.5T631,1122q74,0 128-26t91-69.5T908,932h10l62,170h153L900,0H744l26,195h-8q-44-57-99-106T542,10T399-20Zm70,164q73,0 143,54.5T736.5,345T819,550q14,54 19,101t5,91q0,95-50,154.5T656,956q-61,0-115-32.5T443,834T367.5,702.5T318.5,541T301,364q0-108 44-164t124-56ZM932,1290q-40,0-66,22t-26,66q0,53 29.5,89t86.5,36q42,0 65.5-22t23.5-63q0-59-32.5-93.5T932,1290Zm-370,0q-41,0-67,22t-26,66q0,53 29.5,89t84.5,36q29,0 49-10t30.5-29t10.5-46q0-59-31.5-93.5T562,1290Z" />
      <glyph unicode="&#xe5;" glyph-name="gid166" horiz-adv-x="1173" d="M399-20q-87,0-155.5,42.5T136,150T97,363q0,118 25,229t71.5,207t112,168.5t148,113.5T631,1122q74,0 128-26t91-69.5T908,932h10l62,170h153L900,0H744l26,195h-8q-44-57-99-106T542,10T399-20Zm70,164q73,0 143,54.5T736.5,345T819,550q14,54 19,101t5,91q0,95-50,154.5T656,956q-61,0-115-32.5T443,834T367.5,702.5T318.5,541T301,364q0-108 44-164t124-56ZM748,1241q-100,0-163,58.5T522,1461t65.5,161T748,1680q99,0 164-58t65-159q0-105-65.5-163.5T748,1241Zm0,108q50,0 81.5,30.5T861,1461q0,52-32,82.5T748,1574q-47,0-79.5-30.5T636,1461q0-51 29.5-81.5T748,1349Z" />
      <glyph unicode="&#xe6;" glyph-name="gid167" horiz-adv-x="1710" d="M374-20q-83,0-145,44T132,153T97,361q0,121 24.5,233.5t71.5,208T304.5,970T448,1082t170,40q69,0 117.5-26t82-69T873,932h10l64,170h128l-29-138q54,71 137,114.5t191,43.5q122,0 203.5-68.5T1659,856q0-84-38.5-154.5t-118-122t-200-80T1016,471H970q-1-16-2-34.5T967,401q0-118 59.5-189.5T1216,140q77,0 151.5,24.5T1515,223V57q-77-36-159.5-56.5T1182-20q-110,0-190.5,38.5T869,138L841,0H710l24,195h-8Q677,131 624.5,83T511.5,7.5T374-20Zm71,164q53,0 105,30.5T647,259t80,126.5T784,542q15,56 20.5,104.5T810,739q0,98-42,157.5T647,956q-59,0-111.5-32.5t-95.5-89T365.5,703t-48-161.5T301,365q0-111 39-166t105-55ZM997,624h32q125,0 223.5,23t155,71.5T1464,842q0,62-36.5,92T1335,964q-72,0-139-40.5t-118.5-117T997,624Z" />
      <glyph unicode="&#xe7;" glyph-name="gid168" horiz-adv-x="943" d="M506-20Q386-20 293.5,25.5t-144,136T98,390q0,118 25,227t74,200.5t119.5,160t161,106.5T676,1122q78,0 151-15t133-42L902,903q-45,20-101,36.5T680,956q-86,0-156-45T404.5,788T328,609.5T301,398q0-79 28-136t80-87.5T533,144q74,0 138.5,21T800,216V48Q741,18 668-1T506-20ZM302-492q-32,0-61,4.5T194-478v117q20-5 44.5-8.5T284-373q49,0 83.5,12t52,35.5T437-267q0,43-36.5,65T296-173L394,0H520L466-107q52-15 93.5-51T601-269q0-63-34-113.5t-100.5-80T302-492Z" />
      <glyph unicode="&#xe8;" glyph-name="gid169" horiz-adv-x="1050" d="M506-20Q381-20 289.5,29T148,171.5T98,398q0,135 39,264T250,895t179,165.5T667,1122q160,0 242-72t82-194q0-84-38.5-154.5T834,579.5t-201-80T346,471H305q-2-16-3-35t-1-36q0-121 61-190.5T543,140q81,0 152,22t153,61V59Q770,23 691,1.5T506-20ZM331,624h30q125,0 223,23t155.5,72T797,844q0,54-35.5,87T655,964q-66,0-130-40.5t-115.5-117T331,624Zm361,617q-39,40-84,95t-83.5,112T465,1548v21H676q15-49 37-101.5t48.5-104T815,1266v-25H692Z" />
      <glyph unicode="&#xe9;" glyph-name="gid170" horiz-adv-x="1050" d="M506-20Q381-20 289.5,29T148,171.5T98,398q0,135 39,264T250,895t179,165.5T667,1122q160,0 242-72t82-194q0-84-38.5-154.5T834,579.5t-201-80T346,471H305q-2-16-3-35t-1-36q0-121 61-190.5T543,140q81,0 152,22t153,61V59Q770,23 691,1.5T506-20ZM331,624h30q125,0 223,23t155.5,72T797,844q0,54-35.5,87T655,964q-66,0-130-40.5t-115.5-117T331,624Zm237,617v25q36,40 78,92.5T729,1467t71,102h225v-19q-22-28-60.5-68.5T879,1396t-94-85.5T698,1241H568Z" />
      <glyph unicode="&#xea;" glyph-name="gid171" horiz-adv-x="1050" d="M506-20Q381-20 289.5,29T148,171.5T98,398q0,135 39,264T250,895t179,165.5T667,1122q160,0 242-72t82-194q0-84-38.5-154.5T834,579.5t-201-80T346,471H305q-2-16-3-35t-1-36q0-121 61-190.5T543,140q81,0 152,22t153,61V59Q770,23 691,1.5T506-20ZM331,624h30q125,0 223,23t155.5,72T797,844q0,54-35.5,87T655,964q-66,0-130-40.5t-115.5-117T331,624Zm5,617l1,25q37,34 93,88t110.5,111.5T625,1568H830q20-51 50-105.5t63-105t58-91.5v-25H874q-25,23-52.5,53.5t-55,65T713,1429q-61-54-122-102t-117-86H336Z" />
      <glyph unicode="&#xeb;" glyph-name="gid172" horiz-adv-x="1050" d="M506-20Q381-20 289.5,29T148,171.5T98,398q0,135 39,264T250,895t179,165.5T667,1122q160,0 242-72t82-194q0-84-38.5-154.5T834,579.5t-201-80T346,471H305q-2-16-3-35t-1-36q0-121 61-190.5T543,140q81,0 152,22t153,61V59Q770,23 691,1.5T506-20ZM331,624h30q125,0 223,23t155.5,72T797,844q0,54-35.5,87T655,964q-66,0-130-40.5t-115.5-117T331,624Zm553,666q-40,0-66,22t-26,66q0,53 29.5,89t86.5,36q42,0 65.5-22t23.5-63q0-59-32.5-93.5T884,1290Zm-370,0q-41,0-67,22t-26,66q0,53 29.5,89t84.5,36q29,0 49-10t30.5-29t10.5-46q0-59-31.5-93.5T514,1290Z" />
      <glyph unicode="&#xec;" glyph-name="gid173" horiz-adv-x="540" d="M53,0L287,1102H487L253,0H53ZM420,1241q-39,40-84,95t-83.5,112T193,1548v21H404q15-49 37-101.5t48.5-104T543,1266v-25H420Z" />
      <glyph unicode="&#xed;" glyph-name="gid174" horiz-adv-x="540" d="M53,0L287,1102H487L253,0H53ZM296,1241v25q36,40 78,92.5T457,1467t71,102H753v-19q-22-28-60.5-68.5T607,1396t-94-85.5T426,1241H296Z" />
      <glyph unicode="&#xee;" glyph-name="gid175" horiz-adv-x="540" d="M53,0L287,1102H487L253,0H53ZM66,1241l1,25q37,34 93,88t110.5,111.5T355,1568H560q20-51 50-105.5t63-105t58-91.5v-25H604q-25,23-52.5,53.5t-55,65T443,1429q-61-54-122-102t-117-86H66Z" />
      <glyph unicode="&#xef;" glyph-name="gid176" horiz-adv-x="540" d="M53,0L287,1102H487L253,0H53ZM614,1290q-40,0-66,22t-26,66q0,53 29.5,89t86.5,36q42,0 65.5-22t23.5-63q0-59-32.5-93.5T614,1290Zm-370,0q-41,0-67,22t-26,66q0,53 29.5,89t84.5,36q29,0 49-10t30.5-29t10.5-46q0-59-31.5-93.5T244,1290Z" />
      <glyph unicode="&#xf0;" glyph-name="gid177" horiz-adv-x="1168" d="M488-20Q366-20 275.5,26t-140,136T86,383q0,117 35.5,223.5T224.5,796t163,130.5T603,974q116,0 186-48.5T890,812l7,1q0,112-30,217.5T757,1231L499,1088l-64,114l228,126q-29,27-64,54t-76,52l97,132q53-31 104.5-68.5T820,1417l252,141l65-115L911,1318q50-65 86.5-142t56-170T1073,800q0-121-19.5-239.5T991,337.5t-111-185T714.5,26T488-20Zm11,160q71,0 126.5,28t96,75T788,348t39,118.5T840,582q0,42-12,83.5T790,741t-68,54T618,815q-84,0-146.5-37.5t-103-101t-60-141T289,377q0-105 50.5-171T499,140Z" />
      <glyph unicode="&#xf1;" glyph-name="gid178" horiz-adv-x="1194" d="M48,0L283,1105H451L426,895h4q39,56 92,109t122.5,87.5T802,1126q90,0 153.5-34t97-98T1086,840q0-44-7-91t-15-87L921,0H713L858,682q9,43 14,74.5t5,58.5q0,68-35,102.5T738,952q-72,0-146.5-52T455,743T358,478L256,0H48ZM388,1243q19,89 53,149t82,89.5T633,1511q46,0 85-17t73.5-39.5T856,1415t59-17q42,0 67.5,26.5T1032,1513h120q-22-89-57-149t-82.5-90T903,1244q-43,0-80,17t-71,40t-66,40t-66,17q-40,0-65.5-28.5T508,1243H388Z" />
      <glyph unicode="&#xf2;" glyph-name="gid179" horiz-adv-x="1164" d="M508-17Q382-17 290,34.5T148,181T98,406q0,108 23,211.5t68.5,194T303,971t157,108t199,39q128,0 219.5-51.5t141-147.5T1069,690q0-105-22.5-207T979,290.5T867,131T710.5,22.5T508-17Zm14,165q59,0 111.5,26t95,74.5t73,117t47,154T865,704q0,63-20.5,120T778,917T655,953q-67,0-122.5-29.5t-98.5-82t-72.5-122T316,569T300,401q0-121 57.5-187T522,148ZM705,1241q-39,40-84,95t-83.5,112T478,1548v21H689q15-49 37-101.5t48.5-104T828,1266v-25H705Z" />
      <glyph unicode="&#xf3;" glyph-name="gid180" horiz-adv-x="1164" d="M508-17Q382-17 290,34.5T148,181T98,406q0,108 23,211.5t68.5,194T303,971t157,108t199,39q128,0 219.5-51.5t141-147.5T1069,690q0-105-22.5-207T979,290.5T867,131T710.5,22.5T508-17Zm14,165q59,0 111.5,26t95,74.5t73,117t47,154T865,704q0,63-20.5,120T778,917T655,953q-67,0-122.5-29.5t-98.5-82t-72.5-122T316,569T300,401q0-121 57.5-187T522,148Zm60,1093v25q36,40 78,92.5T743,1467t71,102h225v-19q-22-28-60.5-68.5T893,1396t-94-85.5T712,1241H582Z" />
      <glyph unicode="&#xf4;" glyph-name="gid181" horiz-adv-x="1164" d="M508-17Q382-17 290,34.5T148,181T98,406q0,108 23,211.5t68.5,194T303,971t157,108t199,39q128,0 219.5-51.5t141-147.5T1069,690q0-105-22.5-207T979,290.5T867,131T710.5,22.5T508-17Zm14,165q59,0 111.5,26t95,74.5t73,117t47,154T865,704q0,63-20.5,120T778,917T655,953q-67,0-122.5-29.5t-98.5-82t-72.5-122T316,569T300,401q0-121 57.5-187T522,148ZM350,1241l1,25q37,34 93,88t110.5,111.5T639,1568H844q20-51 50-105.5t63-105t58-91.5v-25H888q-25,23-52.5,53.5t-55,65T727,1429q-61-54-122-102t-117-86H350Z" />
      <glyph unicode="&#xf5;" glyph-name="gid182" horiz-adv-x="1164" d="M508-17Q382-17 290,34.5T148,181T98,406q0,108 23,211.5t68.5,194T303,971t157,108t199,39q128,0 219.5-51.5t141-147.5T1069,690q0-105-22.5-207T979,290.5T867,131T710.5,22.5T508-17Zm14,165q59,0 111.5,26t95,74.5t73,117t47,154T865,704q0,63-20.5,120T778,917T655,953q-67,0-122.5-29.5t-98.5-82t-72.5-122T316,569T300,401q0-121 57.5-187T522,148ZM343,1243q19,89 53,149t82,89.5T588,1511q46,0 85-17t73.5-39.5T811,1415t59-17q42,0 67.5,26.5T987,1513h120q-22-89-57-149t-82.5-90T858,1244q-43,0-80,17t-71,40t-66,40t-66,17q-40,0-65.5-28.5T463,1243H343Z" />
      <glyph unicode="&#xf6;" glyph-name="gid183" horiz-adv-x="1164" d="M508-17Q382-17 290,34.5T148,181T98,406q0,108 23,211.5t68.5,194T303,971t157,108t199,39q128,0 219.5-51.5t141-147.5T1069,690q0-105-22.5-207T979,290.5T867,131T710.5,22.5T508-17Zm14,165q59,0 111.5,26t95,74.5t73,117t47,154T865,704q0,63-20.5,120T778,917T655,953q-67,0-122.5-29.5t-98.5-82t-72.5-122T316,569T300,401q0-121 57.5-187T522,148ZM900,1290q-40,0-66,22t-26,66q0,53 29.5,89t86.5,36q42,0 65.5-22t23.5-63q0-59-32.5-93.5T900,1290Zm-370,0q-41,0-67,22t-26,66q0,53 29.5,89t84.5,36q29,0 49-10t30.5-29t10.5-46q0-59-31.5-93.5T530,1290Z" />
      <glyph unicode="&#xf7;" glyph-name="gid184" horiz-adv-x="1171" d="M135,644V800h971V644H135ZM620,245q-49,0-82.5,30.5T504,372q0,69 33.5,97T620,497q47,0 80.5-28T734,372q0-66-33.5-96.5T620,245Zm0,701q-49,0-82.5,30.5T504,1073q0,69 33.5,97t82.5,28q47,0 80.5-28t33.5-97q0-66-33.5-96.5T620,946Z" />
      <glyph unicode="&#xf8;" glyph-name="gid185" horiz-adv-x="1164" d="M161-82L50,4L168,147q-34,52-52,116.5T98,406q0,108 23.5,211.5t68.5,194T303,971t157,108t199,39q76,0 137-17.5T906,1050l98,118l112-84L1004,958q32-49 47-117.5T1066,702q0-106-22-209.5t-66.5-195T866.5,135T710.5,23.5T510-17Q439-17 377,0T267,49L161-82ZM522,142q61,0 114,26.5T732,243t74,114.5t48,147T872,676q0,29-3,55.5T860,774L378,187q25-21 63-33t81-12ZM308,318L794,911q-22,19-56,32t-83,13q-68,0-124-28t-99.5-78.5t-74-117T310.5,589T293,430q0-35 4-64.5T308,318Z" />
      <glyph unicode="&#xf9;" glyph-name="gid186" horiz-adv-x="1194" d="M389-20q-86,0-148.5,33t-95,96.5T113,264q0,42 6,87.5T134,446l141,656H476L330,419q-8-40-12.5-73T313,288q0-69 34.5-106.5T455,144q74,0 149.5,53T743,357t97,267l101,478h198L906,0H746l25,211h-9q-40-56-93-109T547,14.5T389-20ZM748,1241q-39,40-84,95t-83.5,112T521,1548v21H732q15-49 37-101.5t48.5-104T871,1266v-25H748Z" />
      <glyph unicode="&#xfa;" glyph-name="gid187" horiz-adv-x="1194" d="M389-20q-86,0-148.5,33t-95,96.5T113,264q0,42 6,87.5T134,446l141,656H476L330,419q-8-40-12.5-73T313,288q0-69 34.5-106.5T455,144q74,0 149.5,53T743,357t97,267l101,478h198L906,0H746l25,211h-9q-40-56-93-109T547,14.5T389-20ZM624,1241v25q36,40 78,92.5T785,1467t71,102h225v-19q-22-28-60.5-68.5T935,1396t-94-85.5T754,1241H624Z" />
      <glyph unicode="&#xfb;" glyph-name="gid188" horiz-adv-x="1194" d="M389-20q-86,0-148.5,33t-95,96.5T113,264q0,42 6,87.5T134,446l141,656H476L330,419q-8-40-12.5-73T313,288q0-69 34.5-106.5T455,144q74,0 149.5,53T743,357t97,267l101,478h198L906,0H746l25,211h-9q-40-56-93-109T547,14.5T389-20Zm3,1261l1,25q37,34 93,88t110.5,111.5T681,1568H886q20-51 50-105.5t63-105t58-91.5v-25H930q-25,23-52.5,53.5t-55,65T769,1429q-61-54-122-102t-117-86H392Z" />
      <glyph unicode="&#xfc;" glyph-name="gid189" horiz-adv-x="1194" d="M389-20q-86,0-148.5,33t-95,96.5T113,264q0,42 6,87.5T134,446l141,656H476L330,419q-8-40-12.5-73T313,288q0-69 34.5-106.5T455,144q74,0 149.5,53T743,357t97,267l101,478h198L906,0H746l25,211h-9q-40-56-93-109T547,14.5T389-20ZM941,1290q-40,0-66,22t-26,66q0,53 29.5,89t86.5,36q42,0 65.5-22t23.5-63q0-59-32.5-93.5T941,1290Zm-370,0q-41,0-67,22t-26,66q0,53 29.5,89t84.5,36q29,0 49-10t30.5-29t10.5-46q0-59-31.5-93.5T571,1290Z" />
      <glyph unicode="&#xfd;" glyph-name="gid190" horiz-adv-x="973" d="M-42-493q-50,0-81.5,6T-183-472v161q27-6 58.5-11.5T-56-328q85,0 144.5,53T202-125L266-10L99,1102H299l71-552q9-61 14-131t7.5-133T394,181h6q14,33 39,90.5t53.5,121T547,504l312,598h215L377-182Q322-286 261-355T126.5-458.5T-42-493ZM476,1241v25q36,40 78,92.5T637,1467t71,102H933v-19q-22-28-60.5-68.5T787,1396t-94-85.5T606,1241H476Z" />
      <glyph unicode="&#xfe;" glyph-name="gid191" horiz-adv-x="1192" d="M-50-490L383,1556H583l-77-358q-17-80-37.5-157T430,905h8q47,60 100.5,109t116,77.5T788,1120q138,0 221.5-97T1093,736q0-112-22-221.5t-66-206t-107.5-170T751,22.5T566-20Q492-20 436.5,6T343,75t-61,94h-9q-3-47-12-109.5T241-52L148-490H-50ZM539,144q64,0 118,33.5T754,269t73.5,133.5t46,161T889,736q0,109-44,164.5T715,956q-73,0-143.5-55T445,752T361,543q-9-45-14.5-90.5T341,362q0-98 48.5-158T539,144Z" />
      <glyph unicode="&#xff;" glyph-name="gid192" horiz-adv-x="973" d="M-42-493q-50,0-81.5,6T-183-472v161q27-6 58.5-11.5T-56-328q85,0 144.5,53T202-125L266-10L99,1102H299l71-552q9-61 14-131t7.5-133T394,181h6q14,33 39,90.5t53.5,121T547,504l312,598h215L377-182Q322-286 261-355T126.5-458.5T-42-493ZM795,1290q-40,0-66,22t-26,66q0,53 29.5,89t86.5,36q42,0 65.5-22t23.5-63q0-59-32.5-93.5T795,1290Zm-370,0q-41,0-67,22t-26,66q0,53 29.5,89t84.5,36q29,0 49-10t30.5-29t10.5-46q0-59-31.5-93.5T425,1290Z" />
      <glyph unicode="&#x2013;" glyph-name="gid202" horiz-adv-x="983" d="M52,465L90,637H921L886,465H52Z" />
      <glyph unicode="&#x2014;" glyph-name="gid203" horiz-adv-x="1965" d="M52,465L90,637H1903l-36-172H52Z" />
      <glyph unicode="&#x2018;" glyph-name="gid204" horiz-adv-x="368" d="M129,961l-7,22q33,73 76,155.5t91.5,166T386,1462H538q-27-60-55-125.5T428.5,1205T378,1076.5T335,961H129Z" />
      <glyph unicode="&#x2019;" glyph-name="gid205" horiz-adv-x="368" d="M119,961q36,80 74,169t72,175t57,157H528l8-22q-32-73-75.5-155.5T368,1119T271,961H119Z" />
      <glyph unicode="&#x201a;" glyph-name="gid206" horiz-adv-x="508" d="M-99-264q36,80 73,169T44.5,80.5T103,238H310l8-23q-33-72-76.5-155T149-106T52-264H-99Z" />
      <glyph unicode="&#x201c;" glyph-name="gid207" horiz-adv-x="754" d="M514,961l-8,22q32,73 76.5,155.5t93.5,166T773,1462H923q-36-80-73.5-169t-71-175T720,961H514Zm-385,0l-7,22q33,73 76,155.5t91.5,166T386,1462H538q-27-60-55-125.5T428.5,1205T378,1076.5T335,961H129Z" />
      <glyph unicode="&#x201d;" glyph-name="gid208" horiz-adv-x="754" d="M504,961q37,80 74,169t70,175t57,157H913l8-22q-31-73-75-155.5T752.5,1119T654,961H504Zm-385,0q36,80 74,169t72,175t57,157H528l8-22q-32-73-75.5-155.5T368,1119T271,961H119Z" />
      <glyph unicode="&#x201e;" glyph-name="gid209" horiz-adv-x="893" d="M285-264q36,80 73.5,169t71,175.5T488,238H694l8-23q-32-72-75.5-155T534-106T438-264H285Zm-384,0q36,80 73,169T44.5,80.5T103,238H310l8-23q-33-72-76.5-155T149-106T52-264H-99Z" />
      <glyph unicode="&#x2022;" glyph-name="gid210" horiz-adv-x="770" d="M425,488q-99,0-164.5,60T195,744q0,94 30.5,151.5T309,980t119,27q65,0 117.5-25.5t83-81.5T659,751q0-91-31-149.5t-84-86T425,488Z" />
      <glyph unicode="&#x2039;" glyph-name="gid214" horiz-adv-x="594" d="M300,111L79,550l1,27L473,982L582,882L287,545L448,174L300,111Z" />
      <glyph unicode="&#x203a;" glyph-name="gid215" horiz-adv-x="594" d="M122,111L12,212L308,548L146,919l148,63L515,543l-1-24L122,111Z" />
    </font>
</defs>
</svg>
