<?xml version="1.0" standalone="no"?>
<!DOCTYPE svg PUBLIC "-//W3C//DTD SVG 1.1//EN" "http://www.w3.org/Graphics/SVG/1.1/DTD/svg11.dtd">
<svg xmlns="http://www.w3.org/2000/svg">
  <defs>
    <font id="OpenSans" horiz-adv-x="1067">
      <font-face font-family="Open Sans Medium" units-per-em="2048" panose-1="0 0 0 0 0 0 0 0 0 0" ascent="2189" descent="-600" alphabetic="0" />
      <glyph unicode=" " glyph-name="gid3" horiz-adv-x="532" />
      <glyph unicode="!" glyph-name="gid4" horiz-adv-x="552" d="M348,426H205L158,1462H395L348,426ZM142,114q0,76 38.5,107.5T275,253q55,0 94-31.5T408,114q0-74-39-108T275-28q-56,0-94.5,34T142,114Z" />
      <glyph unicode="&quot;" glyph-name="gid5" horiz-adv-x="854" d="M339,1462L301,934H173l-38,528H339Zm380,0L681,934H553l-38,528H719Z" />
      <glyph unicode="#" glyph-name="gid6" horiz-adv-x="1323" d="M985,885L924,572h277V426H896L813,0H657l83,426H463L382,0H229l77,426H50V572H335l62,313H125v146H423l82,431H662l-81-431H861l81,431h153l-82-431h259V885H985ZM490,572H768l61,313H552L490,572Z" />
      <glyph unicode="$" glyph-name="gid7" horiz-adv-x="1171" d="M518-119V89q-119,2-223.5,21T119,161V348q73-34 183.5-60.5T518,258V665q-138,44-226.5,94T160,878.5T117,1047q0,102 50,175t140.5,115T518,1386v168H644V1389q109-4 200-25t172-55l-63-163q-71,29-151,48t-158,25V818q128-40 221-85t143-112t50-174q0-147-107-239.5T644,96V-119H518ZM644,266q110,12 163.5,55T861,435q0,49-21.5,81.5t-69,57T644,621V266ZM518,863v352q-66-5-111.5-25.5T338,1136t-23-79q0-51 20-86t65-60.5T518,863Z" />
      <glyph unicode="%" glyph-name="gid8" horiz-adv-x="1731" d="M401,1483q156,0 236.5-119.5T718,1026T640.5,686.5T401,565q-150,0-229.5,121.5T92,1026t75.5,337.5T401,1483Zm1-141q-73,0-107.5-79T260,1026q0-159 34.5-239T402,707q75,0 111.5,80T550,1026q0,157-36,236.5T402,1342Zm953,120L544,0H375l811,1462h169Zm-32-564q154,0 235-120t81-337t-77.5-338.5T1323-19q-151,0-230,121.5T1014,441t75,337t234,120Zm0-143q-73,0-107-78.5T1182,440t34-238t107-80q75,0 112,79t37,239q0,158-36.5,236.5T1323,755Z" />
      <glyph unicode="&amp;" glyph-name="gid9" horiz-adv-x="1503" d="M626,1485q111,0 192.5-37.5t127-108T991,1170q0-133-84.5-224.5T694,780l375-364q52,65 85.5,147.5T1212,740h205q-32-128-84.5-244T1200,289L1495,0H1232L1067,161q-62-54-134-95T774.5,2.5T581-20Q434-20 327,27.5T162,165T104,383q0,106 37,181.5t106,134T412,811q-48,54-87.5,107.5t-62.5,113T239,1162q0,101 48,173t134.5,111T626,1485ZM532,686q-68-41-117-81.5T340.5,514T315,395q0-110 75.5-175.5T590,154q118,0 204,38t148,93L532,686Zm89,637q-81,0-135-42t-54-124q0-69 37.5-129T574,897q116,64 169.5,124T797,1162q0,74-49.5,117.5T621,1323Z" />
      <glyph unicode="&apos;" glyph-name="gid10" horiz-adv-x="473" d="M339,1462L301,934H173l-38,528H339Z" />
      <glyph unicode="(" glyph-name="gid11" horiz-adv-x="627" d="M82,561q0,169 32.5,328.5t99.5,305T383,1462H565q-144-190-217-422T275,563q0-159 32.5-315t97-300T563-324H383Q281-204 214-62T114.5,237.5T82,561Z" />
      <glyph unicode=")" glyph-name="gid12" horiz-adv-x="627" d="M545,563q0-167-32.5-325t-99-300.5T244-324H64Q159-197 223-52t96.5,300.5T352,564q0,163-33,321t-97,304T62,1462H244q103-123 169.5-268t99-304.5T545,563Z" />
      <glyph unicode="*" glyph-name="gid13" horiz-adv-x="1125" d="M660,1556l-38-390l389,113l28-195l-369-35L909,731L731,634L556,979L397,635L212,731l237,318L83,1085l30,194l383-113l-39,390H660Z" />
      <glyph unicode="+" glyph-name="gid14" horiz-adv-x="1171" d="M663,800h405V644H663V229H505V644H99V800H505v417H663V800Z" />
      <glyph unicode="," glyph-name="gid15" horiz-adv-x="544" d="M385,238l13-23q-18-73-45.5-156T292-107T226-264H78q21,80 40.5,169t36,175T181,238H385Z" />
      <glyph unicode="-" glyph-name="gid16" horiz-adv-x="659" d="M77,463V637H583V463H77Z" />
      <glyph unicode="." glyph-name="gid17" horiz-adv-x="550" d="M142,114q0,76 38.5,107.5T274,253q56,0 95-31.5T408,114q0-74-39-108T274-28q-55,0-93.5,34T142,114Z" />
      <glyph unicode="/" glyph-name="gid18" horiz-adv-x="775" d="M756,1462L212,0H19L564,1462H756Z" />
      <glyph unicode="0" glyph-name="gid19" horiz-adv-x="1171" d="M1074,733q0-178-27-318T961.5,178T809.5,30.5T584-20Q418-20 310,69T149,326.5T96,733q0,234 48,402.5t155.5,259T584,1485q168,0 276.5-89.5t161-258T1074,733Zm-776,0q0-195 28-325t91-194.5T584,149t167.5,64T843,407t28,326q0,192-28,321.5t-90.5,195T584,1315t-168.5-65.5t-90-195T298,733Z" />
      <glyph unicode="1" glyph-name="gid20" horiz-adv-x="1171" d="M751,0H552V989q0,53 0.5,97.5t2.5,85t4,78.5q-26-27-54.5-51.5T439,1143L272,1008L169,1140l415,322H751V0Z" />
      <glyph unicode="2" glyph-name="gid21" horiz-adv-x="1171" d="M1070,0H96V158L481,549Q591,660 663.5,743.5T773,905.5T810,1077q0,114-67,174t-178,60q-100,0-180.5-36.5T218,1170L110,1304q59,50 128,90.5T389,1459t182,24q137,0 236.5-48T961,1299t54-206q0-117-46.5-216.5T837,679T636,470L351,188v-9h719V0Z" />
      <glyph unicode="3" glyph-name="gid22" horiz-adv-x="1171" d="M1016,1125q0-99-39-171.5T869,835T709,770v-7q174-22 262.5-111T1060,417q0-127-60-226T815.5,36T496-20Q379-20 279-1T89,60V243q91-46 197-71.5T490,146q191,0 274.5,74T848,424q0,86-45,140.5T669.5,645T449,671H312V837H451q123,0 202.5,32.5T772,961t39,138q0,103-67.5,159.5T553,1315q-76,0-138.5-16.5t-116-43.5T195,1194L96,1333q81,62 196.5,106T557,1483q225,0 342-99t117-259Z" />
      <glyph unicode="4" glyph-name="gid23" horiz-adv-x="1171" d="M1133,330H925V0H728V330H42V489l682,979H925V503h208V330ZM728,503V923q0,50 1,95.5t3,86.5t4,76.5t3,64.5h-8q-19-40-42.5-83T639,1083L234,503H728Z" />
      <glyph unicode="5" glyph-name="gid24" horiz-adv-x="1171" d="M576,904q145,0 253.5-50.5T998.5,706T1059,470q0-152-65-262T805,39T505-20Q391-20 292,0T124,60V245q74-43 178.5-69.5T504,149q106,0 184.5,33T810,282t43,170q0,136-85,210T501,736q-61,0-132-10.5T252,704l-94,57l56,701H958V1283H388L354,880q37,8 92,16t130,8Z" />
      <glyph unicode="6" glyph-name="gid25" horiz-adv-x="1171" d="M105,624q0,131 18.5,256t63,234T309,1305.5T504,1435t282,47q44,0 97.5-4t88.5-14V1295q-38,12-85,18t-94,6q-185,0-290-75.5t-150-205T301,746h11q30,49 77,89t113.5,63.5T658,922q128,0 223-52.5T1028,717t52-243q0-152-57-263T860.5,40T609-20Q501-20 409,20.5t-160,121t-106,201T105,624ZM606,147q125,0 200.5,80.5T882,473q0,135-67,213.5T613,765q-92,0-160.5-39t-106-97.5T309,509q0-63 18-126.5t55-117t93-86T606,147Z" />
      <glyph unicode="7" glyph-name="gid26" horiz-adv-x="1171" d="M274,0L862,1283H84v179h993V1318L492,0H274Z" />
      <glyph unicode="8" glyph-name="gid27" horiz-adv-x="1171" d="M585,1483q126,0 226.5-40t158-117.5T1027,1133q0-88-37.5-154.5t-101-116T747,774q90-42 164-96t118-127t44-173q0-122-60.5-211.5T843,28.5T588-20Q430-20 320,26.5t-167.5,134T95,371q0,101 42,175.5t111,128T399,766q-71,40-129.5,91t-93,119.5T142,1135q0,112 58.5,189.5t159.5,118T585,1483ZM289,375q0-104 73.5-171T584,137q142,0 218.5,66.5T879,379q0,69-36.5,121t-101,93.5T593,669l-34,13q-85-36-145-79.5t-92.5-99T289,375Zm294,949q-108,0-176.5-52T338,1123q0-70 33.5-118.5t90.5-84T590,855q68,30 122.5,65.5t86,85T830,1123q0,98-68.5,149.5T583,1324Z" />
      <glyph unicode="9" glyph-name="gid28" horiz-adv-x="1171" d="M1070,839q0-131-18.5-256.5t-63-235T866,155.5T670,26T388-21q-43,0-99,5T197-1V169q38-13 87-20t96-7q186,0 291,75T821.5,421.5T873,715H861q-30-48-76-88T672,563T512,539q-126,0-220,52.5T146,744T94,986q0,153 58,264.5T316,1422t250,60q109,0 201-40.5t160-121t105.5-201T1070,839ZM568,1314q-123,0-199-80.5T293,989q0-136 65.5-214.5T560,696q94,0 162.5,38.5t106,97.5T866,953t-18,125.5t-55,117t-93,86T568,1314Z" />
      <glyph unicode=":" glyph-name="gid29" horiz-adv-x="550" d="M142,114q0,76 38.5,107.5T274,253q56,0 95-31.5T408,114q0-74-39-108T274-28q-55,0-93.5,34T142,114Zm0,872q0,77 38.5,108.5T274,1126q56,0 95-31.5T408,986q0-74-39-107t-95-33q-55,0-93.5,33T142,986Z" />
      <glyph unicode=";" glyph-name="gid30" horiz-adv-x="550" d="M372,238l14-23q-18-72-46-155.5T279.5-107T214-264H65q20,80 40,168.5t37,175T169,238H372ZM139,986q0,77 38.5,108.5T271,1126q57,0 95.5-31.5T405,986q0-74-38.5-107T271,846q-55,0-93.5,33T139,986Z" />
      <glyph unicode="&lt;" glyph-name="gid31" horiz-adv-x="1171" d="M1069,233L99,662V769l970,481V1079L312,723l757-320V233Z" />
      <glyph unicode="=" glyph-name="gid32" horiz-adv-x="1171" d="M108,845v156h952V845H108Zm0-404V597h952V441H108Z" />
      <glyph unicode="&gt;" glyph-name="gid33" horiz-adv-x="1171" d="M99,403L858,722L99,1079v171l970-481V662L99,233V403Z" />
      <glyph unicode="?" glyph-name="gid34" horiz-adv-x="907" d="M285,426v57q0,77 16,133.5t54.5,106T462,826q74,60 117.5,103t63,86T662,1118q0,94-62.5,144T424,1312q-96,0-174.5-25.5T96,1224L25,1379q86,46 187.5,75T437,1483q198,0 307-97t109-262q0-91-29-155.5T740.5,850T609,736q-64-53-98.5-92.5t-47-80T451,466V426H285ZM244,114q0,76 37.5,107.5T377,253q54,0 93-31.5T509,114q0-74-39-108T377-28q-58,0-95.5,34T244,114Z" />
      <glyph unicode="@" glyph-name="gid35" horiz-adv-x="1836" d="M1723,731q0-95-21.5-186t-66-164t-111-116.5T1367,221q-88,0-144,49.5T1153,390h-10q-39-72-111.5-120.5T855,221q-163,0-251,105T516,605q0,135 55,239t155,163.5T963,1067q91,0 179.5-15.5T1283,1017l-20-407q-1-33-2-53t-1-30q0-102 35-137t83-35q62,0 104,51t64,136.5T1568,732q0,186-75,317.5T1286,1250t-302,69q-172,0-304-54T457,1112.5t-138-233T272,583q0-199 71-338.5t208.5-212T887-40q121,0 238,27t211,63V-96q-91-38-203-62T889-182q-244,0-417.5,90.5T206,169T114,577q0,191 60,352.5T347,1210t274,185t362,66q216,0 383-88.5t262-252T1723,731ZM686,601q0-128 51-187t142-59q112,0 163.5,84T1102,661l12,251q-27,8-65.5,13.5T968,931q-102,0-164-47.5T714,761T686,601Z" />
      <glyph unicode="A" glyph-name="gid36" horiz-adv-x="1325" d="M1108,0L946,435H373L213,0H0L558,1468H768L1323,0H1108ZM889,613L735,1044q-7,22-21.5,66t-29,91T661,1279q-10-41-23-86.5t-25.5-85T592,1044L436,613H889Z" />
      <glyph unicode="B" glyph-name="gid37" horiz-adv-x="1336" d="M196,1462H620q279,0 420-82t141-281q0-85-31-152t-90-111T915,776V766q90-15 160-54t110.5-110.5T1226,418q0-134-63-227.5T984.5,48.5T710,0H196V1462ZM401,847H656q177,0 245,58t68,169q0,115-81,165.5T631,1290H401V847Zm0-169V173H680q181,0 255.5,71T1010,435q0,76-33.5,130.5T868,649T666,678H401Z" />
      <glyph unicode="C" glyph-name="gid38" horiz-adv-x="1294" d="M820,1306q-113,0-202.5-39.5T466,1151.5T371,970T338,731q0-177 52.5-306T549,226t267-70q96,0 183.5,17.5T1174,219V43q-84-32-173.5-47.5T791-20Q567-20 418.5,73T197,334.5T124,732q0,166 46,303.5t135,238t218.5,155T822,1483q110,0 214.5-23.5T1229,1394l-76-171q-73,33-156.5,58T820,1306Z" />
      <glyph unicode="D" glyph-name="gid39" horiz-adv-x="1494" d="M1370,745q0-247-91-412.5t-263.5-249T597,0H196V1462H642q224,0 387-81.5t252-241T1370,745Zm-215-6q0,188-61,310T915,1230.5T626,1290H401V174H590q283,0 424,142t141,423Z" />
      <glyph unicode="E" glyph-name="gid40" horiz-adv-x="1140" d="M1017,0H196V1462h821V1286H401V851H980V677H401V177h616V0Z" />
      <glyph unicode="F" glyph-name="gid41" horiz-adv-x="1074" d="M400,0H196V1462h820V1286H400V790H978V615H400V0Z" />
      <glyph unicode="G" glyph-name="gid42" horiz-adv-x="1488" d="M804,780h528V59Q1217,20 1095,0T821-20Q595-20 440,70T204.5,328T124,732q0,227 89,396t259,262t410,93q120,0 230.5-23t203.5-64l-74-173q-78,35-172.5,59.5T874,1307q-168,0-288.5-71t-185-200T336,730q0-173 54-302T559,227t296-72q91,0 155.5,10T1129,189V601H804V780Z" />
      <glyph unicode="H" glyph-name="gid43" horiz-adv-x="1524" d="M1327,0H1122V675H401V0H196V1462H401V852h721v610h205V0Z" />
      <glyph unicode="I" glyph-name="gid44" horiz-adv-x="599" d="M196,0V1462H401V0H196Z" />
      <glyph unicode="J" glyph-name="gid45" horiz-adv-x="582" d="M0-396q-53,0-93,7t-68,18v173q32-9 69-15t79-6q56,0 102,22t73,76T189,29V1462H395V39q0-149-48.5-245.5T209-349.5T0-396Z" />
      <glyph unicode="K" glyph-name="gid46" horiz-adv-x="1281" d="M1281,0H1042L551,687L401,559V0H196V1462H401V748q51,60 103.5,119T609,986l419,476h235L699,825L1281,0Z" />
      <glyph unicode="L" glyph-name="gid47" horiz-adv-x="1091" d="M196,0V1462H401V178h635V0H196Z" />
      <glyph unicode="M" glyph-name="gid48" horiz-adv-x="1864" d="M833,0L377,1257h-8q3-41 6.5-105.5t6-140T384,863V0H196V1462H491L924,271h7l444,1191h293V0H1470V875q0,66 2,137.5t5.5,136T1484,1255h-9L1008,0H833Z" />
      <glyph unicode="N" glyph-name="gid49" horiz-adv-x="1573" d="M1378,0H1132L375,1198h-8q3-54 7-118.5t6.5-135T384,802V0H196V1462H440L1194,270h7q-2,44-5,109t-5.5,137.5T1188,654v808h190V0Z" />
      <glyph unicode="O" glyph-name="gid50" horiz-adv-x="1602" d="M1479,733q0-169-43-307.5t-127.5-238T1097.5,34T802-20Q630-20 502.5,34T291,188T165.5,427T124,735q0,225 74,394t225.5,262.5T805,1485q222,0 372-93t226-261.5T1479,733ZM339,733q0-178 49.5-307.5t152-200T802,155q161,0 263,70.5t150,200T1263,733q0,270-110,422.5T805,1308q-160,0-263-69.5t-153-198T339,733Z" />
      <glyph unicode="P" glyph-name="gid51" horiz-adv-x="1246" d="M599,1462q283,0 413.5-113T1143,1028q0-94-30-178.5t-97.5-149T838,598.5T568,561H401V0H196V1462H599Zm-16-172H401V734H546q127,0 213,28.5T889,854t44,166q0,136-85,203t-265,67Z" />
      <glyph unicode="Q" glyph-name="gid52" horiz-adv-x="1602" d="M1479,733q0-176-46.5-319t-139-243.5T1063,21l346-369H1127L848-18q-12,0-23-1t-23-1Q630-20 502.5,34T291,188T165.5,427T124,735q0,225 74,394t225.5,262.5T805,1485q222,0 372-93t226-261.5T1479,733ZM339,733q0-178 49.5-307.5t152-200T802,155q161,0 263,70.5t150,200T1263,733q0,270-110,422.5T805,1308q-160,0-263-69.5t-153-198T339,733Z" />
      <glyph unicode="R" glyph-name="gid53" horiz-adv-x="1286" d="M599,1462q185,0 305.5-45.5t179.5-138t59-234.5q0-112-41-189T994.5,729T852,652L1261,0H1026L670,598H401V0H196V1462H599Zm-13-174H401V769H600q173,0 253,67.5T933,1036q0,137-85,194.5T586,1288Z" />
      <glyph unicode="S" glyph-name="gid54" horiz-adv-x="1124" d="M1031,393q0-130-64.5-222.5T785,29T507-20q-81,0-154.5,8.5T216,13T102,53V247q83-34 192-63.5T519,154q101,0 169.5,27.5T792,259t35,120T793,496.5T685.5,584T493,669q-83,30-151,68.5T224.5,826T148,943.5T121,1099q0,121 59.5,207T347,1437.5T595,1483q116,0 216.5-23t191.5-63l-65-170q-85,35-171,57t-178,22q-85,0-143.5-25t-89-71T326,1101q0-71 32-118t101-85t180-81q125-48 212.5-102T985,585t46-192Z" />
      <glyph unicode="T" glyph-name="gid55" horiz-adv-x="1143" d="M674,0H468V1285H24v177H1117V1285H674V0Z" />
      <glyph unicode="U" glyph-name="gid56" horiz-adv-x="1507" d="M1323,1462V516q0-154-63.5-275T1068,50T746-20Q471-20 326.5,127.5T182,520v942H388V528q0-185 92.5-279T756,155q126,0 206,45.5t118.5,129T1119,528v934h204Z" />
      <glyph unicode="V" glyph-name="gid57" horiz-adv-x="1249" d="M1249,1462L731,0H518L0,1462H212L537,522q18-49 34-103.5T601,310t23-99q9,45 22.5,99T677,419.5T711,525l324,937h214Z" />
      <glyph unicode="W" glyph-name="gid58" horiz-adv-x="1913" d="M1891,1462L1505,0H1288L1021,930q-11,37-22,80t-21.5,85.5T960,1172t-10,52q-2-18-8.5-51.5T926,1097t-20-85.5T884,929L623,0H407L23,1462H232L455,575q11-44 21.5-89.5t19.5-91t16-88T525,226q5,39 13,83.5T555.5,400T576,491t23,86l250,885h205l259-890q12-42 23.5-88t21-92t17-88t13.5-78q7,50 17.5,108T1430,454t28,122l223,886h210Z" />
      <glyph unicode="X" glyph-name="gid59" horiz-adv-x="1229" d="M1224,0H990L609,621L223,0H5L491,760L38,1462H265L618,893l352,569h219L735,758L1224,0Z" />
      <glyph unicode="Y" glyph-name="gid60" horiz-adv-x="1178" d="M590,762l368,700h220L692,568V0H487V559L0,1462H224L590,762Z" />
      <glyph unicode="Z" glyph-name="gid61" horiz-adv-x="1176" d="M1104,0H71V146L836,1284H96v178h988V1316L318,178h786V0Z" />
      <glyph unicode="[" glyph-name="gid62" horiz-adv-x="672" d="M621-324H160V1462H621V1307H347V-168H621V-324Z" />
      <glyph unicode="\" glyph-name="gid63" horiz-adv-x="775" d="M211,1462L757,0H564L19,1462H211Z" />
      <glyph unicode="]" glyph-name="gid64" horiz-adv-x="672" d="M51-168H325V1307H51v155H513V-324H51v156Z" />
      <glyph unicode="^" glyph-name="gid65" horiz-adv-x="1171" d="M72,542l439,930H619l481-930H929L568,1262L243,542H72Z" />
      <glyph unicode="_" glyph-name="gid66" horiz-adv-x="883" d="M887-311H-4v127H887V-311Z" />
      <glyph unicode="`" glyph-name="gid67" horiz-adv-x="611" d="M316,1569q26-46 63-102.5T456.5,1357t73.5-91v-25H395q-37,29-82,69t-90,84.5t-82,85T82,1549v20H316Z" />
      <glyph unicode="a" glyph-name="gid68" horiz-adv-x="1163" d="M593,1121q204,0 305-90.5T999,745V0H855L816,160h-8q-46-60-96-100T596.5,0T437-20Q337-20 259,16T136.5,124.5T92,309q0,168 129,255t391,95l190,8v62q0,129-57.5,182T584,964q-85,0-163-24.5T271,881l-64,146q78,40 177.5,67T593,1121ZM800,535l-154-7q-191-7-268.5-63.5T300,307q0-88 53-129t140-41q134,0 220.5,75.5T800,436v99Z" />
      <glyph unicode="b" glyph-name="gid69" horiz-adv-x="1264" d="M372,1556V1174q0-66-3.5-129T362,948h10q45,72 127.5,122.5T712,1121q201,0 322-143.5T1155,552q0-186-55.5-314T943.5,45T707-20Q578-20 498,27.5T373,141H358L320,0H171V1556H372ZM667,956q-109,0-173.5-43T401,783T372,564V549q0-196 64-300T668,145q138,0 209.5,106T949,554q0,200-71,301T667,956Z" />
      <glyph unicode="c" glyph-name="gid70" horiz-adv-x="999" d="M614-20Q462-20 348,41T171.5,227.5T109,545q0,200 67,327.5T361.5,1061T633,1122q90,0 168.5-18T933,1059L873,896q-56,22-120.5,39T630,952q-106,0-175.5-46.5T350,769T315,547q0-128 34.5-216.5T451.5,196T620,150q89,0 160,20t131,51V44Q853,12 783-4T614-20Z" />
      <glyph unicode="d" glyph-name="gid71" horiz-adv-x="1264" d="M552-20Q350-20 229.5,123T109,547q0,284 122.5,429.5T557,1122q85,0 149-23t110.5-61T894,952h12q-5,31-10,87t-5,98v419h201V0H933L900,153h-9q-30-48-76.5-87.5T703.5,3T552-20Zm47,164q163,0 230.5,94T898,517v31q0,197-64.5,302.5T597,956q-140,0-211-109.5T315,543q0-192 71-295.5T599,144Z" />
      <glyph unicode="e" glyph-name="gid72" horiz-adv-x="1165" d="M603,1122q144,0 247-61.5T1008,887t55-264V509H315q3-177 91-271.5T653,143q105,0 187,20t170,59V53Q927,15 843.5-2.5T644-20Q484-20 363.5,44T176,233.5T109,543q0,182 61,311.5T342,1053t261,69Zm-1-156q-122,0-196-79.5T319,659H861q-1,91-29,160T747.5,927T602,966Z" />
      <glyph unicode="f" glyph-name="gid73" horiz-adv-x="715" d="M692,947H421V0H220V947H33v97l187,61v76q0,139 43,223.5T386.5,1528T582,1567q69,0 126.5-12t99.5-27l-52-154q-34,11-76,20.5t-89,9.5q-87,0-128.5-56T421,1179v-77H692V947Z" />
      <glyph unicode="g" glyph-name="gid74" horiz-adv-x="1123" d="M483-492q-221,0-339.5,81T25-185Q25-82 90-10.5T272,86q-44,20-75.5,61.5T165,241q0,61 34.5,105.5T303,433q-87,36-140,119.5T110,748q0,119 50.5,203T306,1079t231,44q30,0 62-2.5t61-7.5t47-10h380V984L891,954q29-38 47-90t18-114q0-168-114.5-265.5T525,387q-47,1-95,8q-43-25-65-54.5T343,273q0-29 19.5-47T419,199.5t90-8.5H701q180,0 276-76t96-222q0-185-152-285T483-492Zm7,147q129,0 215.5,26T836-245t44,114q0,60-28.5,91.5T767,3T629,14H447Q377,14 325-8T244-71.5T215-174q0-83 71.5-127T490-345Zm44,869q111,0 166,58.5T755,750q0,117-56,176T533,985q-107,0-163.5-60.5T313,748q0-107 57-165.5T534,524Z" />
      <glyph unicode="h" glyph-name="gid75" horiz-adv-x="1279" d="M372,1556V1128q0-51-3-100t-7-82h12q35,58 86.5,96.5t117,58T716,1120q129,0 218-42t135-130.5T1115,718V0H916V691q0,132-58,198.5T680,956q-114,0-182-45.5T401,777T372,561V0H171V1556H372Z" />
      <glyph unicode="i" glyph-name="gid76" horiz-adv-x="544" d="M372,1102V0H171V1102H372Zm-99,417q48,0 82.5-28t34.5-91t-34.5-91.5T273,1280q-49,0-82.5,28.5T157,1400t33.5,91t82.5,28Z" />
      <glyph unicode="j" glyph-name="gid77" horiz-adv-x="544" d="M50-492q-51,0-93.5,7.5T-117-467v161q33-10 65-15t72-5q67,0 109,37t42,137V1102H372V-160q0-100-33.5-175t-105-116T50-492ZM157,1400q0,63 33.5,91t82.5,28q48,0 82.5-28t34.5-91t-34.5-91.5T273,1280q-49,0-82.5,28.5T157,1400Z" />
      <glyph unicode="k" glyph-name="gid78" horiz-adv-x="1125" d="M371,1556V776q0-46-3.5-104.5T361,564h7q23,30 61.5,79T498,726l352,376h232L640,629L1113,0H875L504,503L371,385V0H171V1556H371Z" />
      <glyph unicode="l" glyph-name="gid79" horiz-adv-x="544" d="M373,0H171V1556H373V0Z" />
      <glyph unicode="m" glyph-name="gid80" horiz-adv-x="1925" d="M1392,1122q183,0 276.5-95.5T1762,721V0H1563V696q0,130-53.5,195T1350,956q-150,0-216.5-90.5T1067,600V0H867V696q0,87-24,144.5T772,927T653,956q-103,0-164.5-44.5T399.5,780T372,567V0H171V1102H330l29-152h11q33,57 83.5,95T566,1102.5T697,1122q124,0 209-45t125-137h13q53,93 146.5,137.5T1392,1122Z" />
      <glyph unicode="n" glyph-name="gid81" horiz-adv-x="1279" d="M719,1122q191,0 293.5-96T1115,718V0H916V691q0,132-58,198.5T680,956q-171,0-239.5-101T372,562V0H171V1102H330l29-155h11q35,58 89,97t120.5,58.5T719,1122Z" />
      <glyph unicode="o" glyph-name="gid82" horiz-adv-x="1241" d="M1134,553q0-136-35.5-242.5t-103-180T833,18.5T618-20Q506-20 412.5,18.5T251,130.5t-105,180T109,553q0,181 62,308.5t177.5,194T624,1122q152,0 267-67t179-194t64-308Zm-819,0q0-127 32.5-218.5T447.5,194T622,145q105,0 173,49T895,334.5T927,553q0,126-32,216T795.5,907T620,955q-158,0-231.5-105.5T315,553Z" />
      <glyph unicode="p" glyph-name="gid83" horiz-adv-x="1264" d="M713,1122q201,0 321.5-142.5T1155,554q0-188-55.5-315.5t-156-193T708-20Q623-20 559,2.5t-109.5,60T373,143H360q4-39 8.5-90.5T373-40V-490H171V1102H336l27-158h10q31,49 76.5,89.5T560,1098t153,24ZM667,956q-106,0-169.5-41.5T404.5,791T373,585V553q0-132 28-222.5t93-138T669,145q94,0 156.5,51t93,144T949,556q0,187-69,293.5T667,956Z" />
      <glyph unicode="q" glyph-name="gid84" horiz-adv-x="1264" d="M890-490V-21q0,40 2.5,89t7.5,87H889Q844,81 761,30.5T547-20Q349-20 228.5,123T108,549q0,186 55.5,314T320,1056.5T555,1122q129,0 210.5-50.5T894,948h8l26,154h163V-490H890ZM598,143q108,0 172.5,41T865,307.5T897,514v35q0,200-66.5,303.5T596,956q-142,0-211.5-109.5T315,545q0-193 69.5-297.5T598,143Z" />
      <glyph unicode="r" glyph-name="gid85" horiz-adv-x="860" d="M701,1122q30,0 65-3.5t60-8.5L805,923q-24,6-55.5,10T691,937q-64,0-122-24T467,843.5t-69-111T373,583V0H171V1102H333l24-199h9q34,60 82.5,110t112,79.5T701,1122Z" />
      <glyph unicode="s" glyph-name="gid86" horiz-adv-x="987" d="M898,308q0-107-52.5-180.5T693,17T453-20Q337-20 253-2.5T101,48V226q73-35 169-62t188-27q129,0 186.5,41T702,289q0,41-23,72.5t-80.5,63T434,497q-105,41-179.5,82T141,678T102,828q0,143 114.5,218.5T519,1122q100,0 188.5-20T877,1046L812,891q-72,31-148,51.5T509,963q-103,0-157.5-33T297,839q0-45 25.5-75T408,705.5T570,638q101-38 174.5-79T858,459t40-151Z" />
      <glyph unicode="t" glyph-name="gid87" horiz-adv-x="770" d="M555,143q43,0 87,7.5T718,170V16Q684,1 627.5-9.5T512-20q-90,0-163,31T232.5,117T189,325V947H36v93l160,74l71,238H391V1102H710V947H391V328q0-93 44.5-139T555,143Z" />
      <glyph unicode="u" glyph-name="gid88" horiz-adv-x="1279" d="M1107,1102V0H946L918,151H907q-34-57-88-95T698-1T556-20Q429-20 340.5,22t-134,130.5T161,381v721H363V409q0-133 57.5-199T596,144q115,0 182.5,45.5t97,133T905,537v565h202Z" />
      <glyph unicode="v" glyph-name="gid89" horiz-adv-x="1059" d="M419,0L0,1102H213L448,445q23-65 45.5-142T524,176h7q10,51 34,128t46,141l234,657h214L639,0H419Z" />
      <glyph unicode="w" glyph-name="gid90" horiz-adv-x="1629" d="M1070,2L902,578q-11,39-23.5,86T854,758t-21.5,87.5T818,911h-8q-5-25-14-65.5t-20.5-88t-24-95.5T727,575L551,2H329L23,1103H228L379,526q15-58 29-120t24-117t15-94h8q5,26 12.5,64.5t16.5,81T503.5,423T523,493l186,610H927l179-609q13-44 27-98.5T1158,288t15-91h8q4,34 15,88t25,117.5T1251,526l153,577h202L1298,2H1070Z" />
      <glyph unicode="x" glyph-name="gid91" horiz-adv-x="1100" d="M424,564L50,1102H279L550,696l271,406h227L673,564L1068,0H839L550,431L259,0H32L424,564Z" />
      <glyph unicode="y" glyph-name="gid92" horiz-adv-x="1061" d="M2,1102H219L453,467q18-49 33.5-95.5t27-90T532,196h7q12,51 34,124t48,148l224,634h216L585-156q-39-105-94.5-180.5T359-452.5T179-493q-48,0-84.5,5.5T32-475v160q22-5 53.5-9t65.5-4q63,0 108.5,24.5t78,69.5T392-129L442,1L2,1102Z" />
      <glyph unicode="z" glyph-name="gid93" horiz-adv-x="970" d="M894,0H74V128L654,946H110v156H880V960L309,155H894V0Z" />
      <glyph unicode="{" glyph-name="gid94" horiz-adv-x="778" d="M708-324q-137,1-228,34.5T344.5-187T300-13V295q0,69-28.5,111.5t-84,62T51,488V651q81,1 136.5,20t84,61T300,844v310q0,105 46.5,173T484,1428.5T708,1462V1304q-69-2-118-20.5T515,1225t-26-105V820q0-102-55-163T268,577V565q113-19 167-80t54-163V17q0-65 25.5-104.5T589-145t119-19V-324Z" />
      <glyph unicode="|" glyph-name="gid95" horiz-adv-x="1126" d="M483,1555H642V-488H483V1555Z" />
      <glyph unicode="}" glyph-name="gid96" horiz-adv-x="778" d="M71-324v160q69,2 117.5,20T263-86.5T289,18V320q0,103 55,164t165,79v12q-111,19-165.5,80.5T289,818v303q0,66-25.5,105.5t-74.5,58T71,1304v158q137-1 227.5-34t135-101.5T478,1153V845q0-70 28.5-112.5t84.5-62T728,651V488q-81,0-137-19.5T506.5,407T478,296V-15q0-104-46.5-172.5T294.5-290T71-324Z" />
      <glyph unicode="~" glyph-name="gid97" horiz-adv-x="1171" d="M553,648q-72,32-122,44t-97,12q-57,0-120.5-34T99,584V754q51,53 113,80t136,27q61,0 120-13t149-52q74-31 123.5-43.5T835,740q59,0 121.5,34T1069,860V692q-48-52-110-80.5T822,583q-60,0-119,12.5T553,648Z" />
      <glyph unicode="&#xa0;" glyph-name="gid98" horiz-adv-x="532" />
      <glyph unicode="&#xa1;" glyph-name="gid99" horiz-adv-x="552" d="M201,662H345L393-373H154L201,662ZM408,976q0-76-38.5-107.5T275,837q-55,0-94,31.5T142,976q0,74 39,107.5t94,33.5q56,0 94.5-33.5T408,976Z" />
      <glyph unicode="&#xa2;" glyph-name="gid100" horiz-adv-x="1171" d="M725,1483V1320q82-3 153.5-20.5T1002,1258l-59-163q-59,23-124.5,39T696,1150q-106,0-176.5-45.5T414.5,969T380,743q0-134 35-221.5T518,391t170-43q89,0 157.5,17.5T981,412V240q-58-28-118.5-44.5T724,176V-20H583V182q-126,18-218,81.5t-141,181T175,741q0,185 50.5,305T368,1230t215,82v171H725Z" />
      <glyph unicode="&#xa3;" glyph-name="gid101" horiz-adv-x="1171" d="M690,1482q111,0 201.5-24t163.5-58l-68-158q-64,29-137,51t-151,22q-107,0-166.5-57.5T473,1070V806H879V656H473V454q0-81-20.5-134.5T399,233t-71-54h774V0H72V168q60,17 105,49.5T247.5,307T273,452V656H79V806H273v278q0,131 52.5,219T472,1436.5T690,1482Z" />
      <glyph unicode="&#xa4;" glyph-name="gid102" horiz-adv-x="1171" d="M184,723q0,61 19,118t51,105L119,1083l106,104l135-132q48,33 105.5,51T586,1124q61,0 116.5-18T807,1055l136,132l107-103L916,947q31-47 50.5-104.5T986,723T968,603.5T916,498l131-135L943,260L807,392q-47-31-103.5-49.5T586,324q-64,0-122,18T360,393L225,261L120,364L254,500q-32,48-51,105T184,723Zm148,0q0-71 34-128.5t91.5-91T585,470q72,0 130,34t92,91.5T841,723q0,72-34,130t-92,92.5T586,980T457.5,945.5T366,853T332,723Z" />
      <glyph unicode="&#xa5;" glyph-name="gid103" horiz-adv-x="1171" d="M584,771l349,691h209L732,697H978V560H681V395H978V259H681V0H487V259H189V395H487V560H189V697H431L25,1462H237L584,771Z" />
      <glyph unicode="&#xa6;" glyph-name="gid104" horiz-adv-x="1126" d="M483,1555H642V769H483v786Zm0-1256H642V-488H483V299Z" />
      <glyph unicode="&#xa7;" glyph-name="gid105" horiz-adv-x="1038" d="M135,807q0,98 48.5,160.5T295,1063q-72,39-113,95t-41,139q0,123 105.5,196T541,1566q110,0 191.5-20.5T891,1494l-58-144q-69,29-139.5,50T531,1421q-114,0-163.5-31T318,1301q0-39 25-69t82-58t152-63q101-38 175.5-82.5T867,925t40-142q0-103-44-168.5T758,514q70-38 108.5-92T905,290q0-142-116.5-222T465-12Q353-12 268.5,7T118,58V218q47-22 106-42.5T346,143t124-12q144,0 199,43t55,101q0,40-20,69.5t-75,59T470,472q-104,40-179,82.5T175.5,657T135,807Zm163,19q0-50 28-88.5T415.5,665T576,593l44-16q46,27 84,71.5T742,759q0,50-27,90.5t-92.5,76T439,998q-55-16-98-61T298,826Z" />
      <glyph unicode="&#xa8;" glyph-name="gid106" horiz-adv-x="1201" d="M302,1397q0,55 30,80.5t73,25.5t73.5-25.5T509,1397q0-54-30.5-80.5T405,1290t-73,26.5T302,1397Zm389,0q0,55 29.5,80.5T793,1503t74-25.5t31-80.5q0-54-31-80.5T793,1290t-72.5,26.5T691,1397Z" />
      <glyph unicode="&#xa9;" glyph-name="gid107" horiz-adv-x="1704" d="M852-20Q689-20 551.5,36t-239,157t-157,238.5T100,731q0,161 56,298.5t158,239t239.5,158T852,1483q157,0 293.5-56T1385,1269.5T1546,1031t58-300q0-162-56-299.5T1390.5,193T1152,36T852-20Zm32,291q-204,0-306.5,125.5T475,731q0,134 48.5,237.5t142,162.5T892,1190q65,0 130.5-16t122.5-45l-57-122q-50,26-99,39.5T894,1060q-126,0-195-88T630,731q0-159 62.5-244.5T891,401q49,0 107,13t110,34V321q-49-22-101-36T884,271ZM852,89q131,0 246,47.5t202,134T1436.5,474T1486,731q0,133-47.5,249T1306,1185t-200.5,139T852,1374t-254-47.5t-201.5-134T264,988.5T217,731q0-134 46.5-250.5T395.5,276T597,138.5T852,89Z" />
      <glyph unicode="&#xaa;" glyph-name="gid108" horiz-adv-x="738" d="M373,1479q134,0 201-59.5T641,1239V791H539l-25,93q-40-47-98.5-76.5T281,778q-66,0-115.5,22.5t-76,69T63,985q0,71 36.5,117.5t110,71T393,1202l108,4v40q0,63-39.5,90.5T359,1364q-52,0-105-15t-102-40l-49,105q56,28 124.5,46.5T373,1479Zm128-369l-98-4q-116-5-156.5-36.5T206,985q0-49 29-72t77-23q97,0 143,48t46,126v46Z" />
      <glyph unicode="&#xab;" glyph-name="gid109" horiz-adv-x="1076" d="M80,560L428,981l144-81L287,548L572,197L428,115L80,534v26Zm425,0L856,981l143-81L715,548L999,197L856,115L505,534v26Z" />
      <glyph unicode="&#xac;" glyph-name="gid110" horiz-adv-x="1171" d="M1065,800V259H910V644H99V800h966Z" />
      <glyph unicode="&#xad;" glyph-name="gid111" horiz-adv-x="659" d="M77,463V637H583V463H77Z" />
      <glyph unicode="&#xae;" glyph-name="gid112" horiz-adv-x="1704" d="M572,284v896H836q164,0 242-67t78-199q0-97-49.5-153.5T993,679l238-395H1061L857,637H722V284H572ZM722,760H831q82,0 127.5,40.5T1004,910q0,76-42,109.5T829,1053H722V760ZM852-20Q689-20 551.5,36t-239,157t-157,238.5T100,731q0,161 56,298.5t158,239t239.5,158T852,1483q157,0 293.5-56T1385,1269.5T1546,1031t58-300q0-162-56-299.5T1390.5,193T1152,36T852-20Zm0,109q131,0 246,47.5t202,134T1436.5,474T1486,731q0,133-47.5,249T1306,1185t-200.5,139T852,1374t-254-47.5t-201.5-134T264,988.5T217,731q0-134 46.5-250.5T395.5,276T597,138.5T852,89Z" />
      <glyph unicode="&#xaf;" glyph-name="gid113" horiz-adv-x="1024" d="M1030,1556H-6v146H1030V1556Z" />
      <glyph unicode="&#xb0;" glyph-name="gid114" horiz-adv-x="877" d="M438,843q-98,0-172.5,40t-116,112.5T108,1162q0,95 41,167t115,113t174,41q98,0 172.5-40.5t116.5-113T769,1162q0-94-42-166.5T610.5,883T438,843Zm2,133q89,0 137.5,51T626,1162q0,87-49.5,138.5T440,1352q-92,0-140-51.5T252,1162q0-84 47.5-135T440,976Z" />
      <glyph unicode="&#xb1;" glyph-name="gid115" horiz-adv-x="1171" d="M99,0V156h971V0H99ZM663,819h405V663H663V248H505V663H99V819H505v417H663V819Z" />
      <glyph unicode="&#xb2;" glyph-name="gid116" horiz-adv-x="728" d="M646,852H51V972l234,229q77,75 118.5,123t57.5,87t16,83q0,59-35,90.5T347,1616q-56,0-105.5-22.5T139,1528L58,1633q62,52 134.5,83.5T357,1748q130,0 206-64.5T639,1504q0-66-26-122t-78.5-113.5T404,1138L250,992H646V852Z" />
      <glyph unicode="&#xb3;" glyph-name="gid117" horiz-adv-x="728" d="M349,1747q138,0 213.5-63T638,1521q0-80-43.5-132.5T482,1315v-8q86-17 133.5-71T663,1102q0-119-86-192T311,837q-75,0-140.5,14T43,896v139q67-34 135.5-54T311,961q100,0 147,39.5T505,1109q0,67-53,101.5T294,1245H176v119H289q104,0 147.5,39T480,1503q0,58-38,88.5T343,1622q-59,0-111.5-21T124,1544L48,1646q62,45 133,73t168,28Z" />
      <glyph unicode="&#xb4;" glyph-name="gid118" horiz-adv-x="611" d="M530,1569v-20q-22-29-59.5-69.5t-82.5-85T298,1310t-82-69H82v25q32,38 71.5,91T231,1466.5T294,1569H530Z" />
      <glyph unicode="&#xb5;" glyph-name="gid119" horiz-adv-x="1288" d="M1116,1102V0H957L927,152H917q-33-55-77-93.5T737.5,0T604-20Q524-20 466,6T370,78h-7q3-24 5-61.5t3-83t1-94.5V-492H171V1102H372V407q0-129 59-196t179-67q116,0 182.5,45.5t95,133.5T916,537v565h200Z" />
      <glyph unicode="&#xb6;" glyph-name="gid120" horiz-adv-x="1341" d="M1130-260H1006V1426H803V-260H678V573q-31-9-69-13.5T532,555q-125,0-217.5,48T171,760t-51,290q0,191 55.5,301.5t155,157.5T563,1556h567V-260Z" />
      <glyph unicode="&#xb7;" glyph-name="gid121" horiz-adv-x="550" d="M142,716q0,76 38.5,107.5T274,855q56,0 95-31.5T408,716q0-74-39-108t-95-34q-55,0-93.5,34T142,716Z" />
      <glyph unicode="&#xb8;" glyph-name="gid122" horiz-adv-x="446" d="M425-277q0-101-73-158T126-492q-34,0-64,4T12-478v120q21-4 54-8t63-4q64,0 99.5,19.5T264-283q0,51-49.5,77T80-170L166,0H297L250-99q48-11 87.5-33T401-189.5T425-277Z" />
      <glyph unicode="&#xb9;" glyph-name="gid123" horiz-adv-x="728" d="M507,1729V852H346v536q0,34 1,68.5t2.5,67T353,1582q-18-19-43.5-40.5T258,1502l-101-73L80,1531l276,198H507Z" />
      <glyph unicode="&#xba;" glyph-name="gid124" horiz-adv-x="773" d="M710,1130q0-166-88-259T385,778q-141,0-230.5,91T65,1130q0,168 86.5,259T389,1480q97,0 168.5-41t112-119T710,1130Zm-504,0q0-115 42.5-174.5T386,896q94,0 137,59.5T566,1130t-42.5,173.5T387,1362t-137.5-57.5T206,1130Z" />
      <glyph unicode="&#xbb;" glyph-name="gid125" horiz-adv-x="1076" d="M997,534L646,115L504,197L788,549L504,900l142,81L997,561V534Zm-427,0L221,115L78,197L362,549L78,900l143,81L570,561V534Z" />
      <glyph unicode="&#xbc;" glyph-name="gid126" horiz-adv-x="1562" d="M277,0l861,1462h168L444,0H277Zm50,586v536q0,34 1,68.5t2.5,67T334,1316q-19-19-44-40.5T239,1235l-101-72L61,1265l275,197H487V586H327ZM1250,0V192H853V304l400,579h163V319h127V192H1416V0H1250ZM1000,319h250V515q0,44 1,97t4,102q-10-26-39-74t-51-80L1000,319Z" />
      <glyph unicode="&#xbd;" glyph-name="gid127" horiz-adv-x="1627" d="M236,0l862,1462h167L403,0H236Zm74,586v536q0,25 0.5,51t2,51.5t3,48.5t2.5,43q-20-19-45-40.5T222,1235l-101-72L44,1265l276,197H471V586H310ZM951,0V120l233,229q77,75 118.5,123t58,87t16.5,83q0,59-36,90.5T1246,764q-56,0-105.5-22.5T1039,676L958,781q61,52 134,83.5T1256,896q131,0 206.5-64.5T1538,652q0-66-26.5-122T1433,416.5T1303,286L1150,140h395V0H951Z" />
      <glyph unicode="&#xbe;" glyph-name="gid128" horiz-adv-x="1628" d="M365,0l862,1462h167L533,0H365ZM316,570q-75,0-141,14.5T47,630V768q68-34 136.5-53.5T317,695q99,0 146.5,39T511,843q0,67-53.5,101T298,978H181v120H293q104,0 148,39t44,100q0,58-38,88.5T348,1356q-60,0-111.5-21T129,1278L52,1379q62,46 134,74t168,28q138,0 213-63t75-164q0-79-43-131.5T487,1049v-9q86-17 134-70.5T669,836q0-120-86.5-193T316,570ZM1317,0V192H920V304l400,579h163V319h127V192H1483V0H1317ZM1068,319h249V515q0,44 1.5,97t4.5,102q-12-26-40.5-74T1232,560L1068,319Z" />
      <glyph unicode="&#xbf;" glyph-name="gid129" horiz-adv-x="907" d="M622,664V607q0-76-16-133T551.5,368T445,264q-74-60-118-102.5t-63-86T245-27q0-94 63-144.5T483-222q95,0 174,26t154,62l71-155q-87-46-187.5-75T470-393q-199,0-307.5,97.5T54-34q0,91 29,155.5T167,240T297,354q66,53 99.5,92.5T443,527t13,98v39H622Zm41,312q0-76-37.5-107.5T530,837q-54,0-93,31.5T398,976q0,75 39,108.5t93,33.5q58,0 95.5-33.5T663,976Z" />
      <glyph unicode="&#xc0;" glyph-name="gid130" horiz-adv-x="1325" d="M1108,0L946,435H373L213,0H0L558,1468H768L1323,0H1108ZM889,613L735,1044q-7,22-21.5,66t-29,91T661,1279q-10-41-23-86.5t-25.5-85T592,1044L436,613H889ZM597,1930q26-46 63-102.5T737.5,1718t73.5-91v-25H676q-37,29-82,69t-90,84.5t-82,85T363,1910v20H597Z" />
      <glyph unicode="&#xc1;" glyph-name="gid131" horiz-adv-x="1325" d="M1108,0L946,435H373L213,0H0L558,1468H768L1323,0H1108ZM889,613L735,1044q-7,22-21.5,66t-29,91T661,1279q-10-41-23-86.5t-25.5-85T592,1044L436,613H889Zm87,1317v-20q-22-29-59.5-69.5t-82.5-85T744,1671t-82-69H528v25q32,38 71.5,91T677,1827.5T740,1930H976Z" />
      <glyph unicode="&#xc2;" glyph-name="gid132" horiz-adv-x="1325" d="M1108,0L946,435H373L213,0H0L558,1468H768L1323,0H1108ZM889,613L735,1044q-7,22-21.5,66t-29,91T661,1279q-10-41-23-86.5t-25.5-85T592,1044L436,613H889ZM771,1929q26-45 71.5-101.5t95.5-110t88-92.5v-23H887q-54,34-112.5,83.5T662,1790q-54-55-111-103.5T440,1602H304v23q38,40 86.5,93.5T484,1828t72,101H771Z" />
      <glyph unicode="&#xc3;" glyph-name="gid133" horiz-adv-x="1325" d="M1108,0L946,435H373L213,0H0L558,1468H768L1323,0H1108ZM889,613L735,1044q-7,22-21.5,66t-29,91T661,1279q-10-41-23-86.5t-25.5-85T592,1044L436,613H889ZM275,1604q6,65 24.5,115t49,84t71,51.5T508,1872q45,0 86.5-17.5T674,1814t74-40.5t70-17.5q43,0 70,28.5t41,89.5h111q-13-127-74.5-198T807,1605q-44,0-84.5,18T644,1663.5T569.5,1704T497,1722q-44,0-70.5-28.5T386,1604H275Z" />
      <glyph unicode="&#xc4;" glyph-name="gid134" horiz-adv-x="1325" d="M1108,0L946,435H373L213,0H0L558,1468H768L1323,0H1108ZM889,613L735,1044q-7,22-21.5,66t-29,91T661,1279q-10-41-23-86.5t-25.5-85T592,1044L436,613H889ZM362,1758q0,55 30,80.5t73,25.5t73.5-25.5T569,1758q0-54-30.5-80.5T465,1651t-73,26.5T362,1758Zm389,0q0,55 29.5,80.5T853,1864t74-25.5t31-80.5q0-54-31-80.5T853,1651t-72.5,26.5T751,1758Z" />
      <glyph unicode="&#xc5;" glyph-name="gid135" horiz-adv-x="1325" d="M1108,0L946,435H373L213,0H0L558,1468H768L1323,0H1108ZM889,613L735,1044q-7,22-21.5,66t-29,91T661,1279q-10-41-23-86.5t-25.5-85T592,1044L436,613H889ZM659,1361q-101,0-164.5,59T431,1583q0,102 63.5,161T659,1803q98,0 165-58.5T891,1585q0-105-66.5-164.5T659,1361Zm0,108q50,0 82,30.5t32,83.5q0,52-33,82.5T659,1696t-81-30.5T545,1583q0-53 29.5-83.5T659,1469Z" />
      <glyph unicode="&#xc6;" glyph-name="gid136" horiz-adv-x="1821" d="M1706,0H915V435H413L209,0H-1L678,1462H1706V1286H1120V851h548V677H1120V177h586V0ZM491,613H915v669H797L491,613Z" />
      <glyph unicode="&#xc7;" glyph-name="gid137" horiz-adv-x="1294" d="M820,1306q-113,0-202.5-39.5T466,1151.5T371,970T338,731q0-177 52.5-306T549,226t267-70q96,0 183.5,17.5T1174,219V43q-84-32-173.5-47.5T791-20Q567-20 418.5,73T197,334.5T124,732q0,166 46,303.5t135,238t218.5,155T822,1483q110,0 214.5-23.5T1229,1394l-76-171q-73,33-156.5,58T820,1306ZM970-277q0-101-73-158T671-492q-34,0-64,4t-50,10v120q21-4 54-8t63-4q64,0 99.5,19.5T809-283q0,51-49.5,77T625-170L711,0H842L795-99q48-11 87.5-33T946-189.5T970-277Z" />
      <glyph unicode="&#xc8;" glyph-name="gid138" horiz-adv-x="1140" d="M1017,0H196V1462h821V1286H401V851H980V677H401V177h616V0ZM560,1930q26-46 63-102.5T700.5,1718t73.5-91v-25H639q-37,29-82,69t-90,84.5t-82,85T326,1910v20H560Z" />
      <glyph unicode="&#xc9;" glyph-name="gid139" horiz-adv-x="1140" d="M1017,0H196V1462h821V1286H401V851H980V677H401V177h616V0ZM939,1930v-20q-22-29-59.5-69.5t-82.5-85T707,1671t-82-69H491v25q32,38 71.5,91T640,1827.5T703,1930H939Z" />
      <glyph unicode="&#xca;" glyph-name="gid140" horiz-adv-x="1140" d="M1017,0H196V1462h821V1286H401V851H980V677H401V177h616V0ZM733,1929q26-45 71.5-101.5t95.5-110t88-92.5v-23H849q-54,34-112.5,83.5T624,1790q-54-55-111-103.5T402,1602H266v23q38,40 86.5,93.5T446,1828t72,101H733Z" />
      <glyph unicode="&#xcb;" glyph-name="gid141" horiz-adv-x="1140" d="M1017,0H196V1462h821V1286H401V851H980V677H401V177h616V0ZM325,1758q0,55 30,80.5t73,25.5t73.5-25.5T532,1758q0-54-30.5-80.5T428,1651t-73,26.5T325,1758Zm389,0q0,55 29.5,80.5T816,1864t74-25.5t31-80.5q0-54-31-80.5T816,1651t-72.5,26.5T714,1758Z" />
      <glyph unicode="&#xcc;" glyph-name="gid142" horiz-adv-x="599" d="M196,0V1462H401V0H196Zm6,1930q26-46 63-102.5T342.5,1718t73.5-91v-25H281q-37,29-82,69t-90,84.5t-82,85T-32,1910v20H202Z" />
      <glyph unicode="&#xcd;" glyph-name="gid143" horiz-adv-x="599" d="M196,0V1462H401V0H196ZM632,1930v-20q-22-29-59.5-69.5t-82.5-85T400,1671t-82-69H184v25q32,38 71.5,91T333,1827.5T396,1930H632Z" />
      <glyph unicode="&#xce;" glyph-name="gid144" horiz-adv-x="599" d="M196,0V1462H401V0H196ZM406,1929q26-45 71.5-101.5t95.5-110t88-92.5v-23H522q-54,34-112.5,83.5T297,1790q-54-55-111-103.5T75,1602H-61v23q38,40 86.5,93.5T119,1828t72,101H406Z" />
      <glyph unicode="&#xcf;" glyph-name="gid145" horiz-adv-x="599" d="M196,0V1462H401V0H196ZM3,1758q0,55 30,80.5t73,25.5t73.5-25.5T210,1758q0-54-30.5-80.5T106,1651t-73,26.5T3,1758Zm389,0q0,55 29.5,80.5T494,1864t74-25.5t31-80.5q0-54-31-80.5T494,1651t-72.5,26.5T392,1758Z" />
      <glyph unicode="&#xd0;" glyph-name="gid146" horiz-adv-x="1494" d="M642,1462q224,0 387-81.5t252-241T1370,745q0-247-91-412.5t-264-249T596,0H206V636H55V811H206v651H642Zm-16-172H410V811H748V636H410V174H589q283,0 424.5,142T1155,739q0,188-61.5,310T914,1230.5T626,1290Z" />
      <glyph unicode="&#xd1;" glyph-name="gid147" horiz-adv-x="1573" d="M1378,0H1132L375,1198h-8q3-54 7-118.5t6.5-135T384,802V0H196V1462H440L1194,270h7q-2,44-5,109t-5.5,137.5T1188,654v808h190V0ZM403,1604q6,65 24.5,115t49,84t71,51.5T636,1872q45,0 86.5-17.5T802,1814t74-40.5t70-17.5q43,0 70,28.5t41,89.5h111q-13-127-74.5-198T935,1605q-44,0-84.5,18T772,1663.5T697.5,1704T625,1722q-44,0-70.5-28.5T514,1604H403Z" />
      <glyph unicode="&#xd2;" glyph-name="gid148" horiz-adv-x="1602" d="M1479,733q0-169-43-307.5t-127.5-238T1097.5,34T802-20Q630-20 502.5,34T291,188T165.5,427T124,735q0,225 74,394t225.5,262.5T805,1485q222,0 372-93t226-261.5T1479,733ZM339,733q0-178 49.5-307.5t152-200T802,155q161,0 263,70.5t150,200T1263,733q0,270-110,422.5T805,1308q-160,0-263-69.5t-153-198T339,733ZM739,1930q26-46 63-102.5T879.5,1718t73.5-91v-25H818q-37,29-82,69t-90,84.5t-82,85T505,1910v20H739Z" />
      <glyph unicode="&#xd3;" glyph-name="gid149" horiz-adv-x="1602" d="M1479,733q0-169-43-307.5t-127.5-238T1097.5,34T802-20Q630-20 502.5,34T291,188T165.5,427T124,735q0,225 74,394t225.5,262.5T805,1485q222,0 372-93t226-261.5T1479,733ZM339,733q0-178 49.5-307.5t152-200T802,155q161,0 263,70.5t150,200T1263,733q0,270-110,422.5T805,1308q-160,0-263-69.5t-153-198T339,733Zm778,1197v-20q-22-29-59.5-69.5t-82.5-85T885,1671t-82-69H669v25q32,38 71.5,91T818,1827.5T881,1930h236Z" />
      <glyph unicode="&#xd4;" glyph-name="gid150" horiz-adv-x="1602" d="M1479,733q0-169-43-307.5t-127.5-238T1097.5,34T802-20Q630-20 502.5,34T291,188T165.5,427T124,735q0,225 74,394t225.5,262.5T805,1485q222,0 372-93t226-261.5T1479,733ZM339,733q0-178 49.5-307.5t152-200T802,155q161,0 263,70.5t150,200T1263,733q0,270-110,422.5T805,1308q-160,0-263-69.5t-153-198T339,733ZM912,1929q26-45 71.5-101.5t95.5-110t88-92.5v-23H1028q-54,34-112.5,83.5T803,1790q-54-55-111-103.5T581,1602H445v23q38,40 86.5,93.5T625,1828t72,101H912Z" />
      <glyph unicode="&#xd5;" glyph-name="gid151" horiz-adv-x="1602" d="M1479,733q0-169-43-307.5t-127.5-238T1097.5,34T802-20Q630-20 502.5,34T291,188T165.5,427T124,735q0,225 74,394t225.5,262.5T805,1485q222,0 372-93t226-261.5T1479,733ZM339,733q0-178 49.5-307.5t152-200T802,155q161,0 263,70.5t150,200T1263,733q0,270-110,422.5T805,1308q-160,0-263-69.5t-153-198T339,733Zm76,871q6,65 24.5,115t49,84t71,51.5T648,1872q45,0 86.5-17.5T814,1814t74-40.5t70-17.5q43,0 70,28.5t41,89.5h111q-13-127-74.5-198T947,1605q-44,0-84.5,18T784,1663.5T709.5,1704T637,1722q-44,0-70.5-28.5T526,1604H415Z" />
      <glyph unicode="&#xd6;" glyph-name="gid152" horiz-adv-x="1602" d="M1479,733q0-169-43-307.5t-127.5-238T1097.5,34T802-20Q630-20 502.5,34T291,188T165.5,427T124,735q0,225 74,394t225.5,262.5T805,1485q222,0 372-93t226-261.5T1479,733ZM339,733q0-178 49.5-307.5t152-200T802,155q161,0 263,70.5t150,200T1263,733q0,270-110,422.5T805,1308q-160,0-263-69.5t-153-198T339,733ZM503,1758q0,55 30,80.5t73,25.5t73.5-25.5T710,1758q0-54-30.5-80.5T606,1651t-73,26.5T503,1758Zm389,0q0,55 29.5,80.5T994,1864t74-25.5t31-80.5q0-54-31-80.5T994,1651t-72.5,26.5T892,1758Z" />
      <glyph unicode="&#xd7;" glyph-name="gid153" horiz-adv-x="1171" d="M927,1175l109-110L694,723l340-341L925,271L582,610L245,272L133,382L472,723L132,1062l112,113L584,833l343,342Z" />
      <glyph unicode="&#xd8;" glyph-name="gid154" horiz-adv-x="1602" d="M1479,733q0-169-43-307.5t-127.5-238T1097.5,34T802-20Q689-20 596,3.5T430,73L331-69L204,15L309,166Q215,266 169.5,410.5T124,735q0,225 74,394t225.5,262.5T805,1485q106,0 197-23.5t165-66.5l95,135l126-85l-102-144q95-98 144-242t49-326Zm-216,0q0,123-24,223t-72,172L538,229q51-35 117-54.5T802,155q161,0 263,70.5t150,200T1263,733Zm-924,0q0-120 23-218.5T431,343l629,895q-50,34-113.5,52T805,1308q-160,0-263-69.5t-153-198T339,733Z" />
      <glyph unicode="&#xd9;" glyph-name="gid155" horiz-adv-x="1507" d="M1323,1462V516q0-154-63.5-275T1068,50T746-20Q471-20 326.5,127.5T182,520v942H388V528q0-185 92.5-279T756,155q126,0 206,45.5t118.5,129T1119,528v934h204ZM691,1930q26-46 63-102.5T831.5,1718t73.5-91v-25H770q-37,29-82,69t-90,84.5t-82,85T457,1910v20H691Z" />
      <glyph unicode="&#xda;" glyph-name="gid156" horiz-adv-x="1507" d="M1323,1462V516q0-154-63.5-275T1068,50T746-20Q471-20 326.5,127.5T182,520v942H388V528q0-185 92.5-279T756,155q126,0 206,45.5t118.5,129T1119,528v934h204Zm-253,468v-20q-22-29-59.5-69.5t-82.5-85T838,1671t-82-69H622v25q32,38 71.5,91T771,1827.5T834,1930h236Z" />
      <glyph unicode="&#xdb;" glyph-name="gid157" horiz-adv-x="1507" d="M1323,1462V516q0-154-63.5-275T1068,50T746-20Q471-20 326.5,127.5T182,520v942H388V528q0-185 92.5-279T756,155q126,0 206,45.5t118.5,129T1119,528v934h204ZM864,1929q26-45 71.5-101.5t95.5-110t88-92.5v-23H980q-54,34-112.5,83.5T755,1790q-54-55-111-103.5T533,1602H397v23q38,40 86.5,93.5T577,1828t72,101H864Z" />
      <glyph unicode="&#xdc;" glyph-name="gid158" horiz-adv-x="1507" d="M1323,1462V516q0-154-63.5-275T1068,50T746-20Q471-20 326.5,127.5T182,520v942H388V528q0-185 92.5-279T756,155q126,0 206,45.5t118.5,129T1119,528v934h204ZM456,1758q0,55 30,80.5t73,25.5t73.5-25.5T663,1758q0-54-30.5-80.5T559,1651t-73,26.5T456,1758Zm389,0q0,55 29.5,80.5T947,1864t74-25.5t31-80.5q0-54-31-80.5T947,1651t-72.5,26.5T845,1758Z" />
      <glyph unicode="&#xdd;" glyph-name="gid159" horiz-adv-x="1178" d="M590,762l368,700h220L692,568V0H487V559L0,1462H224L590,762ZM905,1930v-20q-22-29-59.5-69.5t-82.5-85T673,1671t-82-69H457v25q32,38 71.5,91T606,1827.5T669,1930H905Z" />
      <glyph unicode="&#xde;" glyph-name="gid160" horiz-adv-x="1246" d="M1144,779q0-94-29.5-178t-96-148.5T842,351T571,314H401V0H196V1462H401V1213H602q285,0 413.5-114.5T1144,779ZM401,485H545q132,0 218,29t128.5,92T934,772q0,137-84.5,203T578,1041H401V485Z" />
      <glyph unicode="&#xdf;" glyph-name="gid161" horiz-adv-x="1320" d="M1100,1261q0-72-29-124t-71.5-91.5t-85-72t-71.5-63T814,843q0-30 16-53t57-53.5T1002,657q71-46 122.5-94.5T1204,455t28-142q0-112-48.5-186T1046,16.5T835-20Q738-20 665.5-3T538,46V220q36-21 83-40.5T721,148t105-12q107,0 156.5,45T1032,304q0,49-17.5,84.5t-59,71.5T840,542q-83,52-132,95.5T638,725T617,825q0,65 28,109.5t70,78t83.5,65.5t69.5,70t28,93q0,81-70.5,121.5T644,1403q-75,0-137-21.5t-98.5-71T372,1175V0H171V1178q0,139 62,224.5t168.5,125T644,1567t238-34.5T1042,1430t58-169Z" />
      <glyph unicode="&#xe0;" glyph-name="gid162" horiz-adv-x="1163" d="M593,1121q204,0 305-90.5T999,745V0H855L816,160h-8q-46-60-96-100T596.5,0T437-20Q337-20 259,16T136.5,124.5T92,309q0,168 129,255t391,95l190,8v62q0,129-57.5,182T584,964q-85,0-163-24.5T271,881l-64,146q78,40 177.5,67T593,1121ZM800,535l-154-7q-191-7-268.5-63.5T300,307q0-88 53-129t140-41q134,0 220.5,75.5T800,436v99ZM517,1569q26-46 63-102.5T657.5,1357t73.5-91v-25H596q-37,29-82,69t-90,84.5t-82,85T283,1549v20H517Z" />
      <glyph unicode="&#xe1;" glyph-name="gid163" horiz-adv-x="1163" d="M593,1121q204,0 305-90.5T999,745V0H855L816,160h-8q-46-60-96-100T596.5,0T437-20Q337-20 259,16T136.5,124.5T92,309q0,168 129,255t391,95l190,8v62q0,129-57.5,182T584,964q-85,0-163-24.5T271,881l-64,146q78,40 177.5,67T593,1121ZM800,535l-154-7q-191-7-268.5-63.5T300,307q0-88 53-129t140-41q134,0 220.5,75.5T800,436v99Zm97,1034v-20q-22-29-59.5-69.5t-82.5-85T665,1310t-82-69H449v25q32,38 71.5,91T598,1466.5T661,1569H897Z" />
      <glyph unicode="&#xe2;" glyph-name="gid164" horiz-adv-x="1163" d="M593,1121q204,0 305-90.5T999,745V0H855L816,160h-8q-46-60-96-100T596.5,0T437-20Q337-20 259,16T136.5,124.5T92,309q0,168 129,255t391,95l190,8v62q0,129-57.5,182T584,964q-85,0-163-24.5T271,881l-64,146q78,40 177.5,67T593,1121ZM800,535l-154-7q-191-7-268.5-63.5T300,307q0-88 53-129t140-41q134,0 220.5,75.5T800,436v99ZM691,1568q26-45 71.5-101.5t95.5-110t88-92.5v-23H807q-54,34-112.5,83.5T582,1429q-54-55-111-103.5T360,1241H224v23q38,40 86.5,93.5T404,1467t72,101H691Z" />
      <glyph unicode="&#xe3;" glyph-name="gid165" horiz-adv-x="1163" d="M593,1121q204,0 305-90.5T999,745V0H855L816,160h-8q-46-60-96-100T596.5,0T437-20Q337-20 259,16T136.5,124.5T92,309q0,168 129,255t391,95l190,8v62q0,129-57.5,182T584,964q-85,0-163-24.5T271,881l-64,146q78,40 177.5,67T593,1121ZM800,535l-154-7q-191-7-268.5-63.5T300,307q0-88 53-129t140-41q134,0 220.5,75.5T800,436v99ZM194,1243q6,65 24.5,115t49,84t71,51.5T427,1511q45,0 86.5-17.5T593,1453t74-40.5t70-17.5q43,0 70,28.5t41,89.5H959q-13-127-74.5-198T726,1244q-44,0-84.5,18T563,1302.5T488.5,1343T416,1361q-44,0-70.5-28.5T305,1243H194Z" />
      <glyph unicode="&#xe4;" glyph-name="gid166" horiz-adv-x="1163" d="M593,1121q204,0 305-90.5T999,745V0H855L816,160h-8q-46-60-96-100T596.5,0T437-20Q337-20 259,16T136.5,124.5T92,309q0,168 129,255t391,95l190,8v62q0,129-57.5,182T584,964q-85,0-163-24.5T271,881l-64,146q78,40 177.5,67T593,1121ZM800,535l-154-7q-191-7-268.5-63.5T300,307q0-88 53-129t140-41q134,0 220.5,75.5T800,436v99ZM283,1397q0,55 30,80.5t73,25.5t73.5-25.5T490,1397q0-54-30.5-80.5T386,1290t-73,26.5T283,1397Zm389,0q0,55 29.5,80.5T774,1503t74-25.5t31-80.5q0-54-31-80.5T774,1290t-72.5,26.5T672,1397Z" />
      <glyph unicode="&#xe5;" glyph-name="gid167" horiz-adv-x="1163" d="M593,1121q204,0 305-90.5T999,745V0H855L816,160h-8q-46-60-96-100T596.5,0T437-20Q337-20 259,16T136.5,124.5T92,309q0,168 129,255t391,95l190,8v62q0,129-57.5,182T584,964q-85,0-163-24.5T271,881l-64,146q78,40 177.5,67T593,1121ZM800,535l-154-7q-191-7-268.5-63.5T300,307q0-88 53-129t140-41q134,0 220.5,75.5T800,436v99ZM582,1241q-101,0-164.5,59T354,1463q0,102 63.5,161T582,1683q98,0 165-58.5T814,1465q0-105-66.5-164.5T582,1241Zm0,108q50,0 82,30.5t32,83.5q0,52-33,82.5T582,1576t-81-30.5T468,1463q0-53 29.5-83.5T582,1349Z" />
      <glyph unicode="&#xe6;" glyph-name="gid168" horiz-adv-x="1794" d="M1255,1122q135,0 233.5-61.5t151.5-173T1693,626V510H980q4-184 84.5-275.5T1294,143q101,0 182,20t165,59V53q-83-38-164.5-55.5T1286-20q-94,0-174,26.5t-142,78T866,212Q817,139 760.5,87T627.5,7.5T441-20q-99,0-178,36T138,124.5T92,309t55,187.5T312.5,613T589,659l187,8v74q0,122-58.5,172.5T559,964q-81,0-158.5-23.5T252,882l-64,145q77,41 179,67.5T573,1121q125,0 208.5-42T908,945q57,84 143.5,130.5T1255,1122ZM773,535l-146-7q-180-7-253.5-63.5T300,307q0-88 50.5-129T485,137q83,0 148,33.5t102.5,100T773,436v99Zm479,431q-117,0-187-78T985,659h504q0,91-25.5,160.5t-78.5,108T1252,966Z" />
      <glyph unicode="&#xe7;" glyph-name="gid169" horiz-adv-x="999" d="M614-20Q462-20 348,41T171.5,227.5T109,545q0,200 67,327.5T361.5,1061T633,1122q90,0 168.5-18T933,1059L873,896q-56,22-120.5,39T630,952q-106,0-175.5-46.5T350,769T315,547q0-128 34.5-216.5T451.5,196T620,150q89,0 160,20t131,51V44Q853,12 783-4T614-20ZM792-277q0-101-73-158T493-492q-34,0-64,4t-50,10v120q21-4 54-8t63-4q64,0 99.5,19.5T631-283q0,51-49.5,77T447-170L533,0H664L617-99q48-11 87.5-33T768-189.5T792-277Z" />
      <glyph unicode="&#xe8;" glyph-name="gid170" horiz-adv-x="1165" d="M603,1122q144,0 247-61.5T1008,887t55-264V509H315q3-177 91-271.5T653,143q105,0 187,20t170,59V53Q927,15 843.5-2.5T644-20Q484-20 363.5,44T176,233.5T109,543q0,182 61,311.5T342,1053t261,69Zm-1-156q-122,0-196-79.5T319,659H861q-1,91-29,160T747.5,927T602,966Zm-77,603q26-46 63-102.5T665.5,1357t73.5-91v-25H604q-37,29-82,69t-90,84.5t-82,85T291,1549v20H525Z" />
      <glyph unicode="&#xe9;" glyph-name="gid171" horiz-adv-x="1165" d="M603,1122q144,0 247-61.5T1008,887t55-264V509H315q3-177 91-271.5T653,143q105,0 187,20t170,59V53Q927,15 843.5-2.5T644-20Q484-20 363.5,44T176,233.5T109,543q0,182 61,311.5T342,1053t261,69Zm-1-156q-122,0-196-79.5T319,659H861q-1,91-29,160T747.5,927T602,966Zm302,603v-20q-22-29-59.5-69.5t-82.5-85T672,1310t-82-69H456v25q32,38 71.5,91T605,1466.5T668,1569H904Z" />
      <glyph unicode="&#xea;" glyph-name="gid172" horiz-adv-x="1165" d="M603,1122q144,0 247-61.5T1008,887t55-264V509H315q3-177 91-271.5T653,143q105,0 187,20t170,59V53Q927,15 843.5-2.5T644-20Q484-20 363.5,44T176,233.5T109,543q0,182 61,311.5T342,1053t261,69Zm-1-156q-122,0-196-79.5T319,659H861q-1,91-29,160T747.5,927T602,966Zm96,602q26-45 71.5-101.5t95.5-110t88-92.5v-23H814q-54,34-112.5,83.5T589,1429q-54-55-111-103.5T367,1241H231v23q38,40 86.5,93.5T411,1467t72,101H698Z" />
      <glyph unicode="&#xeb;" glyph-name="gid173" horiz-adv-x="1165" d="M603,1122q144,0 247-61.5T1008,887t55-264V509H315q3-177 91-271.5T653,143q105,0 187,20t170,59V53Q927,15 843.5-2.5T644-20Q484-20 363.5,44T176,233.5T109,543q0,182 61,311.5T342,1053t261,69Zm-1-156q-122,0-196-79.5T319,659H861q-1,91-29,160T747.5,927T602,966ZM291,1397q0,55 30,80.5t73,25.5t73.5-25.5T498,1397q0-54-30.5-80.5T394,1290t-73,26.5T291,1397Zm389,0q0,55 29.5,80.5T782,1503t74-25.5t31-80.5q0-54-31-80.5T782,1290t-72.5,26.5T680,1397Z" />
      <glyph unicode="&#xec;" glyph-name="gid174" horiz-adv-x="544" d="M372,0H171V1102H372V0ZM209,1569q26-46 63-102.5T349.5,1357t73.5-91v-25H288q-37,29-82,69t-90,84.5t-82,85T-25,1549v20H209Z" />
      <glyph unicode="&#xed;" glyph-name="gid175" horiz-adv-x="544" d="M372,0H171V1102H372V0ZM588,1569v-20q-22-29-59.5-69.5t-82.5-85T356,1310t-82-69H140v25q32,38 71.5,91T289,1466.5T352,1569H588Z" />
      <glyph unicode="&#xee;" glyph-name="gid176" horiz-adv-x="544" d="M372,0H171V1102H372V0Zm9,1568q26-45 71.5-101.5t95.5-110t88-92.5v-23H497q-54,34-112.5,83.5T272,1429q-54-55-111-103.5T50,1241H-86v23q38,40 86.5,93.5T94,1467t72,101H381Z" />
      <glyph unicode="&#xef;" glyph-name="gid177" horiz-adv-x="544" d="M372,0H171V1102H372V0ZM-26,1397q0,55 30,80.5T77,1503t73.5-25.5T181,1397q0-54-30.5-80.5T77,1290T4,1316.5T-26,1397Zm389,0q0,55 29.5,80.5T465,1503t74-25.5t31-80.5q0-54-31-80.5T465,1290t-72.5,26.5T363,1397Z" />
      <glyph unicode="&#xf0;" glyph-name="gid178" horiz-adv-x="1238" d="M444,1566q69-32 134-68.5T701,1419l232,138l79-115L817,1327q96-90 166.5-204.5t108.5-254T1130,565q0-190-61.5-320.5T891.5,47T615-20Q467-20 352,40T172.5,212T108,479t59.5,265.5T335,914.5T587,974q73,0 132-13t104.5-38.5T898,858l9,3q-32,112-95,206T666,1237L408,1086l-78,117l217,126q-41,28-86.5,55.5T368,1436l76,130ZM621,817q-107,0-175.5-39.5t-101-116T312,474q0-99 33-175T445.5,180.5T619,138q159,0 233,98.5T926,525q0,58-18,110t-55,93t-94.5,65T621,817Z" />
      <glyph unicode="&#xf1;" glyph-name="gid179" horiz-adv-x="1279" d="M719,1122q191,0 293.5-96T1115,718V0H916V691q0,132-58,198.5T680,956q-171,0-239.5-101T372,562V0H171V1102H330l29-155h11q35,58 89,97t120.5,58.5T719,1122ZM255,1243q6,65 24.5,115t49,84t71,51.5T488,1511q45,0 86.5-17.5T654,1453t74-40.5t70-17.5q43,0 70,28.5t41,89.5h111q-13-127-74.5-198T787,1244q-44,0-84.5,18T624,1302.5T549.5,1343T477,1361q-44,0-70.5-28.5T366,1243H255Z" />
      <glyph unicode="&#xf2;" glyph-name="gid180" horiz-adv-x="1241" d="M1134,553q0-136-35.5-242.5t-103-180T833,18.5T618-20Q506-20 412.5,18.5T251,130.5t-105,180T109,553q0,181 62,308.5t177.5,194T624,1122q152,0 267-67t179-194t64-308Zm-819,0q0-127 32.5-218.5T447.5,194T622,145q105,0 173,49T895,334.5T927,553q0,126-32,216T795.5,907T620,955q-158,0-231.5-105.5T315,553ZM558,1569q26-46 63-102.5T698.5,1357t73.5-91v-25H637q-37,29-82,69t-90,84.5t-82,85T324,1549v20H558Z" />
      <glyph unicode="&#xf3;" glyph-name="gid181" horiz-adv-x="1241" d="M1134,553q0-136-35.5-242.5t-103-180T833,18.5T618-20Q506-20 412.5,18.5T251,130.5t-105,180T109,553q0,181 62,308.5t177.5,194T624,1122q152,0 267-67t179-194t64-308Zm-819,0q0-127 32.5-218.5T447.5,194T622,145q105,0 173,49T895,334.5T927,553q0,126-32,216T795.5,907T620,955q-158,0-231.5-105.5T315,553ZM937,1569v-20q-22-29-59.5-69.5t-82.5-85T705,1310t-82-69H489v25q32,38 71.5,91T638,1466.5T701,1569H937Z" />
      <glyph unicode="&#xf4;" glyph-name="gid182" horiz-adv-x="1241" d="M1134,553q0-136-35.5-242.5t-103-180T833,18.5T618-20Q506-20 412.5,18.5T251,130.5t-105,180T109,553q0,181 62,308.5t177.5,194T624,1122q152,0 267-67t179-194t64-308Zm-819,0q0-127 32.5-218.5T447.5,194T622,145q105,0 173,49T895,334.5T927,553q0,126-32,216T795.5,907T620,955q-158,0-231.5-105.5T315,553ZM731,1568q26-45 71.5-101.5t95.5-110t88-92.5v-23H847q-54,34-112.5,83.5T622,1429q-54-55-111-103.5T400,1241H264v23q38,40 86.5,93.5T444,1467t72,101H731Z" />
      <glyph unicode="&#xf5;" glyph-name="gid183" horiz-adv-x="1241" d="M1134,553q0-136-35.5-242.5t-103-180T833,18.5T618-20Q506-20 412.5,18.5T251,130.5t-105,180T109,553q0,181 62,308.5t177.5,194T624,1122q152,0 267-67t179-194t64-308Zm-819,0q0-127 32.5-218.5T447.5,194T622,145q105,0 173,49T895,334.5T927,553q0,126-32,216T795.5,907T620,955q-158,0-231.5-105.5T315,553Zm-80,690q6,65 24.5,115t49,84t71,51.5T468,1511q45,0 86.5-17.5T634,1453t74-40.5t70-17.5q43,0 70,28.5t41,89.5h111q-13-127-74.5-198T767,1244q-44,0-84.5,18T604,1302.5T529.5,1343T457,1361q-44,0-70.5-28.5T346,1243H235Z" />
      <glyph unicode="&#xf6;" glyph-name="gid184" horiz-adv-x="1241" d="M1134,553q0-136-35.5-242.5t-103-180T833,18.5T618-20Q506-20 412.5,18.5T251,130.5t-105,180T109,553q0,181 62,308.5t177.5,194T624,1122q152,0 267-67t179-194t64-308Zm-819,0q0-127 32.5-218.5T447.5,194T622,145q105,0 173,49T895,334.5T927,553q0,126-32,216T795.5,907T620,955q-158,0-231.5-105.5T315,553Zm8,844q0,55 30,80.5t73,25.5t73.5-25.5T530,1397q0-54-30.5-80.5T426,1290t-73,26.5T323,1397Zm389,0q0,55 29.5,80.5T814,1503t74-25.5t31-80.5q0-54-31-80.5T814,1290t-72.5,26.5T712,1397Z" />
      <glyph unicode="&#xf7;" glyph-name="gid185" horiz-adv-x="1171" d="M99,644V800h971V644H99ZM584,245q-49,0-82.5,30.5T468,372q0,69 33.5,97T584,497q47,0 80.5-28T698,372q0-66-33.5-96.5T584,245Zm0,701q-49,0-82.5,30.5T468,1073q0,69 33.5,97t82.5,28q47,0 80.5-28t33.5-97q0-66-33.5-96.5T584,946Z" />
      <glyph unicode="&#xf8;" glyph-name="gid186" horiz-adv-x="1241" d="M1134,553q0-182-62.5-310T893,47.5T618-20Q542-20 477-3T356,47L273-69L153,13l90,124q-64,75-99,179T109,553q0,272 138,420.5T624,1122q76,0 143.5-18.5T890,1050l78,110l122-82l-87-120q62-73 96.5-174.5T1134,553Zm-819,0q0-74 11-135.5T360,308L790,907q-33,23-75.5,35.5T620,955q-158,0-231.5-105.5T315,553Zm612,0q0,69-10.5,128T885,786L457,190q31-22 73-33.5T622,145q105,0 173,49T895,334.5T927,553Z" />
      <glyph unicode="&#xf9;" glyph-name="gid187" horiz-adv-x="1279" d="M1107,1102V0H946L918,151H907q-34-57-88-95T698-1T556-20Q429-20 340.5,22t-134,130.5T161,381v721H363V409q0-133 57.5-199T596,144q115,0 182.5,45.5t97,133T905,537v565h202ZM576,1569q26-46 63-102.5T716.5,1357t73.5-91v-25H655q-37,29-82,69t-90,84.5t-82,85T342,1549v20H576Z" />
      <glyph unicode="&#xfa;" glyph-name="gid188" horiz-adv-x="1279" d="M1107,1102V0H946L918,151H907q-34-57-88-95T698-1T556-20Q429-20 340.5,22t-134,130.5T161,381v721H363V409q0-133 57.5-199T596,144q115,0 182.5,45.5t97,133T905,537v565h202ZM955,1569v-20q-22-29-59.5-69.5t-82.5-85T723,1310t-82-69H507v25q32,38 71.5,91T656,1466.5T719,1569H955Z" />
      <glyph unicode="&#xfb;" glyph-name="gid189" horiz-adv-x="1279" d="M1107,1102V0H946L918,151H907q-34-57-88-95T698-1T556-20Q429-20 340.5,22t-134,130.5T161,381v721H363V409q0-133 57.5-199T596,144q115,0 182.5,45.5t97,133T905,537v565h202ZM749,1568q26-45 71.5-101.5t95.5-110t88-92.5v-23H865q-54,34-112.5,83.5T640,1429q-54-55-111-103.5T418,1241H282v23q38,40 86.5,93.5T462,1467t72,101H749Z" />
      <glyph unicode="&#xfc;" glyph-name="gid190" horiz-adv-x="1279" d="M1107,1102V0H946L918,151H907q-34-57-88-95T698-1T556-20Q429-20 340.5,22t-134,130.5T161,381v721H363V409q0-133 57.5-199T596,144q115,0 182.5,45.5t97,133T905,537v565h202ZM341,1397q0,55 30,80.5t73,25.5t73.5-25.5T548,1397q0-54-30.5-80.5T444,1290t-73,26.5T341,1397Zm389,0q0,55 29.5,80.5T832,1503t74-25.5t31-80.5q0-54-31-80.5T832,1290t-72.5,26.5T730,1397Z" />
      <glyph unicode="&#xfd;" glyph-name="gid191" horiz-adv-x="1061" d="M2,1102H219L453,467q18-49 33.5-95.5t27-90T532,196h7q12,51 34,124t48,148l224,634h216L585-156q-39-105-94.5-180.5T359-452.5T179-493q-48,0-84.5,5.5T32-475v160q22-5 53.5-9t65.5-4q63,0 108.5,24.5t78,69.5T392-129L442,1L2,1102Zm844,467v-20q-22-29-59.5-69.5t-82.5-85T614,1310t-82-69H398v25q32,38 71.5,91T547,1466.5T610,1569H846Z" />
      <glyph unicode="&#xfe;" glyph-name="gid192" horiz-adv-x="1264" d="M1155,554q0-188-55-315.5T945.5,45.5T712-20Q626-20 561,2T450,60.5T373,142H360q3-19 6-52t5-67t2-57V-490H171V1556H373V1113q0-36-2.5-86.5T365,946h9q31,48 76.5,88T561,1098t152,24q201,0 321.5-144T1155,554Zm-206,2q0,200-68.5,300T668,956q-159,0-226-92.5T373,588V553q0-197 65-302.5T669,145q95,0 157,48t92.5,139.5T949,556Z" />
      <glyph unicode="&#xff;" glyph-name="gid193" horiz-adv-x="1061" d="M2,1102H219L453,467q18-49 33.5-95.5t27-90T532,196h7q12,51 34,124t48,148l224,634h216L585-156q-39-105-94.5-180.5T359-452.5T179-493q-48,0-84.5,5.5T32-475v160q22-5 53.5-9t65.5-4q63,0 108.5,24.5t78,69.5T392-129L442,1L2,1102Zm230,295q0,55 30,80.5t73,25.5t73.5-25.5T439,1397q0-54-30.5-80.5T335,1290t-73,26.5T232,1397Zm389,0q0,55 29.5,80.5T723,1503t74-25.5t31-80.5q0-54-31-80.5T723,1290t-72.5,26.5T621,1397Z" />
      <glyph unicode="&#x2013;" glyph-name="gid203" horiz-adv-x="1024" d="M82,466V635H942V466H82Z" />
      <glyph unicode="&#x2014;" glyph-name="gid204" horiz-adv-x="2048" d="M82,466V635H1966V466H82Z" />
      <glyph unicode="&#x2018;" glyph-name="gid205" horiz-adv-x="371" d="M39,961L27,983q18,73 46,156.5t61,167T200,1462H347q-20-78-40.5-167t-37-176T242,961H39Z" />
      <glyph unicode="&#x2019;" glyph-name="gid206" horiz-adv-x="371" d="M331,1462l15-22q-18-73-46-156t-61.5-166T172,961H26q15,58 30,123t29,132t25.5,129.5T130,1462H331Z" />
      <glyph unicode="&#x201a;" glyph-name="gid207" horiz-adv-x="522" d="M370,237l15-22q-18-73-46-156T277.5-107T211-264H65q15,58 30,123T124-9t25.5,129.5T169,237H370Z" />
      <glyph unicode="&#x201c;" glyph-name="gid208" horiz-adv-x="763" d="M739,1462q-21-78-41-167.5t-37-176T634,961H431l-15,22q18,73 46.5,156t62,166.5T592,1462H739Zm-393,0q-21-78-41-167.5t-37-176T241,961H39L27,983q18,73 45.5,156T133,1305.5T200,1462H346Z" />
      <glyph unicode="&#x201d;" glyph-name="gid209" horiz-adv-x="763" d="M723,1462l15-22q-18-74-46.5-157T630,1117.5T564,961H416q20,77 40.5,166T494,1303.5T521,1462H723Zm-393,0l14-22q-17-74-45.5-157T237,1117.5T171,961H26q15,58 30,123t28.5,132t25,129.5T128,1462H330Z" />
      <glyph unicode="&#x201e;" glyph-name="gid210" horiz-adv-x="891" d="M762,237l15-22q-18-74-46.5-157T669-107.5T603-264H455q20,77 40.5,166T533,78.5T560,237H762Zm-393,0l14-22q-17-74-45.5-157T276-107.5T210-264H65q15,58 30,123T123.5-9t25,129.5T167,237H369Z" />
      <glyph unicode="&#x2022;" glyph-name="gid211" horiz-adv-x="770" d="M153,748q0,94 30.5,151t83,82.5T385,1007t118.5-25.5t83-83T617,748q0-91-30.5-148.5t-83-84.5T385,488T266.5,515t-83,84T153,748Z" />
      <glyph unicode="&#x2039;" glyph-name="gid215" horiz-adv-x="650" d="M80,560L428,981l144-81L287,548L572,197L428,115L80,534v26Z" />
      <glyph unicode="&#x203a;" glyph-name="gid216" horiz-adv-x="650" d="M221,981L570,561V534L221,115L78,197L362,549L78,900l143,81Z" />
    </font>
</defs>
</svg>
