<?xml version="1.0" standalone="no"?>
<!DOCTYPE svg PUBLIC "-//W3C//DTD SVG 1.1//EN" "http://www.w3.org/Graphics/SVG/1.1/DTD/svg11.dtd">
<svg xmlns="http://www.w3.org/2000/svg">
  <defs>
    <font id="OpenSans" horiz-adv-x="1084">
      <font-face font-family="Open Sans SemiBold" units-per-em="2048" panose-1="0 0 0 0 0 0 0 0 0 0" ascent="2189" descent="-600" alphabetic="0" />
      <glyph unicode=" " glyph-name="gid3" horiz-adv-x="532" />
      <glyph unicode="!" glyph-name="gid4" horiz-adv-x="564" d="M371,446H194L146,1462H419L371,446ZM134,124q0,82 42.5,115.5T281,273q61,0 104-33.5T428,124q0-80-43-115.5T281-27Q219-27 176.5,8.5T134,124Z" />
      <glyph unicode="&quot;" glyph-name="gid5" horiz-adv-x="892" d="M364,1462L324,934H173l-39,528H364Zm394,0L719,934H568l-39,528H758Z" />
      <glyph unicode="#" glyph-name="gid6" horiz-adv-x="1323" d="M990,872L934,586h270V419H902L821,0H643l82,419H475L396,0H222l77,419H49V586H331l57,286H123v167H418l80,422H676l-80-422H848l81,422h173l-80-422h252V872H990ZM507,586H757l57,286H563L507,586Z" />
      <glyph unicode="$" glyph-name="gid7" horiz-adv-x="1171" d="M518-119V87q-124,2-228.5,22.5T109,163V376q77-36 190-65t219-33V653Q373,702 282.5,755T150,878.5T108,1048q0,102 51.5,175.5t144,116.5T518,1391v163H648V1394q111-3 205.5-24.5T1034,1310l-73-186q-75,30-156,49t-157,26V833q122-40 217.5-86t150-115.5T1070,450q0-147-108-242.5T648,93V-119H518ZM648,286q96,12 143,50.5T838,437q0,42-19.5,71t-61,52T648,605V286ZM518,882v313q-58-6-98-24t-60-47t-20-69q0-44 18-75t57.5-54T518,882Z" />
      <glyph unicode="%" glyph-name="gid8" horiz-adv-x="1769" d="M404,1483q161,0 244-119.5T731,1026q0-217-79.5-339T404,565q-157,0-239,122T83,1026q0,218 77.5,337.5T404,1483Zm1-164q-65,0-95.5-73T279,1025q0-147 30.5-221.5T405,729q66,0 98.5,74T536,1025q0,147-32,220.5T405,1319Zm981,143L575,0H382l811,1462h193Zm-27-564q161,0 244.5-119.5T1687,441q0-216-79.5-338T1359-19q-157,0-239,122t-82,338q0,218 77.5,337.5T1359,898Zm1-164q-65,0-95.5-73T1234,440q0-147 30.5-221.5T1360,144q67,0 99,73.5T1491,440q0,147-32,220.5T1360,734Z" />
      <glyph unicode="&amp;" glyph-name="gid9" horiz-adv-x="1514" d="M629,1484q113,0 198.5-37T961,1339.5t48-171.5q0-135-84-228T713,774l345-336q49,67 81,147.5T1194,755h243q-31-124-86-244.5T1212,290L1509,0H1208L1060,145Q998,95 927.5,58T774,0.5T591-20Q438-20 327,29T156.5,169.5T97,387q0,105 35.5,180.5T234,700.5T392,810q-50,57-87,111t-56.5,111.5T229,1156q0,102 50,175.5t140,113T629,1484ZM531,667q-58-37-100-74.5T366.5,510T344,405q0-103 72.5-163T604,182q101,0 177.5,30.5T915,289L531,667Zm94,631q-71,0-122.5-37T451,1146q0-63 33.5-118.5T578,908q105,58 156.5,114T786,1152q0,70-47,108t-114,38Z" />
      <glyph unicode="&apos;" glyph-name="gid10" horiz-adv-x="497" d="M364,1462L324,934H173l-39,528H364Z" />
      <glyph unicode="(" glyph-name="gid11" horiz-adv-x="649" d="M82,561q0,168 32.5,328T214,1194t169,268H588q-143-191-215.5-423T300,563q0-159 32-315T428-52.5T586-324H383Q281-204 214-62T114.5,238T82,561Z" />
      <glyph unicode=")" glyph-name="gid12" horiz-adv-x="649" d="M567,562q0-166-32-324T436.5-62T266-324H64Q158-197 222-52t96,301t32,315q0,162-32.5,320T221,1188.5T62,1462H266q104-123 170.5-268T535,889.5T567,562Z" />
      <glyph unicode="*" glyph-name="gid13" horiz-adv-x="1122" d="M670,1556l-40-382l384,109l30-213l-359-32L918,727L724,622L555,957L404,623L202,727l231,311L76,1071l34,212l377-109l-40,382H670Z" />
      <glyph unicode="+" glyph-name="gid14" horiz-adv-x="1171" d="M673,811h400V633H673V229H495V633H96V811H495v408H673V811Z" />
      <glyph unicode="," glyph-name="gid15" horiz-adv-x="557" d="M405,238l14-23q-18-72-46-155T312-106.5T245-264H73q21,81 40.5,169.5t36,175T176,238H405Z" />
      <glyph unicode="-" glyph-name="gid16" horiz-adv-x="659" d="M72,450V649H588V450H72Z" />
      <glyph unicode="." glyph-name="gid17" horiz-adv-x="561" d="M134,124q0,82 42.5,115.5T280,273t104.5-33.5T428,124q0-80-43.5-115.5T280-27T176.5,8.5T134,124Z" />
      <glyph unicode="/" glyph-name="gid18" horiz-adv-x="799" d="M783,1462L238,0H18L563,1462H783Z" />
      <glyph unicode="0" glyph-name="gid19" horiz-adv-x="1171" d="M1082,732q0-177-27.5-316.5T968,179T814,31T584-20Q415-20 305,69.5t-163,258T89,732t48.5,404.5T295,1395t289,90q170,0 280.5-89.5t164-258T1082,732Zm-756,0q0-185 24.5-309T432,237.5T584,176t152,61t82.5,185T844,732q0,184-25,308t-82,186.5T584,1289t-152.5-62.5t-81-186.5T326,732Z" />
      <glyph unicode="1" glyph-name="gid20" horiz-adv-x="1171" d="M783,0H547V941q0,47 1,94t2.5,92t4.5,86q-21-23-51.5-50T439,1107L271,973L153,1122l434,340H783V0Z" />
      <glyph unicode="2" glyph-name="gid21" horiz-adv-x="1171" d="M1082,0H92V177L471,561Q581,673 652,754.5T757.5,909T792,1068q0,106-61,160.5T570,1283q-95,0-175.5-37.5T228,1139L99,1294q61,52 130.5,95T385,1457.5T581,1483q139,0 240-49.5T976.5,1296t54.5-205q0-118-47-218T850,675.5T643,464L390,217V206h692V0Z" />
      <glyph unicode="3" glyph-name="gid22" horiz-adv-x="1171" d="M1026,1128q0-99-40-172T876.5,836.5T716,770v-7q175-22 264.5-110T1070,420q0-127-61-226.5T822,37T498-20Q379-20 277.5-1T85,60V269q93-46 198-71t199-25q183,0 261,68.5T821,431q0,78-40.5,128t-125,75T438,659H309V848H439q127,0 204,30.5T754.5,963T789,1089q0,94-61,146.5T547,1288q-74,0-134.5-17T301,1228t-97-56L91,1335q83,62 198,105t268,43q225,0 347-96.5T1026,1128Z" />
      <glyph unicode="4" glyph-name="gid23" horiz-adv-x="1171" d="M1135,321H937V0H705V321H40V499l668,967H937V516h198V321ZM705,516V879q0,45 1.5,91.5T710,1060t4,79.5t3,60.5h-8q-19-40-42-81.5T618,1038L258,516H705Z" />
      <glyph unicode="5" glyph-name="gid24" horiz-adv-x="1171" d="M589,914q141,0 248.5-50.5t167.5-148T1065,477q0-154-65-265.5T809,40T502-20Q387-20 287.5,0T116,60V272q75-42 180-68.5T497,177q102,0 175,30t112.5,92T824,456q0,126-80.5,194.5T492,719q-60,0-127.5-10.5T252,686L149,747l55,715H964V1255H411L379,891q36,8 86,15.5T589,914Z" />
      <glyph unicode="6" glyph-name="gid25" horiz-adv-x="1171" d="M94,623q0,129 18.5,254T176,1111t124.5,192T501,1433.5T792,1481q44,0 99-4t91-13V1269q-39,11-85.5,17t-92.5,6q-184,0-287-69.5t-147-190T319,757h12q30,50 75,89t110,62.5T667,932q128,0 223-53.5T1036.5,724T1088,479q0-155-58.5-267T863.5,40T608-20Q499-20 405.5,20T242,140T133,340.5T94,623ZM604,174q114,0 183.5,74.5T857,477q0,125-61.5,198T611,748q-84,0-147-36t-97.5-91T332,509q0-58 17-117t51-108.5T485,204t119-30Z" />
      <glyph unicode="7" glyph-name="gid26" horiz-adv-x="1171" d="M259,0L833,1256H74v206H1086V1301L512,0H259Z" />
      <glyph unicode="8" glyph-name="gid27" horiz-adv-x="1171" d="M585,1482q127,0 229-39.5T976,1325t60-193q0-89-36.5-155T901,861.5T762,774q86-42 158.5-96.5t117-127.5T1082,379q0-123-62.5-212.5T846,28.5T587-20Q428-20 316,27T146,161.5T88,371q0,101 40,175T235.5,674T384,765q-69,41-126,92.5t-90.5,119T134,1133q0,114 61,191.5T358.5,1442T585,1482ZM312,380q0-96 68-158t203-62q134,0 204,61t70,161q0,64-35.5,113t-95,87.5T595,654l-32,13q-78-33-134-74.5T342.5,499T312,380Zm271,921q-97,0-159.5-47.5T361,1117q0-63 30.5-108T474,931.5T589,871q61,27 110.5,59.5t79,78T808,1118q0,88-62.5,135.5T583,1301Z" />
      <glyph unicode="9" glyph-name="gid28" horiz-adv-x="1171" d="M1080,839q0-130-18.5-255t-64-234t-125-192.5T672,27T380-20q-43,0-99.5,4.5T188-3V193q38-11 85.5-17.5T368,169q185,0 288.5,69t147,190T853,703H841q-29-48-73-87.5t-109-63T501,529q-126,0-219.5,53t-145,154.5T85,981q0,155 59,267t167,172.5T565,1481q110,0 203.5-39.5t163.5-120t109-201T1080,839ZM568,1287q-111,0-181-74.5T317,984q0-125 60-198t184-73q86,0 148.5,35.5t97,90.5T841,951q0,59-16.5,118T774,1177t-85.5,79.5T568,1287Z" />
      <glyph unicode=":" glyph-name="gid29" horiz-adv-x="561" d="M134,124q0,82 42.5,115.5T280,273t104.5-33.5T428,124q0-80-43.5-115.5T280-27T176.5,8.5T134,124Zm0,856q0,83 42.5,117T280,1131t104.5-34T428,980q0-79-43.5-114.5T280,830T176.5,865.5T134,980Z" />
      <glyph unicode=";" glyph-name="gid30" horiz-adv-x="561" d="M396,238l15-23q-18-72-46.5-155T303-106.5T237-264H64q21,80 40.5,169T141,80.5T168,238H396ZM132,980q0,83 42.5,117T278,1131q62,0 105-34t43-117q0-79-43-114.5T278,830q-61,0-103.5,35.5T132,980Z" />
      <glyph unicode="&lt;" glyph-name="gid31" horiz-adv-x="1171" d="M1073,223L96,655V774l977,486V1066L340,723l733-307V223Z" />
      <glyph unicode="=" glyph-name="gid32" horiz-adv-x="1171" d="M102,833v176h965V833H102Zm0-399V611h965V434H102Z" />
      <glyph unicode="&gt;" glyph-name="gid33" horiz-adv-x="1171" d="M96,416L829,722L96,1066v194l977-486V655L96,223V416Z" />
      <glyph unicode="?" glyph-name="gid34" horiz-adv-x="931" d="M282,446v63q0,74 17,129t57,103.5T464,843q70,55 111.5,95t60,80.5T654,1113q0,85-57.5,129.5T435,1287q-92,0-173-26t-160-65L19,1372q91,50 197.5,80.5T451,1483q204,0 315.5-99T878,1123q0-89-28-152.5t-82.5-117T636,741q-63-50-96.5-86.5t-46-73.5T481,492V446H282ZM244,124q0,82 42.5,115.5T391,273q60,0 103-33.5T537,124q0-80-43-115.5T391-27Q329-27 286.5,8.5T244,124Z" />
      <glyph unicode="@" glyph-name="gid35" horiz-adv-x="1837" d="M1727,732q0-95-22-186.5t-67-165T1525.5,263T1366,219q-84,0-140,45t-73,111h-13q-40-65-110.5-110.5T857,219q-170,0-261.5,106.5T504,607q0,136 56,240.5T719.5,1012T963,1072q93,0 186.5-16.5T1297,1020l-20-411q-2-29-2.5-49.5T1274,531q0-97 31-129.5t73-32.5q56,0 94.5,49.5t58.5,132T1551,733q0,181-73.5,309T1276,1237t-292,67q-168,0-297.5-53t-218-149T335,874.5T290,585q0-194 69-329.5T562.5,50T891-20q121,0 241.5,26.5T1351,70V-91q-93-39-208-63T895-178q-247,0-422.5,90t-269,260T110,579q0,190 60.5,350.5t174.5,280T620.5,1395T983,1461q217,0 385-88.5T1631.5,1121T1727,732ZM694,603q0-122 50-178t136-56q110,0 158,81t56,213l12,241q-26,7-61,11.5T970,920q-100,0-160.5-45.5t-88-118T694,603Z" />
      <glyph unicode="A" glyph-name="gid36" horiz-adv-x="1354" d="M1098,0L955,406H396L253,0H0L544,1468H810L1353,0H1098ZM893,612L754,1012q-8,26-23,73.5t-30,97T676,1266q-10-41-24.5-91.5t-28-94.5T603,1012L463,612H893Z" />
      <glyph unicode="B" glyph-name="gid37" horiz-adv-x="1350" d="M192,1462H627q283,0 427-82t144-283q0-84-29.5-151.5t-85.5-111T945,776V766q85-15 151.5-53t105-109T1240,420q0-134-63.5-228T995.5,49T717,0H192V1462ZM432,859H662q163,0 226,53t63,155q0,104-74.5,150T640,1263H432V859Zm0-194V201H685q168,0 236,65t68,176q0,68-30.5,118T859,637.5T673,665H432Z" />
      <glyph unicode="C" glyph-name="gid38" horiz-adv-x="1298" d="M815,1279q-105,0-187.5-38T488,1131.5t-87-173T371,730q0-170 48-292.5t146-188T813,184q93,0 181,18t182,49V47Q1087,12 996-4T786-20Q562-20 414.5,73t-220,262T122,731q0,166 46,304t134,238.5t217.5,155T816,1483q110,0 216.5-24.5T1230,1389l-84-198q-76,36-159,62t-172,26Z" />
      <glyph unicode="D" glyph-name="gid39" horiz-adv-x="1501" d="M1379,745q0-247-92-412.5t-267-249T598,0H192V1462H642q227,0 392-81.5t255-241T1379,745Zm-250-7q0,180-56.5,296t-166,172.5T637,1263H432V201H602q265,0 396,135t131,402Z" />
      <glyph unicode="E" glyph-name="gid40" horiz-adv-x="1143" d="M1020,0H192V1462h828V1260H432V863H983V662H432V203h588V0Z" />
      <glyph unicode="F" glyph-name="gid41" horiz-adv-x="1091" d="M430,0H192V1462h826V1260H430V804H980V603H430V0Z" />
      <glyph unicode="G" glyph-name="gid42" horiz-adv-x="1486" d="M782,794h546V60Q1213,22 1090,1T814-20Q591-20 436.5,68.5T202,325.5T122,732q0,229 89,397.5t259,261T882,1483q119,0 230.5-23.5T1317,1395l-84-198q-74,35-166,59t-191,24q-157,0-270.5-68T431,1020.5T370,729q0-163 49-286T572.5,251.5T843,183q83,0 141,9t107,20V589H782V794Z" />
      <glyph unicode="H" glyph-name="gid43" horiz-adv-x="1539" d="M1345,0H1106V660H432V0H192V1462H432V864h674v598h239V0Z" />
      <glyph unicode="I" glyph-name="gid44" horiz-adv-x="625" d="M192,0V1462H432V0H192Z" />
      <glyph unicode="J" glyph-name="gid45" horiz-adv-x="614" d="M10-407q-55,0-96.5,6.5T-158-383v201q32-8 69-14t79-6q55,0 100,21t71.5,76T188,50V1462H428V58q0-163-52-265.5t-146-151T10-407Z" />
      <glyph unicode="K" glyph-name="gid46" horiz-adv-x="1307" d="M1307,0H1031L576,664L432,547V0H192V1462H432V763q44,54 89,108t90,108l412,483h271L748,822L1307,0Z" />
      <glyph unicode="L" glyph-name="gid47" horiz-adv-x="1113" d="M192,0V1462H432V204h621V0H192Z" />
      <glyph unicode="M" glyph-name="gid48" horiz-adv-x="1887" d="M823,0L402,1221h-9q3-41 7-112t7-152t3-155V0H192V1462H529L934,295h6l419,1167h336V0H1466V814q0,67 2.5,145t6,148t5.5,112h-8L1035,0H823Z" />
      <glyph unicode="N" glyph-name="gid49" horiz-adv-x="1604" d="M1412,0H1117L401,1167h-9q4-59 7.5-125t6-136T410,764V0H192V1462H485L1200,303h7q-2,51-5,117t-5.5,136.5T1193,693v769h219V0Z" />
      <glyph unicode="O" glyph-name="gid50" horiz-adv-x="1612" d="M1490,733q0-169-42.5-307.5T1320,187.5T1107,34T807-20Q632-20 503.5,34t-213,154T164,427T122,735q0,226 74.5,394.5t227,262T809,1485q228,0 379-93t226.5-261.5T1490,733ZM374,733q0-169 46-292.5t141.5-190T807,184q151,0 246,66.5t140,190T1238,733q0,257-102.5,402.5T809,1281q-150,0-246.5-66T420,1026.5T374,733Z" />
      <glyph unicode="P" glyph-name="gid51" horiz-adv-x="1259" d="M617,1462q283,0 413-116t130-325q0-95-29.5-180.5t-96.5-151T857.5,586T588,548H432V0H192V1462H617Zm-16-199H432V748H563q113,0 192,26.5T875,859t41,153q0,127-76.5,189T601,1263Z" />
      <glyph unicode="Q" glyph-name="gid52" horiz-adv-x="1612" d="M1490,733q0-171-44-312T1314,180T1092,29l348-377H1120L845-19q-10,0-19.5-0.5T807-20Q632-20 503.5,34t-213,154T164,427T122,735q0,226 74.5,394.5t227,262T809,1485q228,0 379-93t226.5-261.5T1490,733ZM374,733q0-169 46-292.5t141.5-190T807,184q151,0 246,66.5t140,190T1238,733q0,257-102.5,402.5T809,1281q-150,0-246.5-66T420,1026.5T374,733Z" />
      <glyph unicode="R" glyph-name="gid53" horiz-adv-x="1308" d="M603,1462q189,0 312.5-46t184-140t60.5-239q0-108-40-184T1015,727T876,647L1291,0H1020L667,586H432V0H192V1462H603Zm-16-200H432V784H598q167,0 242.5,62T916,1029q0,127-80.5,180T587,1262Z" />
      <glyph unicode="S" glyph-name="gid54" horiz-adv-x="1126" d="M1036,398q0-130-63.5-224T790.5,30T508-20q-80,0-153,9T217.5,15.5T100,58V284q89-39 199-70.5T523,182q93,0 154.5,24.5t91.5,70T799,383q0,65-35,110T658.5,575.5T482,656q-72,29-137.5,66T228,809T147.5,927.5T118,1089q0,124 59.5,212t168,135T599,1483q115,0 216.5-24t199.5-68l-76-193q-90,37-174.5,59T592,1279q-76,0-129-23t-80.5-64.5T355,1093q0-64 31.5-107.5t98-79.5T656,826q121-50 205.5-105T991,589.5T1036,398Z" />
      <glyph unicode="T" glyph-name="gid55" horiz-adv-x="1157" d="M699,0H458V1258H30v204H1126V1258H699V0Z" />
      <glyph unicode="U" glyph-name="gid56" horiz-adv-x="1521" d="M1340,1462V516q0-153-64.5-274T1081,50.5T754-20Q473-20 326.5,127.5T180,520v942H420V541q0-183 86-270t257-87q118,0 192.5,41.5t110,122T1101,542v920h239Z" />
      <glyph unicode="V" glyph-name="gid57" horiz-adv-x="1276" d="M1276,1462L765,0H511L0,1462H246L554,546q14-40 30.5-97t31-115T638,231q8,45 22.5,103T691,449t30,98l309,915h246Z" />
      <glyph unicode="W" glyph-name="gid58" horiz-adv-x="1936" d="M1921,1462L1539,0H1277L1033,876q-9,32-20,76t-21.5,90t-18,84.5T963,1186q-2-21-9-59t-16.5-83.5t-20.5-90T897,875L657,0H396L15,1462H256L467,605q10-41 20.5-88.5t20-95.5T525,327.5T538,245q5,38 13,84.5t17.5,95t20,93.5T610,599l238,863h234l243-866q11-37 21.5-83t20.5-94t18-93t13-81q7,49 18,112t25,128t28,120l210,857h242Z" />
      <glyph unicode="X" glyph-name="gid59" horiz-adv-x="1275" d="M1271,0H998L630,599L260,0H3L489,758L36,1462H301L641,908l338,554h257L781,751L1271,0Z" />
      <glyph unicode="Y" glyph-name="gid60" horiz-adv-x="1212" d="M606,795l347,667h259L726,568V0H487V559L0,1462H261L606,795Z" />
      <glyph unicode="Z" glyph-name="gid61" horiz-adv-x="1179" d="M1115,0H64V165L808,1258H87v204H1095V1298L351,204h764V0Z" />
      <glyph unicode="[" glyph-name="gid62" horiz-adv-x="674" d="M623-324H155V1462H623V1289H366V-149H623V-324Z" />
      <glyph unicode="\" glyph-name="gid63" horiz-adv-x="799" d="M237,1462L783,0H562L17,1462H237Z" />
      <glyph unicode="]" glyph-name="gid64" horiz-adv-x="674" d="M51-149H308V1289H51v173H520V-324H51v175Z" />
      <glyph unicode="^" glyph-name="gid65" horiz-adv-x="1171" d="M64,535l438,937H622l486-937H914L566,1229L256,535H64Z" />
      <glyph unicode="_" glyph-name="gid66" horiz-adv-x="870" d="M874-315H-4v131H874V-315Z" />
      <glyph unicode="`" glyph-name="gid67" horiz-adv-x="655" d="M352,1569q27-46 66-102t81-109t74-91v-26H416q-38,28-85,68.5t-95.5,85t-89,85T82,1549v20H352Z" />
      <glyph unicode="a" glyph-name="gid68" horiz-adv-x="1188" d="M602,1128q210,0 317.5-93T1027,745V0H860L815,157h-8q-47-60-97-99T594.5-0.5T435-20q-99,0-177,36.5T135,128T90,318q0,171 127.5,257T603,670l192,7v58q0,115-53.5,164T591,948q-83,0-161-24T278,865l-76,166q81,43 184.5,70T602,1128ZM794,529l-143-5q-176-6-247-60T333,316q0-82 49-119.5T511,159q122,0 202.5,69.5T794,433v96Z" />
      <glyph unicode="b" glyph-name="gid69" horiz-adv-x="1275" d="M403,1556V1181q0-65-3.5-127.5T393,956h10q45,72 125.5,121.5T735,1127q197,0 317-144.5T1172,555q0-188-55-316T962.5,45.5T729-20Q603-20 525.5,26.5T404,135H387L344,0H168V1556H403ZM673,936q-100,0-158.5-40T430,776.5T403,575V554q0-185 58.5-283T675,173q123,0 189,99.5T930,558q0,188-65.5,283T673,936Z" />
      <glyph unicode="c" glyph-name="gid70" horiz-adv-x="1017" d="M614-20Q457-20 342,41T165,228T103,548q0,202 68,330t188.5,189T636,1128q99,0 179.5-19.5T952,1061L882,873q-61,25-125,42T634,932q-97,0-161.5-43t-96-128T345,550q0-122 32-205.5t95-126T627,176q91,0 163,22t136,57V51Q863,15 791-2.5T614-20Z" />
      <glyph unicode="d" glyph-name="gid71" horiz-adv-x="1275" d="M540-20Q342-20 222.5,124.5T103,551q0,285 121.5,431T545,1128q84,0 147-22.5T800.5,1045T878,960h11q-5,31-11.5,89.5T871,1158v398h236V0H923L881,151H871q-30-48-75.5-86.5T687.5,3T540-20Zm66,191q151,0 213,87t64,261v31q0,186-60,285.5T604,935q-127,0-193.5-102.5T344,547t66.5-279.5T606,171Z" />
      <glyph unicode="e" glyph-name="gid72" horiz-adv-x="1180" d="M609,1128q148,0 254-61t163-173t57-268V500H344q4-161 86.5-248T662,165q106,0 190.5,20.5T1027,246V55Q944,16 858-2T652-20Q489-20 365.5,43.5T172.5,233T103,546q0,186 63,316t177,198t266,68Zm0-177q-111,0-179.5-72T349,668H853q-1,83-27.5,147t-80,100T609,951Z" />
      <glyph unicode="f" glyph-name="gid73" horiz-adv-x="741" d="M721,928H452V0H217V928H36v113l181,69v77q0,141 44.5,224t128,119.5T589,1567q76,0 139-12.5T834,1526l-61-178q-34,11-76,20.5t-90,9.5q-80,0-117.5-50T452,1182v-75H721V928Z" />
      <glyph unicode="g" glyph-name="gid74" horiz-adv-x="1135" d="M484-492q-225,0-345,81T19-184Q19-82 83-11.5T266,86q-45,20-77.5,62.5T156,243q0,62 35,106t105,85q-87,37-139.5,120.5T104,751q0,120 51,204.5t149,129T541,1129q30,0 65.5-3.5t66-8T719,1108h383V977L914,942q27-38 43-86.5T973,750q0-172-118.5-270.5T528,381q-50,2-97,8q-36-22-55-48.5T357,281q0-27 19-43.5T432.5,213t91.5-8H715q182,0 278-77t96-226q0-189-156-291.5T484-492Zm9,165q123,0 207,24t127,68.5T870-129q0,54-27,83T762-6T628,5H454Q389,5 339-15.5T261.5-75T234-169q0-76 67.5-117T493-327Zm46,862q103,0 153,56.5T742,751q0,112-51.5,168T538,975q-99,0-150.5-57T336,749q0-101 51.5-157.5T539,535Z" />
      <glyph unicode="h" glyph-name="gid75" horiz-adv-x="1301" d="M403,1556V1165q0-61-3.5-119T392,956h13q35,58 86,95.5T605.5,1108T741,1127q127,0 216-42.5T1093.5,953T1141,722V0H906V678q0,129-53,193.5T689,936q-107,0-169.5-44.5T430,760.5T403,550V0H168V1556H403Z" />
      <glyph unicode="i" glyph-name="gid76" horiz-adv-x="571" d="M403,1107V0H168V1107H403ZM287,1531q54,0 93.5-29T420,1402q0-70-39.5-99.5T287,1273q-56,0-94.5,29.5T154,1402q0,71 38.5,100t94.5,29Z" />
      <glyph unicode="j" glyph-name="gid77" horiz-adv-x="571" d="M57-492q-52,0-99,7.5T-121-467v188q34-10 66-15t73-5q65,0 107.5,36T168-126V1107H403V-147q0-101-35.5-179t-112-122T57-492Zm97,1894q0,71 38.5,100t94.5,29q54,0 93.5-29T420,1402q0-70-39.5-99.5T287,1273q-56,0-94.5,29.5T154,1402Z" />
      <glyph unicode="k" glyph-name="gid78" horiz-adv-x="1173" d="M403,1556V804q0-51-4-111.5T391,579h5q26,35 62.5,82T528,743l338,364h270L693,631L1165,0H889L535,486L403,373V0H168V1556H403Z" />
      <glyph unicode="l" glyph-name="gid79" horiz-adv-x="571" d="M404,0H168V1556H404V0Z" />
      <glyph unicode="m" glyph-name="gid80" horiz-adv-x="1954" d="M1419,1128q186,0 280.5-96T1794,724V0H1559V682q0,126-49,190t-149,64q-140,0-201.5-89.5T1098,587V0H863V682q0,84-21.5,140.5t-65.5,85T665,936q-97,0-154.5-44T428,762.5T403,553V0H168V1107H351l33-149h13q34,58 84.5,95.5t112.5,56T723,1128q124,0 209-43.5T1059,952h18q52,90 145,133t197,43Z" />
      <glyph unicode="n" glyph-name="gid81" horiz-adv-x="1301" d="M745,1128q187,0 291.5-96.5T1141,722V0H906V678q0,129-53,193.5T689,936q-161,0-223.5-99T403,550V0H168V1107H351l33-150h13q36,58 89.5,95.5t120,56.5T745,1128Z" />
      <glyph unicode="o" glyph-name="gid82" horiz-adv-x="1250" d="M1148,556q0-138-36-245T1007,130.5T841,18.5T622-20Q508-20 413,18.5t-164.5,112T141,311T103,556q0,183 63.5,310.5T348,1061t281,67q153,0 270-67t183-195t66-310Zm-803,0q0-121 29.5-207T466,217.5T626,172t160,45.5T877,349t29,207T877,761.5t-91,129T625,935q-146,0-213-98T345,556Z" />
      <glyph unicode="p" glyph-name="gid83" horiz-adv-x="1275" d="M736,1128q197,0 316.5-144T1172,556q0-188-55.5-316.5t-155-194T730-20Q646-20 584,2T478,59.5T404,137H390q5-40 9.5-88.5T404-40V-491H168V1107H360l33-153h11q31,47 75.5,87t108,63.5T736,1128ZM673,936q-97,0-155.5-38.5T432.5,782T404,589V556q0-123 25.5-208.5t85-130T676,173q86,0 142.5,47T903,354t28,205q0,179-63.5,278T673,936Z" />
      <glyph unicode="q" glyph-name="gid84" horiz-adv-x="1275" d="M871-491V-21q0,40 2.5,87t8.5,86H870Q825,79 745,29.5T536-20Q341-20 222,124.5T103,552q0,188 55,316t154.5,194T544,1128q127,0 206.5-49.5T878,957h8l26,150h195V-491H871ZM606,169q100,0 160,38t87,115.5T882,515v36q0,188-61,286T604,935q-132,0-196-102.5T344,548q0-184 64.5-281.5T606,169Z" />
      <glyph unicode="r" glyph-name="gid85" horiz-adv-x="884" d="M729,1128q28,0 61-3t57-8L825,897q-21,6-51.5,9T719,909q-63,0-120-20.5t-101-62T429,723T404,579V0H168V1107H352l32-195h11q33,59 82,108t112.5,78.5T729,1128Z" />
      <glyph unicode="s" glyph-name="gid86" horiz-adv-x="997" d="M912,316q0-109-53-184T704.5,18.5T456-20Q340-20 256.5-3.5T99,47V250q79-37 177.5-64T463,159q116,0 167,36.5T681,293q0,36-20.5,64.5t-76,59T422,490q-105,42-177,84T136,675.5T99,828q0,147 116.5,223.5T524,1128q102,0 192.5-20.5T894,1048L820,871q-75,33-150.5,54.5T516,947q-91,0-138.5-28T330,839q0-39 23-66t79.5-54T590,652q99-38 171.5-79.5T873,471t39-155Z" />
      <glyph unicode="t" glyph-name="gid87" horiz-adv-x="810" d="M580,170q46,0 91,8.5T753,199V21Q714,4 652-8T523-20q-94,0-169,31.5T235,120T191,333V928H40v105l162,83l77,237H427V1107H744V928H427V336q0-84 42-125t111-41Z" />
      <glyph unicode="u" glyph-name="gid88" horiz-adv-x="1301" d="M1133,1107V0H948L916,149H903q-35-57-89-94.5T694-1.5T555-20Q430-20 341.5,22.5T206,154T159,384v723H395V428q0-129 52.5-193T611,171q107,0 170,44t89.5,130T897,556v551h236Z" />
      <glyph unicode="v" glyph-name="gid89" horiz-adv-x="1094" d="M421,0L0,1107H249L477,457q22-62 40-134t25-121h8q7,51 27,122.5T618,457l228,650h248L673,0H421Z" />
      <glyph unicode="w" glyph-name="gid90" horiz-adv-x="1670" d="M1073,1L933,516q-10,38-24,92T881,719.5T855.5,826T838,902h-8q-5-27-16-76T789,719T761.5,606T737,512L590,1H332L22,1108H260L404,558q14-56 27.5-121T455,313t15-97h8q4,27 11,68.5t16,87t18,86T540,523l170,585H967l163-585q11-38 24-95.5t23.5-115T1191,217h8q4,34 14.5,92.5t24.5,125T1267,558l147,550h234L1336,1H1073Z" />
      <glyph unicode="x" glyph-name="gid91" horiz-adv-x="1128" d="M413,566L43,1107H311L564,718l254,389h267L713,566L1104,0H835L564,415L292,0H25L413,566Z" />
      <glyph unicode="y" glyph-name="gid92" horiz-adv-x="1096" d="M1,1107H257L484,475q15-43 27.5-84.5t22-81.5T549,229h6q10,52 28.5,116.5T625,475l218,632h253L621-152Q580-260 520.5-336.5T380-452.5T195-492q-50,0-87,5.5T45-475v188q21-5 53-9t66-4q63,0 109,25t78,70.5T404-101L443,3L1,1107Z" />
      <glyph unicode="z" glyph-name="gid93" horiz-adv-x="980" d="M909,0H68V145L627,926H102v181H893V947L345,181H909V0Z" />
      <glyph unicode="{" glyph-name="gid94" horiz-adv-x="788" d="M714-324q-150,1-242,33T338-192.5T296-24V287q0,68-29,109t-85,60T44,475V664q82,0 138,18.5t85,60T296,851v313q0,103 43,169t135.5,97.5T714,1462V1282q-64-2-110-18t-70-52.5T510,1112V812q0-99-56.5-158T285,576V564q113-17 169-76.5T510,329V26q0-63 24-99.5t70-52T714-142V-324Z" />
      <glyph unicode="|" glyph-name="gid95" horiz-adv-x="1127" d="M474,1554H653V-480H474V1554Z" />
      <glyph unicode="}" glyph-name="gid96" horiz-adv-x="788" d="M75-324v182q63,2 108.5,17.5t70,52T278,27V328q0,99 57,158.5T503,563v12q-112,19-168.5,78T278,811v302q0,63-24,99.5T184.5,1265T75,1282v180q149,0 241-32t134-98t42-169V852q0-68 29-109.5t85-60T744,664V475q-82,0-138-19t-85-60T492,288V-25q0-102-43-168.5T314-292T75-324Z" />
      <glyph unicode="~" glyph-name="gid97" horiz-adv-x="1171" d="M552,637q-73,32-124,44.5T330,694q-57,0-120-35T96,573V763q50,54 112.5,81T347,871q61,0 120-12.5T619,807q74-32 124.5-44T839,751q59,0 121.5,34.5T1073,871V682q-49-53-111-81T823,573q-60,0-119,12.5T552,637Z" />
      <glyph unicode="&#xa0;" glyph-name="gid98" horiz-adv-x="532" />
      <glyph unicode="&#xa1;" glyph-name="gid99" horiz-adv-x="564" d="M190,644H368L416-371H142L190,644ZM428,967q0-82-43-116T280,817q-60,0-103,34T134,967q0,79 43,114.5T280,1117q62,0 105-35.5T428,967Z" />
      <glyph unicode="&#xa2;" glyph-name="gid100" horiz-adv-x="1171" d="M731,1483V1322q87-4 158.5-22.5T1015,1256l-69-187q-64,25-128,41.5T695,1127q-98,0-162-42.5t-96-128T405,743q0-126 32.5-208.5t96-123T689,371t160.5,18.5T989,439V239q-59-29-121-45.5T730,174V-20H577V180q-129,19-221.5,83t-142,182T164,741q0,188 51.5,307.5t144,183.5T577,1314v169H731Z" />
      <glyph unicode="&#xa3;" glyph-name="gid101" horiz-adv-x="1171" d="M693,1482q111,0 205-23.5t169-57.5l-77-182q-65,29-137,49.5T708,1289q-94,0-149.5-51.5T503,1068V828H899V655H503V472q0-78-21.5-130t-55-83.5T356,206h755V0H75V195q59,19 102.5,51T245,332t24,138V655H81V828H269v250q0,137 55,226.5T475,1438t218,44Z" />
      <glyph unicode="&#xa4;" glyph-name="gid102" horiz-adv-x="1171" d="M186,723q0,59 17.5,113.5T250,937L117,1071l120,119l132-131q46,30 102,47t114,17q59,0 112-16.5T798,1058l133,132l121-117L920,939q29-45 47-100.5T985,723q0-59-16.5-114T920,507l129-132L931,258L798,388q-45-29-99.5-45.5T585,326q-60,0-116,16T368,389L237,260L119,377L250,509q-30,47-47,101T186,723Zm167,0q0-64 31-117t84-83.5T585,492q65,0 118.5,31t85,83.5T820,723q0,66-31.5,119t-85,84.5T585,958q-64,0-117-31.5T384,842T353,723Z" />
      <glyph unicode="&#xa5;" glyph-name="gid103" horiz-adv-x="1171" d="M584,801l321,661h244L747,703H977V553H696V397H977V246H696V0H472V246H190V397H472V553H190V703H415L19,1462H265L584,801Z" />
      <glyph unicode="&#xa6;" glyph-name="gid104" horiz-adv-x="1127" d="M474,1554H653V758H474v796Zm0-1238H653V-480H474V316Z" />
      <glyph unicode="&#xa7;" glyph-name="gid105" horiz-adv-x="1024" d="M131,805q0,95 45,157t106,96q-70,40-109,96.5T134,1291q0,126 107.5,201T536,1567q108,0 191.5-21.5T891,1490l-67-159q-68,30-139,52.5T528,1406q-103,0-148.5-28T334,1295q0-37 24-65.5t77.5-55.5T577,1113q100-37 173-82.5T863,925t40-143q0-102-41-165.5T762,517q68-39 104-92.5T902,294q0-143-117-225.5T462-14Q351-14 266,5T114,59V234q49-23 108.5-44T345,156t120-13q134,0 184,40t50,96q0,38-18.5,65.5t-70,56T461,467q-104,41-177.5,84t-113,103.5T131,805Zm183,20q0-47 27-84t84.5-70.5T576,601l34-13q41,26 74.5,67T718,757q0,48-24.5,86T608,915.5T438,986q-49-15-86.5-57.5T314,825Z" />
      <glyph unicode="&#xa8;" glyph-name="gid106" horiz-adv-x="1215" d="M295,1400q0,60 33,87.5t81,27.5t82.5-27.5T526,1400q0-58-34.5-87T409,1284t-81,29t-33,87Zm393,0q0,60 33.5,87.5T803,1515t82.5-27.5T920,1400q0-58-34.5-87T803,1284t-81.5,29T688,1400Z" />
      <glyph unicode="&#xa9;" glyph-name="gid107" horiz-adv-x="1704" d="M852-20Q689-20 551.5,36t-239,157t-157,238.5T100,731q0,160 56.5,297T315,1267t239,159t298,57q157,0 293.5-56T1385,1269.5T1546,1031t58-300q0-162-55.5-299.5T1391.5,193t-239-157T852-20Zm32,288q-206,0-308.5,127T473,731q0,135 48.5,239t142,163.5T892,1193q64,0 129.5-16t122.5-45l-58-127q-50,26-98.5,40T894,1059q-124,0-192.5-87.5T633,731q0-158 61-243t197-85q49,0 107,13t109,34V318q-49-22-100.5-36T884,268ZM852,97q130,0 243,46.5t199,132T1428.5,477T1477,731q0,131-46.5,246t-131,203T1101,1317.5T852,1367t-249.5-47T403,1187.5T271.5,986T225,731q0-135 46-250.5T401,279T600,145T852,97Z" />
      <glyph unicode="&#xaa;" glyph-name="gid108" horiz-adv-x="754" d="M385,1479q138,0 206-64.5T659,1228V782H546l-27,99q-41-51-100.5-81T284,770q-69,0-120,23T85.5,863T58,982q0,74 38,121t113.5,71T394,1202l106,4v32q0,58-37.5,85.5T363,1351q-51,0-104.5-16T152,1294L98,1409q59,29 131.5,49.5T385,1479Zm115-376l-99-5q-107-5-143-37t-36-78t27-67t69-21q91,0 136.5,45.5T500,1060v43Z" />
      <glyph unicode="&#xab;" glyph-name="gid109" horiz-adv-x="1138" d="M81,565L436,997l169-94L322,553L605,202L436,108L81,538v27Zm452,0L890,997l169-94L776,553l283-351L890,108L533,538v27Z" />
      <glyph unicode="&#xac;" glyph-name="gid110" horiz-adv-x="1171" d="M1071,811V256H894V633H96V811h975Z" />
      <glyph unicode="&#xad;" glyph-name="gid111" horiz-adv-x="659" d="M72,450V649H588V450H72Z" />
      <glyph unicode="&#xae;" glyph-name="gid112" horiz-adv-x="1704" d="M568,284v899H835q165,0 243-68.5T1156,914q0-97-49-153T995,680l237-396H1057L856,634H724V284H568ZM724,761H830q82,0 125.5,41T999,910q0,75-40,108t-131,33H724V761ZM852-20Q689-20 551.5,36t-239,157t-157,238.5T100,731q0,160 56.5,297T315,1267t239,159t298,57q157,0 293.5-56T1385,1269.5T1546,1031t58-300q0-162-55.5-299.5T1391.5,193t-239-157T852-20Zm0,117q130,0 243,46.5t199,132T1428.5,477T1477,731q0,131-46.5,246t-131,203T1101,1317.5T852,1367t-249.5-47T403,1187.5T271.5,986T225,731q0-135 46-250.5T401,279T600,145T852,97Z" />
      <glyph unicode="&#xaf;" glyph-name="gid113" horiz-adv-x="1024" d="M1030,1556H-6v164H1030V1556Z" />
      <glyph unicode="&#xb0;" glyph-name="gid114" horiz-adv-x="877" d="M438,826q-100,0-176.5,41.5T142,983T99,1154q0,96 42.5,170.5t119,116.5T438,1483t177-42t119.5-116T778,1154T734.5,983T615,867.5T438,826Zm1,152q82,0 129,48t47,128q0,83-48,131t-128,48q-82,0-129.5-48T262,1154q0-80 47-128t130-48Z" />
      <glyph unicode="&#xb1;" glyph-name="gid115" horiz-adv-x="1171" d="M96,0V177h978V0H96ZM673,844h400V666H673V262H495V666H96V844H495v408H673V844Z" />
      <glyph unicode="&#xb2;" glyph-name="gid116" horiz-adv-x="744" d="M665,852H53V988l230,226q72,70 111,115.5t54.5,82T464,1489q0,52-31.5,79.5T348,1596q-50,0-97.5-22T150,1508L55,1629q62,53 137.5,86T366,1748q131,0 208.5-64T652,1503q0-65-25-120t-76-112T421,1141L284,1012H665V852Z" />
      <glyph unicode="&#xb3;" glyph-name="gid117" horiz-adv-x="744" d="M358,1747q134,0 211.5-62.5T647,1520q0-77-42.5-128.5T487,1316v-9q91-19 139-74.5T674,1100q0-120-87-191.5T318,837q-75,0-141,15T48,899v156q67-36 134.5-57.5T318,976q91,0 134,35.5t43,98.5q0,59-47,92.5T298,1236H183v133H288q104,0 143.5,37.5T471,1498q0,51-34,79.5T346,1606q-56,0-104.5-20T137,1528L52,1643q62,46 135,75t171,29Z" />
      <glyph unicode="&#xb4;" glyph-name="gid118" horiz-adv-x="655" d="M573,1569v-20q-24-29-65-69.5t-89-85t-95-85T239,1241H82v26q33,38 73.5,91t80,109T302,1569H573Z" />
      <glyph unicode="&#xb5;" glyph-name="gid119" horiz-adv-x="1309" d="M1142,1107V0H959L924,151H912q-30-55-71.5-93t-96-58T620-20Q547-20 492,5.5T401,75h-7q3-22 5-61.5t3-86t1-91.5V-492H168V1107H403V427q0-127 54-191.5T623,171q107,0 169,44.5T880,346t26,210v551h236Z" />
      <glyph unicode="&#xb6;" glyph-name="gid120" horiz-adv-x="1341" d="M1142-260H1006V1403H815V-260H678V568q-31-9-68-13.5T532,550q-125,0-218.5,48T169,755t-51,293q0,192 55.5,303t156,158T563,1556h579V-260Z" />
      <glyph unicode="&#xb7;" glyph-name="gid121" horiz-adv-x="561" d="M134,718q0,82 42.5,115.5T280,867t104.5-33.5T428,718q0-80-43.5-115.5T280,567T176.5,602.5T134,718Z" />
      <glyph unicode="&#xb8;" glyph-name="gid122" horiz-adv-x="437" d="M423-268q0-106-71-165T121-492q-38,0-70,5T-4-476v137q24-6 60-11t66-5q52,0 82.5,18T235-276q0,46-45,73T57-165L141,0H293L252-86q46-12 84.5-35T399-180.5T423-268Z" />
      <glyph unicode="&#xb9;" glyph-name="gid123" horiz-adv-x="744" d="M533,1729V852H346v506q0,32 1,69.5t3,72t4,56.5q-17-17-41.5-39.5T265,1477l-93-69L84,1519l284,210H533Z" />
      <glyph unicode="&#xba;" glyph-name="gid124" horiz-adv-x="780" d="M719,1126q0-169-89.5-262.5T388,770q-143,0-234.5,92.5T62,1126q0,170 88.5,262T392,1480q97,0 170.5-41.5t115-120.5T719,1126Zm-495,0q0-111 39.5-167.5T390,902q86,0 125.5,56.5T555,1126q0,110-39,165t-126,55q-86,0-126-54.5T224,1126Z" />
      <glyph unicode="&#xbb;" glyph-name="gid125" horiz-adv-x="1138" d="M1058,539L700,108L532,202L814,553L532,903l168,94l358-432V539Zm-454,0L248,108L80,202L362,553L80,903l168,94L604,565V539Z" />
      <glyph unicode="&#xbc;" glyph-name="gid126" horiz-adv-x="1608" d="M291,0l845,1462h192L483,0H291Zm27,586v506q0,32 1,69t2.5,72t3.5,57q-16-17-41-39.5T236,1211l-93-69L56,1253l284,209H504V586H318ZM1273,0V179H881V304l395,579h187V319h126V179H1463V0H1273ZM1040,319h233V505q0,43 1.5,94t4.5,100q-11-27-38.5-76T1192,543L1040,319Z" />
      <glyph unicode="&#xbd;" glyph-name="gid127" horiz-adv-x="1682" d="M264,0l845,1462h191L455,0H264Zm42,586v506q0,24 0.5,51t2,54.5t3,51.5t2.5,41q-17-17-41.5-39.5T225,1211l-93-69L45,1253l284,209H493V586H306ZM990,0V136l230,226q72,70 111.5,115.5t55,82T1402,637q0,52-32,80t-84,28q-51,0-98.5-22.5T1087,656L993,777q62,53 137.5,86T1303,896q131,0 209-64t78-181q0-65-25.5-120T1488,419T1358,289L1221,160h381V0H990Z" />
      <glyph unicode="&#xbe;" glyph-name="gid128" horiz-adv-x="1663" d="M374,0l845,1462h191L566,0H374ZM331,570q-74,0-140,15.5T62,633V789q67-37 134.5-58T331,710q91,0 134.5,35T509,844q0,59-47.5,92.5T312,970H196v133H301q105,0 144,37t39,92q0,51-33.5,79.5T359,1340q-56,0-104.5-20T150,1262L66,1377q62,46 135,75t171,29q133,0 210.5-63T660,1253q0-76-42-127.5T500,1050v-10q91-19 139.5-74T688,834q0-120-87.5-192T331,570ZM1328,0V179H936V304l395,579h187V319h126V179H1518V0H1328ZM1096,319h232V505q0,43 1.5,94t4.5,100q-12-27-39-76t-48-80L1096,319Z" />
      <glyph unicode="&#xbf;" glyph-name="gid129" horiz-adv-x="931" d="M650,645V582q0-73-17-128.5t-56.5-104T469,247q-70-54-112-94T296.5,72.5T278-23q0-84 58-129t161-45q93,0 173.5,26.5T830-105l84-177q-91-49-197-80T481-393q-203,0-315,99T54-32q0,88 28.5,151.5t83,117T297,350q64,50 97,86t45,73t12,89v47H650Zm38,322q0-82-41.5-116T541,817q-59,0-102.5,34T395,967q0,79 43.5,115T541,1118q64,0 105.5-36T688,967Z" />
      <glyph unicode="&#xc0;" glyph-name="gid130" horiz-adv-x="1354" d="M1098,0L955,406H396L253,0H0L544,1468H810L1353,0H1098ZM893,612L754,1012q-8,26-23,73.5t-30,97T676,1266q-10-41-24.5-91.5t-28-94.5T603,1012L463,612H893ZM617,1925q27-46 66-102t81-109t74-91v-26H681q-38,28-85,68.5t-95.5,85t-89,85T347,1905v20H617Z" />
      <glyph unicode="&#xc1;" glyph-name="gid131" horiz-adv-x="1354" d="M1098,0L955,406H396L253,0H0L544,1468H810L1353,0H1098ZM893,612L754,1012q-8,26-23,73.5t-30,97T676,1266q-10-41-24.5-91.5t-28-94.5T603,1012L463,612H893Zm124,1313v-20q-24-29-65-69.5t-89-85t-95-85T683,1597H526v26q33,38 73.5,91t80,109T746,1925h271Z" />
      <glyph unicode="&#xc2;" glyph-name="gid132" horiz-adv-x="1354" d="M1098,0L955,406H396L253,0H0L544,1468H810L1353,0H1098ZM893,612L754,1012q-8,26-23,73.5t-30,97T676,1266q-10-41-24.5-91.5t-28-94.5T603,1012L463,612H893ZM810,1925q27-46 72.5-102t95-109.5T1065,1622v-25H905q-54,34-114.5,81.5T677,1781q-54-55-112.5-102T453,1597H294v25q38,39 87,92t94,109t72,102H810Z" />
      <glyph unicode="&#xc3;" glyph-name="gid133" horiz-adv-x="1354" d="M1098,0L955,406H396L253,0H0L544,1468H810L1353,0H1098ZM893,612L754,1012q-8,26-23,73.5t-30,97T676,1266q-10-41-24.5-91.5t-28-94.5T603,1012L463,612H893ZM280,1598q6,70 26,122.5t52.5,88t75,53.5t92.5,18q44,0 84.5-17t79-39.5t75-39.5t70.5-17q39,0 66.5,28t41.5,87h123q-12-138-79-210.5T820,1599q-42,0-82.5,17.5T659,1656t-75,39t-72,17q-40,0-67.5-28T404,1598H280Z" />
      <glyph unicode="&#xc4;" glyph-name="gid134" horiz-adv-x="1354" d="M1098,0L955,406H396L253,0H0L544,1468H810L1353,0H1098ZM893,612L754,1012q-8,26-23,73.5t-30,97T676,1266q-10-41-24.5-91.5t-28-94.5T603,1012L463,612H893ZM363,1756q0,60 33,87.5t81,27.5t82.5-27.5T594,1756q0-58-34.5-87T477,1640t-81,29t-33,87Zm393,0q0,60 33.5,87.5T871,1871t82.5-27.5T988,1756q0-58-34.5-87T871,1640t-81.5,29T756,1756Z" />
      <glyph unicode="&#xc5;" glyph-name="gid135" horiz-adv-x="1354" d="M1098,0L955,406H396L253,0H0L544,1468H810L1353,0H1098ZM893,612L754,1012q-8,26-23,73.5t-30,97T676,1266q-10-41-24.5-91.5t-28-94.5T603,1012L463,612H893ZM675,1350q-104,0-169.5,60T440,1577q0,105 65,165t170,60q100,0 169.5-60T914,1579q0-108-68.5-168.5T675,1350Zm0,118q47,0 77.5,29.5T783,1577q0,49-31,78t-77,29t-77-29t-31-78q0-50 27.5-79.5T675,1468Z" />
      <glyph unicode="&#xc6;" glyph-name="gid136" horiz-adv-x="1864" d="M1747,0H929V406H431L245,0H-1L670,1462H1747V1260H1169V863h540V662H1169V203h578V0ZM520,612H929v642H808L520,612Z" />
      <glyph unicode="&#xc7;" glyph-name="gid137" horiz-adv-x="1298" d="M815,1279q-105,0-187.5-38T488,1131.5t-87-173T371,730q0-170 48-292.5t146-188T813,184q93,0 181,18t182,49V47Q1087,12 996-4T786-20Q562-20 414.5,73t-220,262T122,731q0,166 46,304t134,238.5t217.5,155T816,1483q110,0 216.5-24.5T1230,1389l-84-198q-76,36-159,62t-172,26ZM979-268q0-106-71-165T677-492q-38,0-70,5t-55,11v137q24-6 60-11t66-5q52,0 82.5,18T791-276q0,46-45,73T613-165L697,0H849L808-86q46-12 84.5-35T955-180.5T979-268Z" />
      <glyph unicode="&#xc8;" glyph-name="gid138" horiz-adv-x="1143" d="M1020,0H192V1462h828V1260H432V863H983V662H432V203h588V0ZM562,1925q27-46 66-102t81-109t74-91v-26H626q-38,28-85,68.5t-95.5,85t-89,85T292,1905v20H562Z" />
      <glyph unicode="&#xc9;" glyph-name="gid139" horiz-adv-x="1143" d="M1020,0H192V1462h828V1260H432V863H983V662H432V203h588V0ZM963,1925v-20q-24-29-65-69.5t-89-85t-95-85T629,1597H472v26q33,38 73.5,91t80,109T692,1925H963Z" />
      <glyph unicode="&#xca;" glyph-name="gid140" horiz-adv-x="1143" d="M1020,0H192V1462h828V1260H432V863H983V662H432V203h588V0ZM755,1925q27-46 72.5-102t95-109.5T1010,1622v-25H850q-54,34-114.5,81.5T622,1781q-54-55-112.5-102T398,1597H239v25q38,39 87,92t94,109t72,102H755Z" />
      <glyph unicode="&#xcb;" glyph-name="gid141" horiz-adv-x="1143" d="M1020,0H192V1462h828V1260H432V863H983V662H432V203h588V0ZM309,1756q0,60 33,87.5t81,27.5t82.5-27.5T540,1756q0-58-34.5-87T423,1640t-81,29t-33,87Zm393,0q0,60 33.5,87.5T817,1871t82.5-27.5T934,1756q0-58-34.5-87T817,1640t-81.5,29T702,1756Z" />
      <glyph unicode="&#xcc;" glyph-name="gid142" horiz-adv-x="625" d="M192,0V1462H432V0H192Zm26,1925q27-46 66-102t81-109t74-91v-26H282q-38,28-85,68.5t-95.5,85t-89,85T-52,1905v20H218Z" />
      <glyph unicode="&#xcd;" glyph-name="gid143" horiz-adv-x="625" d="M192,0V1462H432V0H192ZM678,1925v-20q-24-29-65-69.5t-89-85t-95-85T344,1597H187v26q33,38 73.5,91t80,109T407,1925H678Z" />
      <glyph unicode="&#xce;" glyph-name="gid144" horiz-adv-x="625" d="M192,0V1462H432V0H192ZM444,1925q27-46 72.5-102t95-109.5T699,1622v-25H539q-54,34-114.5,81.5T311,1781q-54-55-112.5-102T87,1597H-72v25q38,39 87,92t94,109t72,102H444Z" />
      <glyph unicode="&#xcf;" glyph-name="gid145" horiz-adv-x="625" d="M192,0V1462H432V0H192ZM2,1756q0,60 33,87.5t81,27.5t82.5-27.5T233,1756q0-58-34.5-87T116,1640t-81,29T2,1756Zm393,0q0,60 33.5,87.5T510,1871t82.5-27.5T627,1756q0-58-34.5-87T510,1640t-81.5,29T395,1756Z" />
      <glyph unicode="&#xd0;" glyph-name="gid146" horiz-adv-x="1501" d="M642,1462q226,0 391.5-81.5t255.5-241T1379,745q0-247-92-412.5t-267-249T597,0H199V623H53V824H199v638H642Zm-6-199H438V824H743V623H438V201H601q264,0 396,135t132,402q0,180-57.5,296T904,1206.5T636,1263Z" />
      <glyph unicode="&#xd1;" glyph-name="gid147" horiz-adv-x="1604" d="M1412,0H1117L401,1167h-9q4-59 7.5-125t6-136T410,764V0H192V1462H485L1200,303h7q-2,51-5,117t-5.5,136.5T1193,693v769h219V0ZM408,1598q6,70 26,122.5t52.5,88t75,53.5t92.5,18q44,0 84.5-17t79-39.5t75-39.5t70.5-17q39,0 66.5,28t41.5,87h123q-12-138-79-210.5T948,1599q-42,0-82.5,17.5T787,1656t-75,39t-72,17q-40,0-67.5-28T532,1598H408Z" />
      <glyph unicode="&#xd2;" glyph-name="gid148" horiz-adv-x="1612" d="M1490,733q0-169-42.5-307.5T1320,187.5T1107,34T807-20Q632-20 503.5,34t-213,154T164,427T122,735q0,226 74.5,394.5t227,262T809,1485q228,0 379-93t226.5-261.5T1490,733ZM374,733q0-169 46-292.5t141.5-190T807,184q151,0 246,66.5t140,190T1238,733q0,257-102.5,402.5T809,1281q-150,0-246.5-66T420,1026.5T374,733ZM748,1925q27-46 66-102t81-109t74-91v-26H812q-38,28-85,68.5t-95.5,85t-89,85T478,1905v20H748Z" />
      <glyph unicode="&#xd3;" glyph-name="gid149" horiz-adv-x="1612" d="M1490,733q0-169-42.5-307.5T1320,187.5T1107,34T807-20Q632-20 503.5,34t-213,154T164,427T122,735q0,226 74.5,394.5t227,262T809,1485q228,0 379-93t226.5-261.5T1490,733ZM374,733q0-169 46-292.5t141.5-190T807,184q151,0 246,66.5t140,190T1238,733q0,257-102.5,402.5T809,1281q-150,0-246.5-66T420,1026.5T374,733Zm774,1192v-20q-24-29-65-69.5t-89-85t-95-85T814,1597H657v26q33,38 73.5,91t80,109T877,1925h271Z" />
      <glyph unicode="&#xd4;" glyph-name="gid150" horiz-adv-x="1612" d="M1490,733q0-169-42.5-307.5T1320,187.5T1107,34T807-20Q632-20 503.5,34t-213,154T164,427T122,735q0,226 74.5,394.5t227,262T809,1485q228,0 379-93t226.5-261.5T1490,733ZM374,733q0-169 46-292.5t141.5-190T807,184q151,0 246,66.5t140,190T1238,733q0,257-102.5,402.5T809,1281q-150,0-246.5-66T420,1026.5T374,733ZM940,1925q27-46 72.5-102t95-109.5T1195,1622v-25H1035q-54,34-114.5,81.5T807,1781q-54-55-112.5-102T583,1597H424v25q38,39 87,92t94,109t72,102H940Z" />
      <glyph unicode="&#xd5;" glyph-name="gid151" horiz-adv-x="1612" d="M1490,733q0-169-42.5-307.5T1320,187.5T1107,34T807-20Q632-20 503.5,34t-213,154T164,427T122,735q0,226 74.5,394.5t227,262T809,1485q228,0 379-93t226.5-261.5T1490,733ZM374,733q0-169 46-292.5t141.5-190T807,184q151,0 246,66.5t140,190T1238,733q0,257-102.5,402.5T809,1281q-150,0-246.5-66T420,1026.5T374,733Zm36,865q6,70 26,122.5t52.5,88t75,53.5t92.5,18q44,0 84.5-17t79-39.5t75-39.5t70.5-17q39,0 66.5,28t41.5,87h123q-12-138-79-210.5T950,1599q-42,0-82.5,17.5T789,1656t-75,39t-72,17q-40,0-67.5-28T534,1598H410Z" />
      <glyph unicode="&#xd6;" glyph-name="gid152" horiz-adv-x="1612" d="M1490,733q0-169-42.5-307.5T1320,187.5T1107,34T807-20Q632-20 503.5,34t-213,154T164,427T122,735q0,226 74.5,394.5t227,262T809,1485q228,0 379-93t226.5-261.5T1490,733ZM374,733q0-169 46-292.5t141.5-190T807,184q151,0 246,66.5t140,190T1238,733q0,257-102.5,402.5T809,1281q-150,0-246.5-66T420,1026.5T374,733ZM494,1756q0,60 33,87.5t81,27.5t82.5-27.5T725,1756q0-58-34.5-87T608,1640t-81,29t-33,87Zm393,0q0,60 33.5,87.5T1002,1871t82.5-27.5T1119,1756q0-58-34.5-87t-82.5-29t-81.5,29T887,1756Z" />
      <glyph unicode="&#xd7;" glyph-name="gid153" horiz-adv-x="1171" d="M914,1176l123-123L708,723l327-328L913,270L582,597L257,271L133,396L458,723L131,1050l126,126L583,849l331,327Z" />
      <glyph unicode="&#xd8;" glyph-name="gid154" horiz-adv-x="1612" d="M1490,733q0-169-42.5-307.5T1320,187.5T1107,34T807-20Q699-20 608.5,1T447,64L351-76L212,16L312,162Q216,262 169,407.5T122,735q0,226 74.5,394.5t227,262T809,1485q104,0 194-21.5t162-61.5l91,132l138-92l-97-139q95-98 144-243t49-327Zm-252,0q0,112-20.5,203.5T1157,1095L570,246q47-30 105.5-46T807,184q151,0 246,66.5t140,190T1238,733Zm-864,0q0-111 20-202.5T454,371l588,849q-46,29-104,45t-129,16q-150,0-246.5-66T420,1026.5T374,733Z" />
      <glyph unicode="&#xd9;" glyph-name="gid155" horiz-adv-x="1521" d="M1340,1462V516q0-153-64.5-274T1081,50.5T754-20Q473-20 326.5,127.5T180,520v942H420V541q0-183 86-270t257-87q118,0 192.5,41.5t110,122T1101,542v920h239ZM702,1925q27-46 66-102t81-109t74-91v-26H766q-38,28-85,68.5t-95.5,85t-89,85T432,1905v20H702Z" />
      <glyph unicode="&#xda;" glyph-name="gid156" horiz-adv-x="1521" d="M1340,1462V516q0-153-64.5-274T1081,50.5T754-20Q473-20 326.5,127.5T180,520v942H420V541q0-183 86-270t257-87q118,0 192.5,41.5t110,122T1101,542v920h239Zm-238,463v-20q-24-29-65-69.5t-89-85t-95-85T768,1597H611v26q33,38 73.5,91t80,109T831,1925h271Z" />
      <glyph unicode="&#xdb;" glyph-name="gid157" horiz-adv-x="1521" d="M1340,1462V516q0-153-64.5-274T1081,50.5T754-20Q473-20 326.5,127.5T180,520v942H420V541q0-183 86-270t257-87q118,0 192.5,41.5t110,122T1101,542v920h239ZM895,1925q27-46 72.5-102t95-109.5T1150,1622v-25H990q-54,34-114.5,81.5T762,1781q-54-55-112.5-102T538,1597H379v25q38,39 87,92t94,109t72,102H895Z" />
      <glyph unicode="&#xdc;" glyph-name="gid158" horiz-adv-x="1521" d="M1340,1462V516q0-153-64.5-274T1081,50.5T754-20Q473-20 326.5,127.5T180,520v942H420V541q0-183 86-270t257-87q118,0 192.5,41.5t110,122T1101,542v920h239ZM449,1756q0,60 33,87.5t81,27.5t82.5-27.5T680,1756q0-58-34.5-87T563,1640t-81,29t-33,87Zm393,0q0,60 33.5,87.5T957,1871t82.5-27.5T1074,1756q0-58-34.5-87T957,1640t-81.5,29T842,1756Z" />
      <glyph unicode="&#xdd;" glyph-name="gid159" horiz-adv-x="1212" d="M606,795l347,667h259L726,568V0H487V559L0,1462H261L606,795ZM948,1925v-20q-24-29-65-69.5t-89-85t-95-85T614,1597H457v26q33,38 73.5,91t80,109T677,1925H948Z" />
      <glyph unicode="&#xde;" glyph-name="gid160" horiz-adv-x="1259" d="M1161,776q0-94-29-178.5T1037.5,448t-174-103T597,307H432V0H192V1462H432V1220H626q280,0 407.5-118.5T1161,776ZM432,505H561q120,0 198.5,26.5T877,617t39,155q0,127-77.5,188T592,1021H432V505Z" />
      <glyph unicode="&#xdf;" glyph-name="gid161" horiz-adv-x="1366" d="M1150,1255q0-74-29-127t-71.5-93t-85-71.5t-71.5-61T864,840q0-28 17-51t60-52.5T1059,657q69-45 119.5-92T1256,459t27-141q0-113-50-188T1090,17.5T865-20Q767-20 694.5-4T566,45V242q34-21 81.5-40.5t101-32T852,157q98,0 145.5,40.5T1045,310q0,45-16,77.5t-57.5,66T855,533q-84,51-133,94t-70,87t-21,99q0,64 28,108.5t70,78.5t83.5,65t69.5,68.5t28,89.5q0,76-68.5,116T667,1379q-75,0-134.5-21.5T438,1288t-35-128V0H168V1165q0,142 65,230.5t178,130T667,1567q141,0 250-35.5t171-105t62-171.5Z" />
      <glyph unicode="&#xe0;" glyph-name="gid162" horiz-adv-x="1188" d="M602,1128q210,0 317.5-93T1027,745V0H860L815,157h-8q-47-60-97-99T594.5-0.5T435-20q-99,0-177,36.5T135,128T90,318q0,171 127.5,257T603,670l192,7v58q0,115-53.5,164T591,948q-83,0-161-24T278,865l-76,166q81,43 184.5,70T602,1128ZM794,529l-143-5q-176-6-247-60T333,316q0-82 49-119.5T511,159q122,0 202.5,69.5T794,433v96ZM535,1569q27-46 66-102t81-109t74-91v-26H599q-38,28-85,68.5t-95.5,85t-89,85T265,1549v20H535Z" />
      <glyph unicode="&#xe1;" glyph-name="gid163" horiz-adv-x="1188" d="M602,1128q210,0 317.5-93T1027,745V0H860L815,157h-8q-47-60-97-99T594.5-0.5T435-20q-99,0-177,36.5T135,128T90,318q0,171 127.5,257T603,670l192,7v58q0,115-53.5,164T591,948q-83,0-161-24T278,865l-76,166q81,43 184.5,70T602,1128ZM794,529l-143-5q-176-6-247-60T333,316q0-82 49-119.5T511,159q122,0 202.5,69.5T794,433v96ZM935,1569v-20q-24-29-65-69.5t-89-85t-95-85T601,1241H444v26q33,38 73.5,91t80,109T664,1569H935Z" />
      <glyph unicode="&#xe2;" glyph-name="gid164" horiz-adv-x="1188" d="M602,1128q210,0 317.5-93T1027,745V0H860L815,157h-8q-47-60-97-99T594.5-0.5T435-20q-99,0-177,36.5T135,128T90,318q0,171 127.5,257T603,670l192,7v58q0,115-53.5,164T591,948q-83,0-161-24T278,865l-76,166q81,43 184.5,70T602,1128ZM794,529l-143-5q-176-6-247-60T333,316q0-82 49-119.5T511,159q122,0 202.5,69.5T794,433v96ZM727,1569q27-46 72.5-102t95-109.5T982,1266v-25H822q-54,34-114.5,81.5T594,1425q-54-55-112.5-102T370,1241H211v25q38,39 87,92t94,109t72,102H727Z" />
      <glyph unicode="&#xe3;" glyph-name="gid165" horiz-adv-x="1188" d="M602,1128q210,0 317.5-93T1027,745V0H860L815,157h-8q-47-60-97-99T594.5-0.5T435-20q-99,0-177,36.5T135,128T90,318q0,171 127.5,257T603,670l192,7v58q0,115-53.5,164T591,948q-83,0-161-24T278,865l-76,166q81,43 184.5,70T602,1128ZM794,529l-143-5q-176-6-247-60T333,316q0-82 49-119.5T511,159q122,0 202.5,69.5T794,433v96ZM197,1242q6,70 26,122.5t52.5,88t75,53.5t92.5,18q44,0 84.5-17t79-39.5t75-39.5t70.5-17q39,0 66.5,28t41.5,87H983q-12-138-79-210.5T737,1243q-42,0-82.5,17.5T576,1300t-75,39t-72,17q-40,0-67.5-28T321,1242H197Z" />
      <glyph unicode="&#xe4;" glyph-name="gid166" horiz-adv-x="1188" d="M602,1128q210,0 317.5-93T1027,745V0H860L815,157h-8q-47-60-97-99T594.5-0.5T435-20q-99,0-177,36.5T135,128T90,318q0,171 127.5,257T603,670l192,7v58q0,115-53.5,164T591,948q-83,0-161-24T278,865l-76,166q81,43 184.5,70T602,1128ZM794,529l-143-5q-176-6-247-60T333,316q0-82 49-119.5T511,159q122,0 202.5,69.5T794,433v96ZM281,1400q0,60 33,87.5t81,27.5t82.5-27.5T512,1400q0-58-34.5-87T395,1284t-81,29t-33,87Zm393,0q0,60 33.5,87.5T789,1515t82.5-27.5T906,1400q0-58-34.5-87T789,1284t-81.5,29T674,1400Z" />
      <glyph unicode="&#xe5;" glyph-name="gid167" horiz-adv-x="1188" d="M602,1128q210,0 317.5-93T1027,745V0H860L815,157h-8q-47-60-97-99T594.5-0.5T435-20q-99,0-177,36.5T135,128T90,318q0,171 127.5,257T603,670l192,7v58q0,115-53.5,164T591,948q-83,0-161-24T278,865l-76,166q81,43 184.5,70T602,1128ZM794,529l-143-5q-176-6-247-60T333,316q0-82 49-119.5T511,159q122,0 202.5,69.5T794,433v96ZM596,1241q-104,0-169.5,60T361,1468q0,105 65,165t170,60q100,0 169.5-60T835,1470q0-108-68.5-168.5T596,1241Zm0,118q47,0 77.5,29.5T704,1468q0,49-31,78t-77,29t-77-29t-31-78q0-50 27.5-79.5T596,1359Z" />
      <glyph unicode="&#xe6;" glyph-name="gid168" horiz-adv-x="1822" d="M1274,1128q137,0 238.5-61T1670,894t55-266V501H1009q5-165 82.5-250.5T1312,165q100,0 185,20.5T1669,246V55q-83-39-167.5-57T1301-20q-94,0-174,25T983.5,79.5T876,203Q823,131 765.5,81T630.5,5.5T442-20q-98,0-178,36.5T137,128T90,318q0,114 55,190T309.5,624T582,670l189,7v77q0,104-54,149T571,948q-81,0-157.5-23T264,867l-75,164q81,43 185,70t212,27q121,0 205-39T924,967q59,78 146,119.5t204,41.5ZM769,529l-135-5q-166-6-233.5-60T333,316q0-82 46.5-119.5T503,159t137,31t94.5,92T769,433v96Zm501,422q-111,0-178.5-70.5T1014,668h480q0,84-25,147.5T1394.5,915T1270,951Z" />
      <glyph unicode="&#xe7;" glyph-name="gid169" horiz-adv-x="1017" d="M614-20Q457-20 342,41T165,228T103,548q0,202 68,330t188.5,189T636,1128q99,0 179.5-19.5T952,1061L882,873q-61,25-125,42T634,932q-97,0-161.5-43t-96-128T345,550q0-122 32-205.5t95-126T627,176q91,0 163,22t136,57V51Q863,15 791-2.5T614-20ZM806-268q0-106-71-165T504-492q-38,0-70,5t-55,11v137q24-6 60-11t66-5q52,0 82.5,18T618-276q0,46-45,73T440-165L524,0H676L635-86q46-12 84.5-35T782-180.5T806-268Z" />
      <glyph unicode="&#xe8;" glyph-name="gid170" horiz-adv-x="1180" d="M609,1128q148,0 254-61t163-173t57-268V500H344q4-161 86.5-248T662,165q106,0 190.5,20.5T1027,246V55Q944,16 858-2T652-20Q489-20 365.5,43.5T172.5,233T103,546q0,186 63,316t177,198t266,68Zm0-177q-111,0-179.5-72T349,668H853q-1,83-27.5,147t-80,100T609,951Zm-73,618q27-46 66-102t81-109t74-91v-26H600q-38,28-85,68.5t-95.5,85t-89,85T266,1549v20H536Z" />
      <glyph unicode="&#xe9;" glyph-name="gid171" horiz-adv-x="1180" d="M609,1128q148,0 254-61t163-173t57-268V500H344q4-161 86.5-248T662,165q106,0 190.5,20.5T1027,246V55Q944,16 858-2T652-20Q489-20 365.5,43.5T172.5,233T103,546q0,186 63,316t177,198t266,68Zm0-177q-111,0-179.5-72T349,668H853q-1,83-27.5,147t-80,100T609,951Zm327,618v-20q-24-29-65-69.5t-89-85t-95-85T602,1241H445v26q33,38 73.5,91t80,109T665,1569H936Z" />
      <glyph unicode="&#xea;" glyph-name="gid172" horiz-adv-x="1180" d="M609,1128q148,0 254-61t163-173t57-268V500H344q4-161 86.5-248T662,165q106,0 190.5,20.5T1027,246V55Q944,16 858-2T652-20Q489-20 365.5,43.5T172.5,233T103,546q0,186 63,316t177,198t266,68Zm0-177q-111,0-179.5-72T349,668H853q-1,83-27.5,147t-80,100T609,951Zm119,618q27-46 72.5-102t95-109.5T983,1266v-25H823q-54,34-114.5,81.5T595,1425q-54-55-112.5-102T371,1241H212v25q38,39 87,92t94,109t72,102H728Z" />
      <glyph unicode="&#xeb;" glyph-name="gid173" horiz-adv-x="1180" d="M609,1128q148,0 254-61t163-173t57-268V500H344q4-161 86.5-248T662,165q106,0 190.5,20.5T1027,246V55Q944,16 858-2T652-20Q489-20 365.5,43.5T172.5,233T103,546q0,186 63,316t177,198t266,68Zm0-177q-111,0-179.5-72T349,668H853q-1,83-27.5,147t-80,100T609,951ZM282,1400q0,60 33,87.5t81,27.5t82.5-27.5T513,1400q0-58-34.5-87T396,1284t-81,29t-33,87Zm393,0q0,60 33.5,87.5T790,1515t82.5-27.5T907,1400q0-58-34.5-87T790,1284t-81.5,29T675,1400Z" />
      <glyph unicode="&#xec;" glyph-name="gid174" horiz-adv-x="571" d="M403,0H168V1107H403V0ZM227,1569q27-46 66-102t81-109t74-91v-26H291q-38,28-85,68.5t-95.5,85t-89,85T-43,1549v20H227Z" />
      <glyph unicode="&#xed;" glyph-name="gid175" horiz-adv-x="571" d="M403,0H168V1107H403V0ZM627,1569v-20q-24-29-65-69.5t-89-85t-95-85T293,1241H136v26q33,38 73.5,91t80,109T356,1569H627Z" />
      <glyph unicode="&#xee;" glyph-name="gid176" horiz-adv-x="571" d="M403,0H168V1107H403V0Zm16,1569q27-46 72.5-102t95-109.5T674,1266v-25H514q-54,34-114.5,81.5T286,1425q-54-55-112.5-102T62,1241H-97v25q38,39 87,92t94,109t72,102H419Z" />
      <glyph unicode="&#xef;" glyph-name="gid177" horiz-adv-x="571" d="M403,0H168V1107H403V0ZM-27,1400q0,60 33,87.5T87,1515t82.5-27.5T204,1400q0-58-34.5-87T87,1284T6,1313t-33,87Zm393,0q0,60 33.5,87.5T481,1515t82.5-27.5T598,1400q0-58-34.5-87T481,1284t-81.5,29T366,1400Z" />
      <glyph unicode="&#xf0;" glyph-name="gid178" horiz-adv-x="1248" d="M449,1566q70-31 135-67.5T706,1421l230,139l86-128L835,1320q98-90 167.5-202.5T1109,868t37-300q0-190-63.5-321T901.5,48T621-20Q469-20 352,40T169,212.5T103,482q0,158 60,269.5T331,922t251,59q72,0 129-12t100-36.5T882,871l8,4q-33,101-90.5,186T665,1217L417,1069l-86,130l204,120q-39,26-82,52t-88,50l84,145ZM626,801q-99,0-161.5-36.5T372.5,656T343,478q0-94 29.5-165.5t92-111.5T625,161q147,0 214,93t67,273q0,55-16.5,104T839,718.5T752,779T626,801Z" />
      <glyph unicode="&#xf1;" glyph-name="gid179" horiz-adv-x="1301" d="M745,1128q187,0 291.5-96.5T1141,722V0H906V678q0,129-53,193.5T689,936q-161,0-223.5-99T403,550V0H168V1107H351l33-150h13q36,58 89.5,95.5t120,56.5T745,1128ZM256,1242q6,70 26,122.5t52.5,88t75,53.5t92.5,18q44,0 84.5-17t79-39.5t75-39.5t70.5-17q39,0 66.5,28t41.5,87h123q-12-138-79-210.5T796,1243q-42,0-82.5,17.5T635,1300t-75,39t-72,17q-40,0-67.5-28T380,1242H256Z" />
      <glyph unicode="&#xf2;" glyph-name="gid180" horiz-adv-x="1250" d="M1148,556q0-138-36-245T1007,130.5T841,18.5T622-20Q508-20 413,18.5t-164.5,112T141,311T103,556q0,183 63.5,310.5T348,1061t281,67q153,0 270-67t183-195t66-310Zm-803,0q0-121 29.5-207T466,217.5T626,172t160,45.5T877,349t29,207T877,761.5t-91,129T625,935q-146,0-213-98T345,556ZM567,1569q27-46 66-102t81-109t74-91v-26H631q-38,28-85,68.5t-95.5,85t-89,85T297,1549v20H567Z" />
      <glyph unicode="&#xf3;" glyph-name="gid181" horiz-adv-x="1250" d="M1148,556q0-138-36-245T1007,130.5T841,18.5T622-20Q508-20 413,18.5t-164.5,112T141,311T103,556q0,183 63.5,310.5T348,1061t281,67q153,0 270-67t183-195t66-310Zm-803,0q0-121 29.5-207T466,217.5T626,172t160,45.5T877,349t29,207T877,761.5t-91,129T625,935q-146,0-213-98T345,556ZM968,1569v-20q-24-29-65-69.5t-89-85t-95-85T634,1241H477v26q33,38 73.5,91t80,109T697,1569H968Z" />
      <glyph unicode="&#xf4;" glyph-name="gid182" horiz-adv-x="1250" d="M1148,556q0-138-36-245T1007,130.5T841,18.5T622-20Q508-20 413,18.5t-164.5,112T141,311T103,556q0,183 63.5,310.5T348,1061t281,67q153,0 270-67t183-195t66-310Zm-803,0q0-121 29.5-207T466,217.5T626,172t160,45.5T877,349t29,207T877,761.5t-91,129T625,935q-146,0-213-98T345,556ZM760,1569q27-46 72.5-102t95-109.5T1015,1266v-25H855q-54,34-114.5,81.5T627,1425q-54-55-112.5-102T403,1241H244v25q38,39 87,92t94,109t72,102H760Z" />
      <glyph unicode="&#xf5;" glyph-name="gid183" horiz-adv-x="1250" d="M1148,556q0-138-36-245T1007,130.5T841,18.5T622-20Q508-20 413,18.5t-164.5,112T141,311T103,556q0,183 63.5,310.5T348,1061t281,67q153,0 270-67t183-195t66-310Zm-803,0q0-121 29.5-207T466,217.5T626,172t160,45.5T877,349t29,207T877,761.5t-91,129T625,935q-146,0-213-98T345,556ZM230,1242q6,70 26,122.5t52.5,88t75,53.5t92.5,18q44,0 84.5-17t79-39.5t75-39.5t70.5-17q39,0 66.5,28t41.5,87h123q-12-138-79-210.5T770,1243q-42,0-82.5,17.5T609,1300t-75,39t-72,17q-40,0-67.5-28T354,1242H230Z" />
      <glyph unicode="&#xf6;" glyph-name="gid184" horiz-adv-x="1250" d="M1148,556q0-138-36-245T1007,130.5T841,18.5T622-20Q508-20 413,18.5t-164.5,112T141,311T103,556q0,183 63.5,310.5T348,1061t281,67q153,0 270-67t183-195t66-310Zm-803,0q0-121 29.5-207T466,217.5T626,172t160,45.5T877,349t29,207T877,761.5t-91,129T625,935q-146,0-213-98T345,556Zm-32,844q0,60 33,87.5t81,27.5t82.5-27.5T544,1400q0-58-34.5-87T427,1284t-81,29t-33,87Zm393,0q0,60 33.5,87.5T821,1515t82.5-27.5T938,1400q0-58-34.5-87T821,1284t-81.5,29T706,1400Z" />
      <glyph unicode="&#xf7;" glyph-name="gid185" horiz-adv-x="1171" d="M96,633V811h978V633H96ZM584,237q-51,0-87.5,32.5T460,372q0,75 36.5,104.5T584,506q50,0 86.5-29.5T707,372q0-70-36.5-102.5T584,237Zm0,701q-51,0-87.5,32T460,1072q0,75 36.5,104.5T584,1206q50,0 86.5-29.5T707,1072q0-70-36.5-102T584,938Z" />
      <glyph unicode="&#xf8;" glyph-name="gid186" horiz-adv-x="1250" d="M1148,556q0-183-63.5-312T903,47.5T622-20Q551-20 488-5T370,40L292-71L161,19l82,116q-67,75-103.5,180T103,556q0,274 141,423t385,149q73,0 138.5-17T889,1063l70,100l132-90l-78-108q64-73 99.5-176T1148,556Zm-803,0q0-66 8.5-121T381,337L773,895q-29,19-66.5,29.5T625,935q-146,0-213-98T345,556Zm561,0q0,59-8,110.5T874,758L486,207q27-18 63-26.5t77-8.5q98,0 160,45.5T877,349t29,207Z" />
      <glyph unicode="&#xf9;" glyph-name="gid187" horiz-adv-x="1301" d="M1133,1107V0H948L916,149H903q-35-57-89-94.5T694-1.5T555-20Q430-20 341.5,22.5T206,154T159,384v723H395V428q0-129 52.5-193T611,171q107,0 170,44t89.5,130T897,556v551h236ZM593,1569q27-46 66-102t81-109t74-91v-26H657q-38,28-85,68.5t-95.5,85t-89,85T323,1549v20H593Z" />
      <glyph unicode="&#xfa;" glyph-name="gid188" horiz-adv-x="1301" d="M1133,1107V0H948L916,149H903q-35-57-89-94.5T694-1.5T555-20Q430-20 341.5,22.5T206,154T159,384v723H395V428q0-129 52.5-193T611,171q107,0 170,44t89.5,130T897,556v551h236ZM993,1569v-20q-24-29-65-69.5t-89-85t-95-85T659,1241H502v26q33,38 73.5,91t80,109T722,1569H993Z" />
      <glyph unicode="&#xfb;" glyph-name="gid189" horiz-adv-x="1301" d="M1133,1107V0H948L916,149H903q-35-57-89-94.5T694-1.5T555-20Q430-20 341.5,22.5T206,154T159,384v723H395V428q0-129 52.5-193T611,171q107,0 170,44t89.5,130T897,556v551h236ZM785,1569q27-46 72.5-102t95-109.5T1040,1266v-25H880q-54,34-114.5,81.5T652,1425q-54-55-112.5-102T428,1241H269v25q38,39 87,92t94,109t72,102H785Z" />
      <glyph unicode="&#xfc;" glyph-name="gid190" horiz-adv-x="1301" d="M1133,1107V0H948L916,149H903q-35-57-89-94.5T694-1.5T555-20Q430-20 341.5,22.5T206,154T159,384v723H395V428q0-129 52.5-193T611,171q107,0 170,44t89.5,130T897,556v551h236ZM338,1400q0,60 33,87.5t81,27.5t82.5-27.5T569,1400q0-58-34.5-87T452,1284t-81,29t-33,87Zm393,0q0,60 33.5,87.5T846,1515t82.5-27.5T963,1400q0-58-34.5-87T846,1284t-81.5,29T731,1400Z" />
      <glyph unicode="&#xfd;" glyph-name="gid191" horiz-adv-x="1096" d="M1,1107H257L484,475q15-43 27.5-84.5t22-81.5T549,229h6q10,52 28.5,116.5T625,475l218,632h253L621-152Q580-260 520.5-336.5T380-452.5T195-492q-50,0-87,5.5T45-475v188q21-5 53-9t66-4q63,0 109,25t78,70.5T404-101L443,3L1,1107Zm888,462v-20q-24-29-65-69.5t-89-85t-95-85T555,1241H398v26q33,38 73.5,91t80,109T618,1569H889Z" />
      <glyph unicode="&#xfe;" glyph-name="gid192" horiz-adv-x="1275" d="M1172,556q0-188-54.5-316.5T965,45.5T735-20Q651-20 588,1T480,56.5T404,134H391q3-19 6-50.5t5-64T404-36V-491H168V1556H404V1130q0-40-3.5-92.5T394,955h10q31,48 76,87t108.5,62.5T736,1128q197,0 316.5-145T1172,556Zm-241,3q0,188-63,282.5T674,936q-146,0-207-86.5T404,591V556q0-185 59.5-284T676,173q86,0 142.5,44.5t84.5,131T931,559Z" />
      <glyph unicode="&#xff;" glyph-name="gid193" horiz-adv-x="1096" d="M1,1107H257L484,475q15-43 27.5-84.5t22-81.5T549,229h6q10,52 28.5,116.5T625,475l218,632h253L621-152Q580-260 520.5-336.5T380-452.5T195-492q-50,0-87,5.5T45-475v188q21-5 53-9t66-4q63,0 109,25t78,70.5T404-101L443,3L1,1107Zm234,293q0,60 33,87.5t81,27.5t82.5-27.5T466,1400q0-58-34.5-87T349,1284t-81,29t-33,87Zm393,0q0,60 33.5,87.5T743,1515t82.5-27.5T860,1400q0-58-34.5-87T743,1284t-81.5,29T628,1400Z" />
      <glyph unicode="&#x2013;" glyph-name="gid203" horiz-adv-x="1024" d="M82,456V645H942V456H82Z" />
      <glyph unicode="&#x2014;" glyph-name="gid204" horiz-adv-x="2048" d="M82,456V645H1966V456H82Z" />
      <glyph unicode="&#x2018;" glyph-name="gid205" horiz-adv-x="396" d="M39,961L26,983q18,73 46.5,156T134,1305.5T201,1462H371q-19-79-39-168t-36.5-175.5T268,961H39Z" />
      <glyph unicode="&#x2019;" glyph-name="gid206" horiz-adv-x="396" d="M356,1462l15-22q-18-73-46.5-156T263,1118T196,961H26q14,59 29,124.5t29,132t25,129T128,1462H356Z" />
      <glyph unicode="&#x201a;" glyph-name="gid207" horiz-adv-x="543" d="M395,237l15-22q-18-73-46.5-156T302-107T235-264H65q14,59 29,124.5t29,132t25,129T167,237H395Z" />
      <glyph unicode="&#x201c;" glyph-name="gid208" horiz-adv-x="813" d="M788,1462q-20-79-40-168t-36.5-175.5T685,961H456l-14,22q18,73 46.5,156t62,166.5T618,1462H788Zm-417,0q-20-79-40-168t-36.5-175.5T267,961H39L26,983q18,73 46,156t61.5,166.5T201,1462H371Z" />
      <glyph unicode="&#x201d;" glyph-name="gid209" horiz-adv-x="813" d="M773,1462l15-22q-18-73-46.5-156T680,1118T613,961H441q20,79 40,168t37,176t27,157H773Zm-417,0l14-22q-18-73-46.5-156T262,1118T195,961H26q14,59 29,124.5t28.5,132t25,129T127,1462H356Z" />
      <glyph unicode="&#x201e;" glyph-name="gid210" horiz-adv-x="944" d="M812,237l15-22q-18-73-46.5-156T719-107T652-264H480q20,79 40,168T557,80t27,157H812Zm-417,0l14-22q-18-73-46.5-156T301-107T234-264H65q14,59 29,124.5t28.5,132t25,129T166,237H395Z" />
      <glyph unicode="&#x2022;" glyph-name="gid211" horiz-adv-x="770" d="M135,748q0,101 33,162t89.5,89T385,1027q70,0 127-28t90.5-89T636,748q0-98-33.5-160T512,497.5T385,469q-71,0-127.5,28.5t-89.5,90T135,748Z" />
      <glyph unicode="&#x2039;" glyph-name="gid215" horiz-adv-x="685" d="M81,565L436,997l169-94L322,553L605,202L436,108L81,538v27Z" />
      <glyph unicode="&#x203a;" glyph-name="gid216" horiz-adv-x="685" d="M248,997L604,565V539L248,108L80,202L362,553L80,903l168,94Z" />
    </font>
</defs>
</svg>
